<svg width="404" height="575" viewBox="0 0 404 575" fill="none" xmlns="http://www.w3.org/2000/svg">
<path d="M357.204 54.3294C357.746 61.3336 356.993 70.6726 351.934 80.6186C348.17 88.0197 341.786 100.534 325.555 105.74C322.724 106.651 312.606 109.756 300.681 106.908C283.577 102.799 277.343 89.8642 276.561 88.2065C278.036 84.2841 277.765 81.319 277.253 79.3578C275.988 74.3615 271.471 68.9916 269.996 67.2172C268.37 65.2794 266.984 63.9252 266.563 61.5905C266.503 61.2169 265.78 56.9677 268.46 55.6602C270.749 54.5395 272.887 56.8276 277.615 56.8509C281.68 56.8509 284.721 55.2166 289.84 52.4149C296.736 48.6327 296.285 47.045 299.778 46.4847C306.192 45.4574 312.907 49.9635 313.901 50.6405C317.786 53.2554 317.274 54.7263 320.014 55.3801C323.567 56.2206 325.374 54.0259 333.384 53.022C336.034 52.6951 338.022 52.4383 340.642 52.7185C346.122 53.3488 347.477 55.6369 350.579 55.9637C356.391 56.5941 364.521 50.0102 366.629 43.2394C369.882 32.7097 358.83 21.1761 347.929 15.7128C340.551 12.0239 339.377 14.1719 318.147 7.72799C305.71 3.94571 304.174 2.63826 298.664 2.40479C286.468 1.89114 276.771 7.6346 270.779 11.2768C254.909 20.9426 254.608 28.4605 240.997 41.4883C228.68 53.2554 215.762 59.746 205.493 64.8825C180.981 77.1632 174.236 73.4976 150.506 85.3114C136.233 92.409 121.959 99.5067 113.075 113.725C102.295 131.026 106.722 147.205 108.107 151.922C109.883 157.922 112.172 165.206 120.724 169.992C126.777 173.378 133.342 174.032 137.136 174.148C139.093 172.701 142.285 170.786 146.682 169.712C153.819 167.985 160.233 169.455 162.732 170.016C167.611 171.09 178.722 171.907 200.916 173.565C216.063 174.685 228.018 175.596 242.533 172.374C251.175 170.459 261.745 168.008 269.634 160.233C271.682 158.225 279.722 150.287 278.036 140.995C276.832 134.388 271.863 133.407 268.49 123.531C266.412 117.414 266.503 112.464 266.593 110.807C267.075 100.744 272.525 92.876 276.591 88.2766" stroke="#33449B" stroke-width="3" stroke-miterlimit="10"/>
<path d="M293.213 104.246C290.714 108.565 287.763 114.682 286.076 122.27C285.534 124.698 283.697 133.874 285.685 145.968C286.588 151.385 289.389 166.957 303.241 182.086C308.42 187.76 308.571 186.149 321.188 196.889C333.354 207.232 341.334 215.59 355.548 230.649C367.473 243.257 373.435 249.537 376.175 253.156C381.897 260.697 394.635 277.834 399.092 302.302C400.627 310.801 403.578 328.148 396.05 349.371C392.557 359.176 386.293 376.01 367.021 390.812C354.223 400.641 341.304 405.241 333.414 407.996C297.941 420.323 263.401 417.942 244.821 415.397C244.821 411.008 244.61 406.245 244.068 401.178C243.526 396.182 242.713 391.536 241.78 387.263C250.513 385.419 263.762 382.244 279.21 376.897C303.09 368.655 319.833 362.865 328.476 350.258C330.403 347.456 335.432 339.168 332.692 320.653C327.964 289.017 306.011 264.573 289.931 250.191C291.075 248.066 292.641 244.681 293.364 240.432C294.719 232.517 292.099 228.431 292.219 220.586C292.28 217.107 292.882 212.018 295.652 205.784" stroke="#33449B" stroke-width="3" stroke-miterlimit="10"/>
<path d="M289.871 250.191C289.208 251.779 287.913 254.23 285.293 256.705C283.125 258.736 280.837 260.044 279.18 260.861C283.577 262.098 288.516 263.826 293.695 266.184C305.048 271.39 312.847 277.647 317.816 282.434" stroke="#33449B" stroke-width="3" stroke-miterlimit="10"/>
<path d="M224.193 268.845C226.723 266.16 230.276 263.195 235.275 260.861C254.096 252.035 276.38 259.833 279.18 260.861" stroke="#33449B" stroke-width="3" stroke-miterlimit="10"/>
<path d="M125.663 296.092C129.216 290.769 135.51 283.017 146.29 275.966C152.042 272.184 165.382 263.686 185.618 261.748C192.544 261.094 205.162 259.88 218.08 264.993C231.842 270.433 237.865 279.865 243.285 288.387C252.711 303.143 254.578 317.478 254.367 327.774C252.018 329.572 249.218 331.487 245.965 333.401C242.743 335.316 239.642 336.857 236.811 338.141C236.57 346.125 236.299 354.134 236.058 362.118C249.067 363.006 259.275 364.173 266.232 365.084C268.761 365.41 276.32 365.807 291.436 366.554C293.815 366.671 299.718 367.535 302.518 365.084C302.819 364.827 303.903 363.869 303.723 362.725C303.301 360.297 297.339 359.317 297.549 358.663C297.73 358.149 301.284 359.083 305.319 358.149C308.631 357.379 312.004 355.418 311.673 354.134C311.221 352.359 303.903 352.102 303.964 351.705C304.024 351.309 310.95 352.779 314.563 350.141C316.551 348.694 317.394 346.102 316.25 344.958C314.834 343.581 310.739 344.655 310.528 344.071C310.257 343.277 317.515 341.736 317.394 340.219C317.244 338.491 307.728 337.417 300.681 337.137C294.117 336.88 291.165 337.37 284.39 337.557C279.692 337.697 272.947 337.697 264.636 336.997C268.55 332.771 272.465 331.183 275.386 330.506C279.572 329.549 282.704 330.273 286.347 328.288C288.606 327.051 291.196 324.693 290.533 323.525C289.69 321.961 282.674 321.681 254.397 327.774" stroke="#33449B" stroke-width="3" stroke-miterlimit="10"/>
<path d="M259.336 364.78C259.637 370.78 259.908 376.804 260.209 382.804" stroke="#33449B" stroke-width="3" stroke-miterlimit="10"/>
<path d="M148.579 204.22C139.846 207.068 126.988 212.088 113.979 220.866C104.553 227.217 97.6273 231.91 93.6825 239.684C84.9797 256.915 98.3199 274.799 100.458 277.624C113.648 295.321 136.955 302.349 154.18 307.555C162.913 310.194 178.09 313.766 208.685 320.513C220.399 323.105 230.156 325.183 236.901 326.607C236.901 330.436 236.841 334.288 236.811 338.117" stroke="#33449B" stroke-width="3" stroke-miterlimit="10"/>
<path d="M236.028 362.118C235.757 364.756 235.516 367.418 235.245 370.056C216.545 366.367 191.28 361.021 161.437 353.62C144.724 349.487 140.238 348.086 137.618 347.246C125.603 343.37 96.1518 333.564 70.3748 311.174C55.4988 298.24 43.6643 287.967 40.5927 271.577C36.8888 251.942 48.1512 236.159 53.6318 228.454C66.0083 211.084 83.4741 201.348 103.861 189.954C117.171 182.53 129.005 177.347 137.136 174.078" stroke="#33449B" stroke-width="3" stroke-miterlimit="10"/>
<path d="M57.4863 299.571C30.9565 334.989 19.0316 366.695 13.1896 387.661C4.48688 418.853 -3.73405 448.224 11.5033 482.124C16.743 493.775 28.3065 519.573 61.9129 536.197C69.5918 540.002 99.133 554.128 136.714 549.225C150.295 547.45 160.895 543.715 167.791 540.75" stroke="#33449B" stroke-width="3" stroke-miterlimit="10"/>
<path d="M60.2567 469.096C77.0298 424.993 93.8029 380.889 110.546 336.786" stroke="#33449B" stroke-width="3" stroke-miterlimit="10"/>
<path d="M145.236 349.487C153.608 416.728 161.979 483.968 170.321 551.209C236.148 546.423 301.976 541.66 367.804 536.874C365.064 489.922 362.323 442.947 359.583 395.995" stroke="#33449B" stroke-width="3" stroke-miterlimit="10"/>
<path d="M266.111 417.288C269.273 459.383 272.405 501.479 275.567 543.574" stroke="#33449B" stroke-width="3" stroke-miterlimit="10"/>
<path d="M212.239 388.431C208.474 383.435 204.831 382.01 202.06 381.707C198.386 381.31 196.038 382.898 191.4 381.894C188.991 381.38 185.438 380.049 185.468 378.578C185.528 376.757 191.189 375.403 194.231 374.913C197.212 374.423 204.65 373.652 219.556 379.139C225.518 381.333 233.739 384.929 242.442 390.766" stroke="#33449B" stroke-width="3" stroke-miterlimit="10"/>
<path d="M244.761 410.891C232.987 414.323 222.838 416.565 215.099 418.035C213.714 418.292 203.686 420.207 190.467 420.417C185.076 420.51 178.632 420.323 178.15 418.759C177.668 417.195 183.48 415.187 182.878 413.996C182.366 413.016 178.271 413.996 172.218 412.525C170.652 412.152 168.213 411.545 168.183 410.681C168.123 409.35 174.025 408.44 173.874 407.739C173.663 406.782 164.479 407.903 163.696 406.082C163.214 404.961 166.105 403.046 168.424 402.042C172.64 400.221 176.675 400.665 176.705 400.245C176.795 399.451 162.341 398.984 162.01 396.906C161.708 394.945 174.085 392.353 175.982 391.956C184.474 390.182 197.031 388.408 213.413 388.991" stroke="#33449B" stroke-width="3" stroke-miterlimit="10"/>
<path d="M311.191 540.983C312.907 542.711 315.828 545.209 320.285 546.89C326.247 549.155 330.162 548.197 344.888 548.688C355.999 549.061 360.095 549.832 363.829 550.999C367.593 552.19 373.616 554.081 374.128 557.443C374.64 560.781 369.912 564.05 366.148 565.428C362.835 566.665 360.275 566.432 352.175 566.198C348.592 566.105 343.081 565.965 336.215 565.941C337.058 564.47 337.811 562.439 336.877 560.525C336.275 559.311 334.107 556.299 317.605 554.594C302.428 553.03 298.844 554.991 291.015 552.797C285.835 551.349 280.505 548.571 275.537 543.528" stroke="#33449B" stroke-width="3" stroke-miterlimit="10"/>
<path d="M239.069 546.213C238.467 549.878 238.407 555.015 242.472 557.98C245.363 560.081 248.856 560.035 254.427 560.548C256.656 560.758 263.913 562.229 278.367 565.194C293.424 568.253 292.129 568.907 303.301 570.868C318.448 573.529 324.079 572.922 328.566 571.125C332.3 569.63 334.77 567.482 336.215 565.965" stroke="#33449B" stroke-width="3" stroke-miterlimit="10"/>
<path d="M176.735 400.268C185.829 399.521 194.953 398.774 204.048 398.027" stroke="#33449B" stroke-width="3" stroke-miterlimit="10"/>
<path d="M203.536 405.661C193.659 406.362 183.751 407.062 173.874 407.762" stroke="#33449B" stroke-width="3" stroke-miterlimit="10"/>
<path d="M204.921 412.035C197.573 412.689 190.226 413.343 182.878 413.996" stroke="#33449B" stroke-width="3" stroke-miterlimit="10"/>
<path d="M278.187 357.916C284.631 358.149 291.075 358.406 297.519 358.64" stroke="#33449B" stroke-width="3" stroke-miterlimit="10"/>
<path d="M277.795 352.616C286.528 352.312 295.231 351.986 303.964 351.682" stroke="#33449B" stroke-width="3" stroke-miterlimit="10"/>
<path d="M275.778 344.398C287.341 344.281 298.935 344.164 310.498 344.047" stroke="#33449B" stroke-width="3" stroke-miterlimit="10"/>
<path d="M314.142 107.935C308.481 163.735 319.743 186.126 332.391 195.768C334.92 197.682 344.105 204.126 352.566 214.983C360.697 225.443 364.552 235.365 366.509 242.229" stroke="#33449B" stroke-width="3" stroke-miterlimit="10"/>
<path d="M269.695 126.496C270.297 127.383 272.796 130.675 278.006 132.029C280.867 132.777 283.396 132.636 284.812 132.45" stroke="#33449B" stroke-width="3" stroke-miterlimit="10"/>
<path d="M148.579 204.22C129.939 223.832 111.299 243.467 92.6887 263.079" stroke="#33449B" stroke-width="3" stroke-miterlimit="10"/>
</svg>
