<svg width="738" height="686" viewBox="0 0 738 686" fill="none" xmlns="http://www.w3.org/2000/svg">
<g clip-path="url(#clip0_117_79)">
<path d="M151.39 244.165L16.494 290.5C5.76022 294.187 -0.2942 307.001 2.97106 319.121L96.7913 667.359C100.057 679.479 111.405 686.316 122.139 682.629L257.035 636.293C267.769 632.606 273.823 619.792 270.558 607.673L176.738 259.434C173.472 247.314 162.124 240.478 151.39 244.165Z" stroke="#33449B" stroke-width="3" stroke-miterlimit="10"/>
<path d="M244.314 616.625L122.924 658.303C112.338 661.939 101.048 654.87 97.7173 642.512C69.8435 537.653 41.9697 432.778 14.1097 327.919C13.9024 327.076 12.9212 322.754 15.0356 318.556C16.459 315.732 18.5595 314.421 19.444 313.938C34.1893 308.898 48.9485 303.873 63.6938 298.833C64.7303 300.05 67.66 303.155 72.331 304.248C76.7256 305.277 80.1942 303.936 81.5624 303.311C90.8905 300.066 100.232 296.836 109.561 293.59C110.929 292.903 113.195 291.515 115.254 288.831C118.06 285.148 118.833 281.138 119.096 279.359C132.017 275.193 144.938 271.027 157.86 266.86C159.656 267.032 162.531 267.578 165.64 269.513C166.884 270.278 170.186 272.525 172.867 277.05C174.001 278.953 174.899 281.091 175.521 283.401L257.47 587.679C260.801 600.038 254.913 613.005 244.314 616.64V616.625Z" stroke="#33449B" stroke-width="3" stroke-miterlimit="10"/>
<path d="M379.689 130.637C370.278 141.793 360.867 152.966 351.442 164.123C350.212 164.965 348.678 166.183 348.872 167.166C349.535 170.521 369.491 167.337 391.229 166.292C401.718 165.792 406.61 166.073 435.133 167.166C516.64 170.271 544.859 170.552 575.304 168.898C628.287 166.011 637.436 160.019 643.848 153.247C665.337 130.527 669.138 85.0884 653.093 54.9883C639.992 30.4119 617.923 24.0299 577.625 12.3737C563.405 8.2698 506.662 -6.97534 434.387 10.6416C388.036 21.9233 376.414 36.7003 371.232 45.423C368.827 49.4644 355.422 73.1045 362.76 101.083C366.782 116.421 375.226 126.174 379.703 130.652L379.689 130.637Z" stroke="#33449B" stroke-width="3" stroke-miterlimit="10"/>
<path d="M285.551 214.384C284.211 216.693 268.222 201.698 245.696 201.058C236.188 200.793 229.209 203.18 226.059 204.179C213.165 208.236 74.7632 248.619 40.2699 197.625C28.4542 180.164 29.7947 153.434 38.0449 137.081C41.9282 129.389 51.9888 114.674 110.86 104.328C167.962 94.2951 241.55 93.5305 257.221 123.537C261.92 132.525 263.813 143.167 263.813 143.167C266.702 159.348 263.302 172.939 261.118 179.758C263.371 183.909 266.923 189.979 271.925 196.751C280.037 207.721 286.38 212.995 285.551 214.415V214.384Z" stroke="#33449B" stroke-width="3" stroke-miterlimit="10"/>
<path d="M326.788 188.887C322.518 195.237 319.561 202.306 319.561 202.306C318.082 212.308 315.857 227.725 313.259 246.575C306.999 292.076 304.802 316.684 300.462 346.113C295.515 379.661 290.554 413.21 285.607 446.759C271.594 465.998 257.581 485.238 243.568 504.462C246.207 515.338 248.861 526.199 251.5 537.075C254.941 549.823 258.368 562.587 261.809 575.336C415.426 602.44 569.043 629.544 722.674 656.649C724.291 656.134 727.926 654.698 731.118 650.781C734.863 646.178 735.664 640.998 735.872 639.156L687.904 517.445C706.022 386.387 718.805 291.249 721.223 275.036C721.845 270.87 723.697 259.058 717.976 251.552C716.11 249.118 713.982 247.839 712.904 247.261C681.478 239.927 344.795 162.048 326.788 188.871V188.887Z" stroke="#33449B" stroke-width="3" stroke-miterlimit="10"/>
<path d="M332.095 194.957C321.385 275.755 310.675 356.537 299.979 437.334C426.04 459.414 552.087 481.478 678.148 503.558C689.383 422.776 700.618 342.009 711.854 261.227C585.267 239.132 458.681 217.052 332.109 194.957H332.095Z" fill="#FFF5EB" stroke="#33449B" stroke-width="3" stroke-miterlimit="10"/>
<path d="M303.226 463.424C292.627 480.417 282.027 497.394 271.414 514.387C325.711 523.733 380.007 533.08 434.304 542.411C517.607 556.752 600.911 571.076 684.215 585.416C678.701 566.473 673.187 547.53 667.659 528.586C546.172 506.865 424.685 485.145 303.213 463.424H303.226Z" stroke="#33449B" stroke-width="3" stroke-miterlimit="10"/>
<path d="M434.414 549.933C430.476 558.749 426.537 567.565 422.599 576.381C456.484 582.217 490.355 588.038 524.241 593.874C523.412 584.183 522.582 574.509 521.753 564.819C492.636 559.857 463.532 554.895 434.414 549.933Z" stroke="#33449B" stroke-width="3" stroke-miterlimit="10"/>
<path d="M256.613 556.034C416.366 583.747 576.119 611.46 735.872 639.172" stroke="#33449B" stroke-width="3" stroke-miterlimit="10"/>
<path d="M426.332 326.998L426.391 327.008C425.652 335.617 423.463 339.615 414.158 337.971C406.417 336.603 403.431 331.934 404.555 324.216C405.675 316.527 409.832 313.577 417.602 314.95C425.371 316.323 427.529 320.023 426.95 324.001C426.889 324.417 426.833 324.803 426.739 325.243C425.768 325.041 424.414 324.771 423.084 324.536C421.725 324.296 420.425 324.066 419.53 323.969C419.565 323.732 419.633 323.47 419.664 323.262C419.927 321.451 418.951 320.456 416.824 320.08C414.047 319.59 412.649 320.865 411.957 325.615C411.304 330.098 412.091 332.186 415.193 332.734C417.409 333.125 418.459 332.367 418.982 330.023C417.564 329.773 416.023 329.531 414.837 329.352C414.932 328.912 415.087 327.843 415.157 327.368C415.291 326.448 415.403 325.676 415.46 325.077C417.346 325.441 419.237 325.775 420.655 326.025C422.221 326.302 424.255 326.692 426.332 326.998ZM438.642 319.916C438.512 320.807 437.884 321.579 434.398 320.963C430.853 320.337 430.476 319.387 430.606 318.496C430.753 317.487 431.435 316.968 434.891 317.579C438.318 318.184 438.789 318.907 438.642 319.916ZM435.017 341.261L427.986 340.019C428.49 337.185 428.948 334.038 429.472 330.446C429.965 327.061 430.329 324.355 430.68 321.524L437.711 322.766C437.208 325.601 436.823 328.243 436.269 332.043C435.681 336.08 435.331 338.485 435.017 341.261ZM446.187 328.345L446.423 328.386C447.692 325.504 449.662 324.665 452.085 325.093C452.823 325.224 453.49 325.433 454.114 325.726C453.63 327.802 453.05 330.532 452.666 332.961C452.046 332.638 451.325 332.389 450.557 332.253C448.189 331.865 447.224 332.669 446.739 335.994C446.398 338.339 446.021 341.135 445.845 343.175L438.4 341.859C438.836 339.287 439.272 336.501 439.851 332.523C440.418 328.634 440.802 325.992 441.094 323.364L446.914 324.393C446.669 325.659 446.428 326.895 446.187 328.345ZM460.549 345.773L453.489 344.525C454.075 341.127 454.671 337.03 455.286 332.815C455.895 328.629 456.406 325.126 456.836 321.548L463.896 322.796C463.306 326.224 462.813 329.608 462.091 334.565C461.421 339.167 460.962 342.314 460.549 345.773ZM465.936 323.887L483.662 327.019C483.511 327.845 483.325 329.122 483.156 330.279C482.996 331.378 482.793 332.773 482.693 333.669C480.954 333.331 479.216 332.994 477.62 332.712C476.578 339.866 475.596 346.818 475.451 348.437C474.43 348.165 472.746 347.867 471.564 347.659C470.383 347.45 468.758 347.163 467.681 347.064C468.004 345.476 469.041 338.565 470.087 331.38C468.492 331.098 466.745 330.82 464.968 330.537C465.127 329.651 465.33 328.256 465.49 327.158C465.659 326 465.845 324.723 465.936 323.887ZM490.044 346.783C491.846 347.101 493.138 346.142 493.471 343.856C492.715 343.631 491.893 343.455 491.036 343.304C489.204 342.98 488.329 343.374 488.147 344.621C487.961 345.897 488.449 346.501 490.044 346.783ZM493.855 341.427L494.071 339.943C494.287 338.458 493.75 337.572 492.066 337.274C490.293 336.961 489.358 337.557 489.195 339.507C488.495 339.323 487.461 339.14 486.397 338.952C485.127 338.727 483.827 338.498 483.012 338.476C483.507 333.417 486.399 331.035 492.957 332.194C499.338 333.322 501.511 336.294 500.867 340.717C500.504 343.211 500.16 344.947 499.832 347.203C499.533 349.251 499.313 351.801 499.462 352.649L493.908 351.668C492.697 351.454 492.508 351.299 492.711 349.903C492.776 349.458 492.888 348.899 492.999 348.34L492.822 348.309C491.75 350.464 489.615 351.183 486.573 350.646C482.821 349.983 480.993 348.381 481.543 344.611C482.105 340.751 484.87 339.657 490.365 340.628C491.695 340.862 492.931 341.111 493.855 341.427ZM509.565 354.435L502.505 353.187C503.091 349.789 503.687 345.692 504.302 341.476C504.911 337.291 505.421 333.788 505.852 330.209L512.912 331.457C512.322 334.885 511.829 338.269 511.107 343.227C510.437 347.829 509.978 350.975 509.565 354.435ZM527.608 338.652L534.994 339.957C533.132 342.338 530.17 346.657 527.302 348.038C529.891 350.444 530.801 354.807 532.477 358.483L525.653 357.277C524.796 357.126 524.468 356.885 524.259 356.239C523.376 353.769 522.238 350.767 521.108 348.953L520.931 348.922C520.537 351.623 520.217 353.82 519.922 356.265L512.861 355.017C513.456 351.559 514.019 347.487 514.654 343.123C515.247 339.056 515.787 335.558 516.208 332.04L523.298 333.292C522.67 336.775 522.219 340.075 521.489 345.092L521.368 345.923L521.574 345.96L523.817 343.463C525.618 341.498 526.832 339.824 527.608 338.652ZM537.201 351.797C539.446 352.194 540.544 353.606 540.172 356.159C539.796 358.741 538.369 359.799 536.094 359.397C533.849 359 532.794 357.504 533.17 354.921C533.542 352.368 534.986 351.405 537.201 351.797ZM554.61 353.594L555.293 348.904C554.577 348.412 553.662 348.037 552.54 347.838C550.442 347.468 549.223 348.349 548.717 351.822C548.237 355.117 549.14 356.404 550.883 356.712C552.715 357.035 554.238 356.147 554.61 353.594ZM556.56 339.17L563.65 340.423C563.09 343.643 562.648 346.884 561.852 352.347C561.165 357.067 560.673 360.238 560.299 363.43L553.238 362.182C553.333 361.529 553.453 360.911 553.557 360.199C553.622 359.753 553.691 359.278 553.79 358.809L553.588 358.742C552.543 360.507 550.633 361.966 547.324 361.381C543.129 360.64 540.915 357.538 541.909 350.71C542.912 343.823 546.437 341.675 550.485 342.39C553.055 342.844 554.761 344.029 555.557 346.057L555.649 346.043C555.742 344.994 555.867 344.133 556.031 343.005C556.239 341.58 556.442 340.398 556.56 339.17ZM578.384 347.625L585.77 348.93C583.908 351.311 580.946 355.629 578.078 357.01C580.667 359.417 581.577 363.78 583.253 367.456L576.429 366.25C575.572 366.099 575.244 365.858 575.035 365.212C574.152 362.742 573.014 359.739 571.884 357.926L571.707 357.894C571.313 360.596 570.993 362.793 570.698 365.237L563.637 363.99C564.232 360.532 564.794 356.46 565.43 352.096C566.023 348.029 566.562 344.531 566.984 341.012L574.074 342.265C573.446 345.747 572.995 349.048 572.264 354.065L572.143 354.896L572.35 354.932L574.593 352.436C576.394 350.47 577.608 348.797 578.384 347.625Z" fill="#FC4D5C"/>
</g>
<defs>
<clipPath id="clip0_117_79">
<rect width="738" height="686" fill="white"/>
</clipPath>
</defs>
</svg>
