<svg width="413" height="175" viewBox="0 0 413 175" fill="none" xmlns="http://www.w3.org/2000/svg">
<path d="M370.299 132.72C382.512 144.055 394.725 155.405 406.956 166.74C408.552 167.596 410.543 168.833 410.292 169.831C409.431 173.24 383.535 170.006 355.325 168.944C341.713 168.436 335.364 168.722 298.349 169.831C192.574 172.986 155.953 173.272 116.445 171.591C47.6863 168.658 35.814 162.571 27.4927 155.691C-0.376612 132.609 -5.30844 86.4612 15.5128 55.8651C32.5142 30.8968 61.1546 24.413 113.45 12.5709C131.904 8.40157 205.541 -7.0867 299.335 10.8112C359.485 22.2728 374.568 37.2855 381.293 46.1473C384.413 50.2532 401.809 74.2703 392.286 102.695C387.068 118.278 376.11 128.186 370.299 132.736V132.72Z" stroke="#33449B" stroke-width="3" stroke-miterlimit="10"/>
<path d="M129.985 60.6056C124.928 50.428 113.719 43.8808 101.721 44.0552C87.643 44.2771 75.3942 53.6937 73.1345 65.0444C71.7177 72.1623 73.9953 81.1668 81.0434 86.6836C93.7226 96.5758 110.401 86.2714 121.879 95.5929C129.716 101.95 130.577 113.776 127.116 121.687C119.296 139.585 85.6703 145.894 69.5298 133.782C61.9258 128.075 60.0069 119.451 59.4509 114.696" stroke="#33449B" stroke-width="3" stroke-miterlimit="10"/>
<path d="M153.568 136.113C163.306 108.164 166.337 85.6687 167.252 69.9426C167.682 62.4125 168.077 48.7473 171.574 48.3034C176.954 47.6218 182.316 79.2166 192.449 79.4861C202.815 79.7556 207.728 46.9876 215.476 47.0352C221.358 47.0828 229.07 65.9636 237.786 144.388" stroke="#33449B" stroke-width="3" stroke-miterlimit="10"/>
<path d="M264.525 132.229C265.655 133.323 279.661 146.291 299.801 143.564C302.742 143.168 320.084 140.504 327.24 126.554C332.549 116.202 330.917 102.267 322.021 95.9261C307.692 85.701 284.988 102.648 271.053 92.5178C262.194 86.0815 261.154 71.7981 267.126 61.89C274.999 48.8748 293.65 45.6408 306.975 48.2724C323.044 51.443 330.988 63.0473 332.459 65.2825" stroke="#33449B" stroke-width="3" stroke-miterlimit="10"/>
</svg>
