<svg width="659" height="338" viewBox="0 0 659 338" fill="none" xmlns="http://www.w3.org/2000/svg">
<ellipse cx="329.5" cy="169" rx="329.5" ry="169" fill="#273AAA"/>
<path d="M128.931 124V116.832H139.427V90.912H128.867V85.536C130.275 85.408 131.897 85.088 133.731 84.576C135.609 84.0213 137.486 83.36 139.363 82.592C141.241 81.7813 142.926 80.928 144.419 80.032H148.387V116.832H158.179V124H128.931ZM188.195 124.768C184.781 124.768 182.072 123.829 180.067 121.952C178.061 120.075 177.059 117.045 177.059 112.864V90.336H185.955V111.392C185.955 112.501 186.083 113.44 186.339 114.208C186.595 114.933 186.957 115.531 187.427 116C187.939 116.469 188.557 116.811 189.283 117.024C190.008 117.237 190.819 117.344 191.715 117.344C193.037 117.344 194.232 117.024 195.299 116.384C196.365 115.744 197.197 114.869 197.795 113.76C198.392 112.608 198.691 111.328 198.691 109.92V90.336H207.587V124H200.291L199.651 119.392H199.203C198.392 120.459 197.432 121.397 196.323 122.208C195.256 123.019 194.04 123.637 192.675 124.064C191.309 124.533 189.816 124.768 188.195 124.768ZM227.656 124.768C224.883 124.768 222.472 124.149 220.424 122.912C218.419 121.632 216.862 119.691 215.752 117.088C214.643 114.485 214.088 111.157 214.088 107.104C214.088 103.051 214.643 99.744 215.752 97.184C216.904 94.5813 218.462 92.6613 220.424 91.424C222.43 90.1867 224.734 89.568 227.336 89.568C228.787 89.568 230.131 89.7387 231.368 90.08C232.648 90.3787 233.758 90.8693 234.696 91.552C235.678 92.2347 236.51 93.0667 237.192 94.048H237.576V77.728H246.472V124H239.176L238.472 119.456H238.024C236.915 121.248 235.464 122.592 233.672 123.488C231.88 124.341 229.875 124.768 227.656 124.768ZM230.472 117.472C232.136 117.472 233.48 117.088 234.504 116.32C235.571 115.552 236.36 114.443 236.872 112.992C237.384 111.541 237.64 109.813 237.64 107.808V106.656C237.64 105.163 237.491 103.797 237.192 102.56C236.936 101.323 236.51 100.299 235.912 99.488C235.315 98.6347 234.568 97.9947 233.672 97.568C232.776 97.0987 231.71 96.864 230.472 96.864C228.68 96.864 227.251 97.2267 226.184 97.952C225.118 98.6347 224.35 99.7013 223.88 101.152C223.411 102.56 223.176 104.331 223.176 106.464V107.936C223.176 110.069 223.411 111.84 223.88 113.248C224.35 114.656 225.118 115.723 226.184 116.448C227.251 117.131 228.68 117.472 230.472 117.472ZM276.148 124.768C275.039 124.768 273.844 124.64 272.564 124.384C271.327 124.128 270.154 123.68 269.044 123.04C267.935 122.357 267.018 121.397 266.292 120.16C265.61 118.88 265.268 117.259 265.268 115.296C265.268 112.949 265.78 111.008 266.804 109.472C267.828 107.936 269.279 106.741 271.156 105.888C273.076 104.992 275.359 104.373 278.004 104.032C280.65 103.691 283.572 103.52 286.772 103.52V101.024C286.772 100.043 286.602 99.1893 286.26 98.464C285.962 97.7387 285.407 97.1627 284.596 96.736C283.828 96.3093 282.74 96.096 281.332 96.096C279.924 96.096 278.772 96.2667 277.876 96.608C277.023 96.9493 276.404 97.3973 276.02 97.952C275.679 98.464 275.508 99.04 275.508 99.68V100.448H266.868C266.826 100.235 266.804 100.043 266.804 99.872C266.804 99.6587 266.804 99.4027 266.804 99.104C266.804 97.1413 267.402 95.456 268.596 94.048C269.791 92.5973 271.476 91.488 273.652 90.72C275.828 89.952 278.367 89.568 281.268 89.568C284.383 89.568 286.986 89.9733 289.076 90.784C291.21 91.5947 292.831 92.7893 293.94 94.368C295.092 95.9467 295.668 97.9307 295.668 100.32V115.616C295.668 116.384 295.882 116.96 296.308 117.344C296.778 117.685 297.29 117.856 297.844 117.856H299.956V123.68C299.53 123.893 298.868 124.107 297.972 124.32C297.076 124.576 295.988 124.704 294.708 124.704C293.471 124.704 292.362 124.512 291.38 124.128C290.442 123.787 289.652 123.296 289.012 122.656C288.372 121.973 287.924 121.163 287.668 120.224H287.22C286.495 121.12 285.599 121.909 284.532 122.592C283.508 123.275 282.292 123.808 280.884 124.192C279.519 124.576 277.94 124.768 276.148 124.768ZM279.156 118.048C280.351 118.048 281.418 117.877 282.356 117.536C283.295 117.152 284.084 116.661 284.724 116.064C285.364 115.424 285.855 114.656 286.196 113.76C286.58 112.864 286.772 111.904 286.772 110.88V109.024C284.383 109.024 282.25 109.195 280.372 109.536C278.495 109.835 277.002 110.368 275.892 111.136C274.826 111.904 274.292 112.971 274.292 114.336C274.292 115.104 274.484 115.765 274.868 116.32C275.252 116.875 275.807 117.301 276.532 117.6C277.258 117.899 278.132 118.048 279.156 118.048ZM305.913 124V97.184H301.113V90.336H305.913V86.624C305.913 84.7893 306.212 83.168 306.809 81.76C307.449 80.3093 308.452 79.1787 309.817 78.368C311.183 77.5573 312.996 77.152 315.257 77.152C315.897 77.152 316.559 77.1947 317.241 77.28C317.967 77.3653 318.649 77.4933 319.289 77.664C319.972 77.792 320.548 77.9413 321.017 78.112V84H317.817C316.793 84 316.025 84.256 315.513 84.768C315.044 85.28 314.809 86.0267 314.809 87.008V90.336H321.017V97.184H314.809V124H305.913ZM352.792 124.768C349.464 124.768 346.563 124.192 344.088 123.04C341.656 121.845 339.779 120.16 338.456 117.984C337.134 115.808 336.472 113.227 336.472 110.24H345.24C345.24 111.733 345.518 113.077 346.072 114.272C346.67 115.424 347.523 116.32 348.632 116.96C349.742 117.557 351.043 117.856 352.536 117.856C353.987 117.856 355.224 117.536 356.248 116.896C357.315 116.256 358.147 115.339 358.744 114.144C359.342 112.907 359.64 111.392 359.64 109.6C359.64 107.936 359.342 106.549 358.744 105.44C358.19 104.288 357.379 103.435 356.312 102.88C355.288 102.283 354.072 101.984 352.664 101.984C351.555 101.984 350.574 102.176 349.72 102.56C348.91 102.901 348.206 103.328 347.608 103.84C347.011 104.352 346.499 104.907 346.072 105.504L338.072 104.48L339.864 80.096H366.232V87.968H347.288L346.584 97.888C347.054 97.5467 347.672 97.184 348.44 96.8C349.208 96.416 350.147 96.0747 351.256 95.776C352.408 95.4347 353.731 95.264 355.224 95.264C357.784 95.264 360.067 95.7973 362.072 96.864C364.12 97.9307 365.742 99.5307 366.936 101.664C368.131 103.755 368.728 106.421 368.728 109.664C368.728 112.779 368.067 115.467 366.744 117.728C365.464 119.989 363.63 121.739 361.24 122.976C358.894 124.171 356.078 124.768 352.792 124.768ZM399.257 124.768C395.844 124.768 393.135 123.829 391.129 121.952C389.124 120.075 388.121 117.045 388.121 112.864V90.336H397.017V111.392C397.017 112.501 397.145 113.44 397.401 114.208C397.657 114.933 398.02 115.531 398.489 116C399.001 116.469 399.62 116.811 400.345 117.024C401.071 117.237 401.881 117.344 402.777 117.344C404.1 117.344 405.295 117.024 406.361 116.384C407.428 115.744 408.26 114.869 408.857 113.76C409.455 112.608 409.753 111.328 409.753 109.92V90.336H418.649V124H411.353L410.713 119.392H410.265C409.455 120.459 408.495 121.397 407.385 122.208C406.319 123.019 405.103 123.637 403.737 124.064C402.372 124.533 400.879 124.768 399.257 124.768ZM426.815 124V90.336H434.175L434.879 94.944H435.327C436.095 93.8347 437.012 92.8747 438.079 92.064C439.188 91.2533 440.425 90.6347 441.791 90.208C443.156 89.7813 444.649 89.568 446.271 89.568C448.489 89.568 450.431 89.9733 452.095 90.784C453.759 91.5947 455.039 92.8747 455.935 94.624C456.873 96.3733 457.343 98.656 457.343 101.472V124H448.447V102.88C448.447 101.813 448.319 100.917 448.063 100.192C447.807 99.424 447.423 98.8053 446.911 98.336C446.441 97.824 445.844 97.4613 445.119 97.248C444.393 97.0347 443.583 96.928 442.687 96.928C441.364 96.928 440.169 97.248 439.103 97.888C438.036 98.528 437.204 99.4027 436.607 100.512C436.009 101.621 435.711 102.901 435.711 104.352V124H426.815ZM470.819 136.032C469.325 136.032 467.917 135.712 466.595 135.072C465.272 134.475 464.205 133.579 463.395 132.384C462.584 131.189 462.179 129.76 462.179 128.096C462.179 126.219 462.712 124.725 463.779 123.616C464.888 122.464 466.125 121.611 467.491 121.056C466.509 120.501 465.699 119.776 465.059 118.88C464.461 117.984 464.163 116.939 464.163 115.744C464.163 114.08 464.76 112.736 465.955 111.712C467.192 110.645 468.6 109.963 470.179 109.664C468.6 108.683 467.363 107.445 466.467 105.952C465.613 104.416 465.187 102.709 465.187 100.832C465.187 98.4 465.784 96.352 466.979 94.688C468.216 93.024 469.965 91.7653 472.227 90.912C474.531 90.016 477.24 89.568 480.355 89.568C481.592 89.568 482.744 89.632 483.811 89.76C484.92 89.888 485.923 90.1013 486.819 90.4C488.397 89.4613 489.464 88.4373 490.019 87.328C490.616 86.176 490.936 85.2587 490.979 84.576H499.235C499.235 86.1547 498.936 87.52 498.339 88.672C497.784 89.824 496.973 90.784 495.907 91.552C494.84 92.2773 493.56 92.8107 492.067 93.152C493.176 94.0907 494.029 95.2213 494.627 96.544C495.224 97.8667 495.523 99.296 495.523 100.832C495.523 103.221 494.947 105.269 493.795 106.976C492.643 108.64 491 109.92 488.867 110.816C486.776 111.712 484.259 112.16 481.315 112.16H476.195C475.171 112.16 474.403 112.352 473.891 112.736C473.379 113.077 473.123 113.589 473.123 114.272C473.123 114.827 473.336 115.317 473.763 115.744C474.232 116.128 474.979 116.32 476.003 116.32H490.019C492.835 116.32 495.075 117.195 496.739 118.944C498.445 120.651 499.299 122.848 499.299 125.536C499.299 127.584 498.765 129.397 497.699 130.976C496.632 132.555 495.16 133.792 493.283 134.688C491.405 135.584 489.251 136.032 486.819 136.032H470.819ZM474.531 130.08H486.371C487.139 130.08 487.821 129.931 488.419 129.632C489.016 129.376 489.485 128.992 489.827 128.48C490.168 128.011 490.339 127.456 490.339 126.816C490.339 125.707 489.997 124.875 489.315 124.32C488.632 123.765 487.779 123.488 486.755 123.488H474.531C473.507 123.488 472.653 123.787 471.971 124.384C471.331 124.981 471.011 125.771 471.011 126.752C471.011 127.733 471.331 128.523 471.971 129.12C472.653 129.76 473.507 130.08 474.531 130.08ZM480.355 106.4C482.445 106.4 484.024 105.931 485.091 104.992C486.2 104.011 486.755 102.624 486.755 100.832C486.755 99.04 486.2 97.6747 485.091 96.736C484.024 95.7547 482.445 95.264 480.355 95.264C478.307 95.264 476.728 95.7547 475.619 96.736C474.552 97.6747 474.019 99.04 474.019 100.832C474.019 101.984 474.253 102.987 474.723 103.84C475.192 104.693 475.896 105.333 476.835 105.76C477.773 106.187 478.947 106.4 480.355 106.4ZM519.486 124.768C515.774 124.768 512.659 124.149 510.142 122.912C507.624 121.632 505.726 119.691 504.446 117.088C503.166 114.485 502.526 111.179 502.526 107.168C502.526 103.115 503.166 99.808 504.446 97.248C505.726 94.6453 507.603 92.7253 510.078 91.488C512.595 90.208 515.667 89.568 519.294 89.568C522.707 89.568 525.587 90.1867 527.934 91.424C530.28 92.6187 532.051 94.496 533.246 97.056C534.44 99.5733 535.038 102.837 535.038 106.848V109.152H511.55C511.635 111.115 511.934 112.779 512.446 114.144C513 115.509 513.832 116.533 514.942 117.216C516.094 117.856 517.608 118.176 519.486 118.176C520.51 118.176 521.427 118.048 522.238 117.792C523.091 117.536 523.816 117.152 524.414 116.64C525.011 116.128 525.48 115.488 525.822 114.72C526.163 113.952 526.334 113.077 526.334 112.096H535.038C535.038 114.229 534.654 116.085 533.886 117.664C533.118 119.243 532.051 120.565 530.686 121.632C529.32 122.656 527.678 123.445 525.758 124C523.88 124.512 521.79 124.768 519.486 124.768ZM511.678 103.52H525.886C525.886 102.24 525.715 101.131 525.374 100.192C525.075 99.2533 524.648 98.4853 524.094 97.888C523.539 97.2907 522.856 96.864 522.046 96.608C521.278 96.3093 520.403 96.16 519.422 96.16C517.8 96.16 516.435 96.4373 515.326 96.992C514.259 97.504 513.427 98.3147 512.83 99.424C512.275 100.491 511.891 101.856 511.678 103.52ZM97.8925 169V145.864H101.797V154.088H102.021C102.383 153.64 102.81 153.245 103.301 152.904C103.791 152.563 104.346 152.296 104.965 152.104C105.605 151.891 106.309 151.784 107.077 151.784C108.143 151.784 109.082 151.976 109.893 152.36C110.725 152.744 111.375 153.363 111.845 154.216C112.314 155.069 112.549 156.211 112.549 157.64V169H108.613V158.344C108.613 157.747 108.538 157.256 108.389 156.872C108.261 156.467 108.058 156.147 107.781 155.912C107.525 155.656 107.205 155.475 106.821 155.368C106.437 155.261 106.01 155.208 105.541 155.208C104.837 155.208 104.197 155.379 103.621 155.72C103.066 156.061 102.618 156.531 102.277 157.128C101.957 157.725 101.797 158.419 101.797 159.208V169H97.8925ZM120.9 169.384C120.431 169.384 119.887 169.32 119.268 169.192C118.671 169.085 118.084 168.872 117.508 168.552C116.953 168.232 116.495 167.763 116.132 167.144C115.769 166.504 115.588 165.672 115.588 164.648C115.588 163.496 115.844 162.547 116.356 161.8C116.868 161.032 117.583 160.435 118.5 160.008C119.439 159.56 120.548 159.251 121.828 159.08C123.129 158.888 124.548 158.792 126.084 158.792V157.416C126.084 156.925 126.009 156.488 125.86 156.104C125.711 155.72 125.433 155.421 125.028 155.208C124.644 154.973 124.057 154.856 123.268 154.856C122.479 154.856 121.86 154.952 121.412 155.144C120.964 155.336 120.655 155.571 120.484 155.848C120.313 156.125 120.228 156.413 120.228 156.712V157.16H116.452C116.431 157.053 116.42 156.947 116.42 156.84C116.42 156.733 116.42 156.605 116.42 156.456C116.42 155.496 116.708 154.664 117.284 153.96C117.86 153.256 118.66 152.723 119.684 152.36C120.708 151.976 121.892 151.784 123.236 151.784C124.772 151.784 126.031 151.997 127.012 152.424C128.015 152.851 128.761 153.459 129.252 154.248C129.743 155.037 129.988 155.997 129.988 157.128V165.064C129.988 165.469 130.105 165.757 130.34 165.928C130.575 166.099 130.831 166.184 131.108 166.184H132.132V168.872C131.919 168.957 131.609 169.053 131.204 169.16C130.799 169.288 130.297 169.352 129.7 169.352C129.145 169.352 128.644 169.256 128.196 169.064C127.769 168.893 127.407 168.637 127.108 168.296C126.809 167.955 126.596 167.549 126.468 167.08H126.276C125.913 167.528 125.476 167.933 124.964 168.296C124.473 168.637 123.887 168.904 123.204 169.096C122.543 169.288 121.775 169.384 120.9 169.384ZM122.084 166.184C122.724 166.184 123.289 166.088 123.78 165.896C124.292 165.704 124.708 165.437 125.028 165.096C125.369 164.755 125.625 164.339 125.796 163.848C125.988 163.357 126.084 162.824 126.084 162.248V161.48C124.911 161.48 123.823 161.555 122.82 161.704C121.839 161.853 121.049 162.131 120.452 162.536C119.876 162.941 119.588 163.517 119.588 164.264C119.588 164.648 119.673 164.989 119.844 165.288C120.036 165.565 120.313 165.789 120.676 165.96C121.06 166.109 121.529 166.184 122.084 166.184ZM134.361 169V152.168H137.625L137.945 154.824H138.169C138.383 154.291 138.639 153.8 138.937 153.352C139.257 152.883 139.663 152.509 140.153 152.232C140.644 151.933 141.241 151.784 141.945 151.784C142.287 151.784 142.596 151.816 142.873 151.88C143.172 151.944 143.396 152.008 143.545 152.072V155.752H142.361C141.7 155.752 141.113 155.848 140.601 156.04C140.089 156.211 139.652 156.488 139.289 156.872C138.948 157.256 138.692 157.736 138.521 158.312C138.351 158.888 138.265 159.56 138.265 160.328V169H134.361ZM159.224 169.384C157.39 169.384 155.854 169.075 154.616 168.456C153.379 167.816 152.451 166.845 151.832 165.544C151.214 164.243 150.904 162.589 150.904 160.584C150.904 158.557 151.214 156.904 151.832 155.624C152.451 154.323 153.379 153.363 154.616 152.744C155.854 152.104 157.39 151.784 159.224 151.784C161.08 151.784 162.616 152.104 163.832 152.744C165.07 153.363 165.998 154.323 166.616 155.624C167.235 156.904 167.544 158.557 167.544 160.584C167.544 162.589 167.235 164.243 166.616 165.544C165.998 166.845 165.07 167.816 163.832 168.456C162.616 169.075 161.08 169.384 159.224 169.384ZM159.224 166.184C160.248 166.184 161.07 165.992 161.688 165.608C162.328 165.203 162.787 164.605 163.064 163.816C163.363 163.005 163.512 162.003 163.512 160.808V160.36C163.512 159.165 163.363 158.173 163.064 157.384C162.787 156.573 162.328 155.976 161.688 155.592C161.07 155.187 160.248 154.984 159.224 154.984C158.2 154.984 157.368 155.187 156.728 155.592C156.11 155.976 155.651 156.573 155.352 157.384C155.075 158.173 154.936 159.165 154.936 160.36V160.808C154.936 162.003 155.075 163.005 155.352 163.816C155.651 164.605 156.11 165.203 156.728 165.608C157.368 165.992 158.2 166.184 159.224 166.184ZM170.861 174.536V152.168H174.093L174.413 154.408H174.637C175.192 153.533 175.917 152.883 176.813 152.456C177.709 152.008 178.701 151.784 179.789 151.784C181.176 151.784 182.36 152.093 183.341 152.712C184.344 153.331 185.112 154.291 185.645 155.592C186.2 156.893 186.477 158.568 186.477 160.616C186.477 162.621 186.2 164.275 185.645 165.576C185.091 166.877 184.323 167.837 183.341 168.456C182.381 169.075 181.272 169.384 180.013 169.384C179.245 169.384 178.541 169.299 177.901 169.128C177.261 168.957 176.696 168.701 176.205 168.36C175.715 167.997 175.299 167.56 174.957 167.048H174.765V174.536H170.861ZM178.573 166.024C179.533 166.024 180.291 165.843 180.845 165.48C181.421 165.096 181.827 164.52 182.061 163.752C182.317 162.984 182.445 162.013 182.445 160.84V160.392C182.445 159.197 182.317 158.216 182.061 157.448C181.827 156.659 181.421 156.083 180.845 155.72C180.291 155.336 179.533 155.144 178.573 155.144C177.699 155.144 176.973 155.347 176.397 155.752C175.843 156.157 175.427 156.755 175.149 157.544C174.893 158.312 174.765 159.261 174.765 160.392V160.776C174.765 161.608 174.84 162.355 174.989 163.016C175.139 163.656 175.363 164.2 175.661 164.648C175.981 165.096 176.376 165.437 176.845 165.672C177.336 165.907 177.912 166.024 178.573 166.024ZM189.799 169V145.864H193.703V169H189.799ZM205.093 169.384C203.301 169.384 201.808 169.075 200.613 168.456C199.419 167.816 198.523 166.845 197.925 165.544C197.328 164.243 197.029 162.589 197.029 160.584C197.029 158.557 197.328 156.904 197.925 155.624C198.523 154.323 199.419 153.363 200.613 152.744C201.808 152.104 203.301 151.784 205.093 151.784C206.715 151.784 208.069 152.093 209.157 152.712C210.267 153.309 211.099 154.237 211.653 155.496C212.208 156.755 212.485 158.387 212.485 160.392V161.544H201.029C201.072 162.589 201.232 163.475 201.509 164.2C201.787 164.904 202.213 165.437 202.789 165.8C203.387 166.141 204.165 166.312 205.125 166.312C205.616 166.312 206.075 166.248 206.501 166.12C206.928 165.992 207.301 165.8 207.621 165.544C207.941 165.267 208.187 164.925 208.357 164.52C208.549 164.115 208.645 163.645 208.645 163.112H212.485C212.485 164.179 212.293 165.107 211.909 165.896C211.547 166.685 211.024 167.336 210.341 167.848C209.68 168.36 208.901 168.744 208.005 169C207.109 169.256 206.139 169.384 205.093 169.384ZM201.093 158.792H208.421C208.421 158.088 208.336 157.491 208.165 157C208.016 156.509 207.792 156.104 207.493 155.784C207.216 155.464 206.875 155.24 206.469 155.112C206.064 154.963 205.605 154.888 205.093 154.888C204.261 154.888 203.557 155.027 202.981 155.304C202.427 155.581 202 156.008 201.701 156.584C201.403 157.16 201.2 157.896 201.093 158.792ZM220.119 169L213.879 152.168H217.975L220.695 159.752C220.823 160.115 220.972 160.605 221.143 161.224C221.335 161.821 221.527 162.451 221.719 163.112C221.911 163.752 222.071 164.339 222.199 164.872H222.359C222.487 164.381 222.636 163.816 222.807 163.176C222.977 162.536 223.148 161.907 223.319 161.288C223.511 160.669 223.681 160.157 223.831 159.752L226.519 152.168H230.487L224.215 169H220.119ZM239.968 169.384C238.176 169.384 236.683 169.075 235.488 168.456C234.294 167.816 233.398 166.845 232.8 165.544C232.203 164.243 231.904 162.589 231.904 160.584C231.904 158.557 232.203 156.904 232.8 155.624C233.398 154.323 234.294 153.363 235.488 152.744C236.683 152.104 238.176 151.784 239.968 151.784C241.59 151.784 242.944 152.093 244.032 152.712C245.142 153.309 245.974 154.237 246.528 155.496C247.083 156.755 247.36 158.387 247.36 160.392V161.544H235.904C235.947 162.589 236.107 163.475 236.384 164.2C236.662 164.904 237.088 165.437 237.664 165.8C238.262 166.141 239.04 166.312 240 166.312C240.491 166.312 240.95 166.248 241.376 166.12C241.803 165.992 242.176 165.8 242.496 165.544C242.816 165.267 243.062 164.925 243.232 164.52C243.424 164.115 243.52 163.645 243.52 163.112H247.36C247.36 164.179 247.168 165.107 246.784 165.896C246.422 166.685 245.899 167.336 245.216 167.848C244.555 168.36 243.776 168.744 242.88 169C241.984 169.256 241.014 169.384 239.968 169.384ZM235.968 158.792H243.296C243.296 158.088 243.211 157.491 243.04 157C242.891 156.509 242.667 156.104 242.368 155.784C242.091 155.464 241.75 155.24 241.344 155.112C240.939 154.963 240.48 154.888 239.968 154.888C239.136 154.888 238.432 155.027 237.856 155.304C237.302 155.581 236.875 156.008 236.576 156.584C236.278 157.16 236.075 157.896 235.968 158.792ZM255.122 169.384C254.076 169.384 253.255 169.181 252.658 168.776C252.06 168.349 251.634 167.816 251.378 167.176C251.143 166.515 251.026 165.843 251.026 165.16V155.368H249.01V152.168H251.122L251.826 147.464H254.93V152.168H257.842V155.368H254.93V164.776C254.93 165.224 255.047 165.576 255.282 165.832C255.516 166.067 255.868 166.184 256.338 166.184H257.842V168.872C257.628 168.957 257.362 169.032 257.042 169.096C256.743 169.181 256.423 169.245 256.082 169.288C255.74 169.352 255.42 169.384 255.122 169.384ZM278.151 147.048V148.68C277.639 148.765 277.223 148.979 276.903 149.32C276.583 149.661 276.337 150.088 276.167 150.6C276.017 151.112 275.943 151.667 275.943 152.264H277.927V156.36H273.863V152.616C273.863 151.357 274.065 150.355 274.47 149.608C274.876 148.84 275.399 148.253 276.039 147.848C276.7 147.443 277.404 147.176 278.151 147.048ZM271.687 147.048V148.68C271.175 148.765 270.759 148.979 270.439 149.32C270.119 149.661 269.873 150.088 269.703 150.6C269.553 151.112 269.479 151.667 269.479 152.264H271.463V156.36H267.399V152.616C267.399 151.357 267.601 150.355 268.007 149.608C268.412 148.84 268.935 148.253 269.575 147.848C270.236 147.443 270.94 147.176 271.687 147.048ZM283.38 169V155.368H280.948V152.168H283.38V150.024C283.38 149.277 283.497 148.573 283.732 147.912C283.988 147.229 284.425 146.675 285.044 146.248C285.663 145.821 286.527 145.608 287.636 145.608C287.956 145.608 288.276 145.629 288.596 145.672C288.937 145.715 289.257 145.779 289.556 145.864C289.855 145.928 290.111 146.003 290.324 146.088V148.808H288.724C288.255 148.808 287.892 148.936 287.636 149.192C287.401 149.427 287.284 149.779 287.284 150.248V152.168H290.324V155.368H287.284V169H283.38ZM299.468 169.384C297.676 169.384 296.183 169.075 294.988 168.456C293.794 167.816 292.898 166.845 292.3 165.544C291.703 164.243 291.404 162.589 291.404 160.584C291.404 158.557 291.703 156.904 292.3 155.624C292.898 154.323 293.794 153.363 294.988 152.744C296.183 152.104 297.676 151.784 299.468 151.784C301.09 151.784 302.444 152.093 303.532 152.712C304.642 153.309 305.474 154.237 306.028 155.496C306.583 156.755 306.86 158.387 306.86 160.392V161.544H295.404C295.447 162.589 295.607 163.475 295.884 164.2C296.162 164.904 296.588 165.437 297.164 165.8C297.762 166.141 298.54 166.312 299.5 166.312C299.991 166.312 300.45 166.248 300.876 166.12C301.303 165.992 301.676 165.8 301.996 165.544C302.316 165.267 302.562 164.925 302.732 164.52C302.924 164.115 303.02 163.645 303.02 163.112H306.86C306.86 164.179 306.668 165.107 306.284 165.896C305.922 166.685 305.399 167.336 304.716 167.848C304.055 168.36 303.276 168.744 302.38 169C301.484 169.256 300.514 169.384 299.468 169.384ZM295.468 158.792H302.796C302.796 158.088 302.711 157.491 302.54 157C302.391 156.509 302.167 156.104 301.868 155.784C301.591 155.464 301.25 155.24 300.844 155.112C300.439 154.963 299.98 154.888 299.468 154.888C298.636 154.888 297.932 155.027 297.356 155.304C296.802 155.581 296.375 156.008 296.076 156.584C295.778 157.16 295.575 157.896 295.468 158.792ZM314.494 169.384C314.024 169.384 313.48 169.32 312.862 169.192C312.264 169.085 311.678 168.872 311.102 168.552C310.547 168.232 310.088 167.763 309.726 167.144C309.363 166.504 309.182 165.672 309.182 164.648C309.182 163.496 309.438 162.547 309.95 161.8C310.462 161.032 311.176 160.435 312.094 160.008C313.032 159.56 314.142 159.251 315.422 159.08C316.723 158.888 318.142 158.792 319.678 158.792V157.416C319.678 156.925 319.603 156.488 319.454 156.104C319.304 155.72 319.027 155.421 318.622 155.208C318.238 154.973 317.651 154.856 316.862 154.856C316.072 154.856 315.454 154.952 315.006 155.144C314.558 155.336 314.248 155.571 314.078 155.848C313.907 156.125 313.822 156.413 313.822 156.712V157.16H310.046C310.024 157.053 310.014 156.947 310.014 156.84C310.014 156.733 310.014 156.605 310.014 156.456C310.014 155.496 310.302 154.664 310.878 153.96C311.454 153.256 312.254 152.723 313.278 152.36C314.302 151.976 315.486 151.784 316.83 151.784C318.366 151.784 319.624 151.997 320.606 152.424C321.608 152.851 322.355 153.459 322.846 154.248C323.336 155.037 323.582 155.997 323.582 157.128V165.064C323.582 165.469 323.699 165.757 323.934 165.928C324.168 166.099 324.424 166.184 324.702 166.184H325.726V168.872C325.512 168.957 325.203 169.053 324.798 169.16C324.392 169.288 323.891 169.352 323.294 169.352C322.739 169.352 322.238 169.256 321.79 169.064C321.363 168.893 321 168.637 320.702 168.296C320.403 167.955 320.19 167.549 320.062 167.08H319.87C319.507 167.528 319.07 167.933 318.558 168.296C318.067 168.637 317.48 168.904 316.798 169.096C316.136 169.288 315.368 169.384 314.494 169.384ZM315.678 166.184C316.318 166.184 316.883 166.088 317.374 165.896C317.886 165.704 318.302 165.437 318.622 165.096C318.963 164.755 319.219 164.339 319.39 163.848C319.582 163.357 319.678 162.824 319.678 162.248V161.48C318.504 161.48 317.416 161.555 316.414 161.704C315.432 161.853 314.643 162.131 314.046 162.536C313.47 162.941 313.182 163.517 313.182 164.264C313.182 164.648 313.267 164.989 313.438 165.288C313.63 165.565 313.907 165.789 314.27 165.96C314.654 166.109 315.123 166.184 315.678 166.184ZM327.955 169V152.168H331.219L331.539 154.824H331.763C331.976 154.291 332.232 153.8 332.531 153.352C332.851 152.883 333.256 152.509 333.747 152.232C334.238 151.933 334.835 151.784 335.539 151.784C335.88 151.784 336.19 151.816 336.467 151.88C336.766 151.944 336.99 152.008 337.139 152.072V155.752H335.955C335.294 155.752 334.707 155.848 334.195 156.04C333.683 156.211 333.246 156.488 332.883 156.872C332.542 157.256 332.286 157.736 332.115 158.312C331.944 158.888 331.859 159.56 331.859 160.328V169H327.955ZM352.818 169.384C350.983 169.384 349.447 169.075 348.21 168.456C346.973 167.816 346.045 166.845 345.426 165.544C344.807 164.243 344.498 162.589 344.498 160.584C344.498 158.557 344.807 156.904 345.426 155.624C346.045 154.323 346.973 153.363 348.21 152.744C349.447 152.104 350.983 151.784 352.818 151.784C354.674 151.784 356.21 152.104 357.426 152.744C358.663 153.363 359.591 154.323 360.21 155.624C360.829 156.904 361.138 158.557 361.138 160.584C361.138 162.589 360.829 164.243 360.21 165.544C359.591 166.845 358.663 167.816 357.426 168.456C356.21 169.075 354.674 169.384 352.818 169.384ZM352.818 166.184C353.842 166.184 354.663 165.992 355.282 165.608C355.922 165.203 356.381 164.605 356.658 163.816C356.957 163.005 357.106 162.003 357.106 160.808V160.36C357.106 159.165 356.957 158.173 356.658 157.384C356.381 156.573 355.922 155.976 355.282 155.592C354.663 155.187 353.842 154.984 352.818 154.984C351.794 154.984 350.962 155.187 350.322 155.592C349.703 155.976 349.245 156.573 348.946 157.384C348.669 158.173 348.53 159.165 348.53 160.36V160.808C348.53 162.003 348.669 163.005 348.946 163.816C349.245 164.605 349.703 165.203 350.322 165.608C350.962 165.992 351.794 166.184 352.818 166.184ZM365.255 169V155.368H362.823V152.168H365.255V150.024C365.255 149.277 365.372 148.573 365.607 147.912C365.863 147.229 366.3 146.675 366.919 146.248C367.538 145.821 368.402 145.608 369.511 145.608C369.831 145.608 370.151 145.629 370.471 145.672C370.812 145.715 371.132 145.779 371.431 145.864C371.73 145.928 371.986 146.003 372.199 146.088V148.808H370.599C370.13 148.808 369.767 148.936 369.511 149.192C369.276 149.427 369.159 149.779 369.159 150.248V152.168H372.199V155.368H369.159V169H365.255ZM380.674 169V152.168H383.938L384.258 154.408H384.482C384.844 153.896 385.26 153.448 385.73 153.064C386.199 152.659 386.732 152.349 387.33 152.136C387.948 151.901 388.62 151.784 389.346 151.784C390.327 151.784 391.202 151.987 391.97 152.392C392.738 152.797 393.335 153.469 393.762 154.408H393.986C394.348 153.896 394.775 153.448 395.266 153.064C395.756 152.659 396.322 152.349 396.962 152.136C397.602 151.901 398.295 151.784 399.042 151.784C400.044 151.784 400.93 151.965 401.698 152.328C402.466 152.691 403.074 153.288 403.522 154.12C403.97 154.952 404.194 156.061 404.194 157.448V169H400.29V158.248C400.29 157.672 400.226 157.192 400.098 156.808C399.97 156.403 399.788 156.093 399.554 155.88C399.34 155.645 399.063 155.475 398.722 155.368C398.402 155.261 398.05 155.208 397.666 155.208C397.047 155.208 396.492 155.379 396.002 155.72C395.511 156.061 395.116 156.531 394.818 157.128C394.54 157.725 394.402 158.419 394.402 159.208V169H390.498V158.248C390.498 157.672 390.434 157.192 390.306 156.808C390.178 156.403 389.996 156.093 389.762 155.88C389.548 155.645 389.271 155.475 388.93 155.368C388.61 155.261 388.258 155.208 387.874 155.208C387.255 155.208 386.69 155.379 386.178 155.72C385.687 156.061 385.292 156.531 384.994 157.128C384.716 157.725 384.578 158.419 384.578 159.208V169H380.674ZM408.236 149.576V145.864H412.14V149.576H408.236ZM408.236 169V152.168H412.14V169H408.236ZM422.859 169.384C421.643 169.384 420.576 169.256 419.659 169C418.741 168.723 417.973 168.349 417.355 167.88C416.736 167.411 416.267 166.867 415.947 166.248C415.648 165.608 415.499 164.915 415.499 164.168C415.499 164.061 415.499 163.965 415.499 163.88C415.52 163.795 415.531 163.731 415.531 163.688H419.371C419.371 163.731 419.371 163.773 419.371 163.816C419.371 163.859 419.371 163.901 419.371 163.944C419.392 164.52 419.573 164.989 419.915 165.352C420.256 165.693 420.704 165.939 421.259 166.088C421.813 166.237 422.4 166.312 423.019 166.312C423.573 166.312 424.096 166.259 424.587 166.152C425.099 166.024 425.515 165.832 425.835 165.576C426.176 165.299 426.347 164.947 426.347 164.52C426.347 163.965 426.133 163.539 425.707 163.24C425.28 162.941 424.715 162.696 424.011 162.504C423.328 162.312 422.592 162.109 421.803 161.896C421.099 161.704 420.395 161.491 419.691 161.256C418.987 161.021 418.347 160.723 417.771 160.36C417.216 159.997 416.757 159.528 416.395 158.952C416.053 158.376 415.883 157.661 415.883 156.808C415.883 155.976 416.064 155.251 416.427 154.632C416.789 154.013 417.291 153.501 417.931 153.096C418.571 152.669 419.328 152.349 420.203 152.136C421.077 151.923 422.027 151.816 423.051 151.816C424.053 151.816 424.96 151.923 425.771 152.136C426.603 152.349 427.317 152.659 427.915 153.064C428.533 153.448 429.003 153.928 429.323 154.504C429.664 155.059 429.835 155.677 429.835 156.36C429.835 156.509 429.824 156.659 429.803 156.808C429.803 156.957 429.803 157.043 429.803 157.064H425.995V156.84C425.995 156.435 425.867 156.093 425.611 155.816C425.376 155.517 425.024 155.283 424.555 155.112C424.107 154.941 423.541 154.856 422.859 154.856C422.347 154.856 421.899 154.899 421.515 154.984C421.131 155.069 420.811 155.187 420.555 155.336C420.32 155.485 420.139 155.656 420.011 155.848C419.883 156.04 419.819 156.253 419.819 156.488C419.819 156.893 419.979 157.213 420.299 157.448C420.619 157.683 421.045 157.885 421.579 158.056C422.133 158.227 422.731 158.408 423.371 158.6C424.139 158.813 424.928 159.037 425.739 159.272C426.549 159.485 427.296 159.763 427.979 160.104C428.683 160.445 429.248 160.925 429.675 161.544C430.101 162.163 430.315 162.984 430.315 164.008C430.315 164.989 430.123 165.832 429.739 166.536C429.376 167.219 428.853 167.773 428.171 168.2C427.509 168.605 426.72 168.904 425.803 169.096C424.907 169.288 423.925 169.384 422.859 169.384ZM440.171 169.384C438.955 169.384 437.889 169.256 436.971 169C436.054 168.723 435.286 168.349 434.667 167.88C434.049 167.411 433.579 166.867 433.259 166.248C432.961 165.608 432.811 164.915 432.811 164.168C432.811 164.061 432.811 163.965 432.811 163.88C432.833 163.795 432.843 163.731 432.843 163.688H436.683C436.683 163.731 436.683 163.773 436.683 163.816C436.683 163.859 436.683 163.901 436.683 163.944C436.705 164.52 436.886 164.989 437.227 165.352C437.569 165.693 438.017 165.939 438.571 166.088C439.126 166.237 439.713 166.312 440.331 166.312C440.886 166.312 441.409 166.259 441.899 166.152C442.411 166.024 442.827 165.832 443.147 165.576C443.489 165.299 443.659 164.947 443.659 164.52C443.659 163.965 443.446 163.539 443.019 163.24C442.593 162.941 442.027 162.696 441.323 162.504C440.641 162.312 439.905 162.109 439.115 161.896C438.411 161.704 437.707 161.491 437.003 161.256C436.299 161.021 435.659 160.723 435.083 160.36C434.529 159.997 434.07 159.528 433.707 158.952C433.366 158.376 433.195 157.661 433.195 156.808C433.195 155.976 433.377 155.251 433.739 154.632C434.102 154.013 434.603 153.501 435.243 153.096C435.883 152.669 436.641 152.349 437.515 152.136C438.39 151.923 439.339 151.816 440.363 151.816C441.366 151.816 442.273 151.923 443.083 152.136C443.915 152.349 444.63 152.659 445.227 153.064C445.846 153.448 446.315 153.928 446.635 154.504C446.977 155.059 447.147 155.677 447.147 156.36C447.147 156.509 447.137 156.659 447.115 156.808C447.115 156.957 447.115 157.043 447.115 157.064H443.307V156.84C443.307 156.435 443.179 156.093 442.923 155.816C442.689 155.517 442.337 155.283 441.867 155.112C441.419 154.941 440.854 154.856 440.171 154.856C439.659 154.856 439.211 154.899 438.827 154.984C438.443 155.069 438.123 155.187 437.867 155.336C437.633 155.485 437.451 155.656 437.323 155.848C437.195 156.04 437.131 156.253 437.131 156.488C437.131 156.893 437.291 157.213 437.611 157.448C437.931 157.683 438.358 157.885 438.891 158.056C439.446 158.227 440.043 158.408 440.683 158.6C441.451 158.813 442.241 159.037 443.051 159.272C443.862 159.485 444.609 159.763 445.291 160.104C445.995 160.445 446.561 160.925 446.987 161.544C447.414 162.163 447.627 162.984 447.627 164.008C447.627 164.989 447.435 165.832 447.051 166.536C446.689 167.219 446.166 167.773 445.483 168.2C444.822 168.605 444.033 168.904 443.115 169.096C442.219 169.288 441.238 169.384 440.171 169.384ZM450.924 149.576V145.864H454.828V149.576H450.924ZM450.924 169V152.168H454.828V169H450.924ZM458.986 169V152.168H462.25L462.57 154.408H462.794C463.178 153.896 463.626 153.448 464.138 153.064C464.672 152.659 465.269 152.349 465.93 152.136C466.613 151.901 467.36 151.784 468.17 151.784C469.237 151.784 470.176 151.976 470.986 152.36C471.818 152.744 472.469 153.363 472.938 154.216C473.408 155.069 473.642 156.211 473.642 157.64V169H469.706V158.344C469.706 157.747 469.632 157.256 469.482 156.872C469.354 156.467 469.152 156.147 468.874 155.912C468.618 155.656 468.298 155.475 467.914 155.368C467.53 155.261 467.104 155.208 466.634 155.208C465.93 155.208 465.29 155.379 464.714 155.72C464.16 156.061 463.712 156.531 463.37 157.128C463.05 157.725 462.89 158.419 462.89 159.208V169H458.986ZM480.458 174.824C479.711 174.824 479.007 174.675 478.346 174.376C477.684 174.077 477.151 173.629 476.746 173.032C476.34 172.456 476.138 171.741 476.138 170.888C476.138 169.949 476.404 169.213 476.938 168.68C477.492 168.125 478.1 167.709 478.762 167.432C478.271 167.176 477.866 166.835 477.546 166.408C477.247 165.981 477.098 165.469 477.098 164.872C477.098 164.061 477.396 163.421 477.994 162.952C478.591 162.461 479.274 162.141 480.042 161.992C479.252 161.501 478.644 160.872 478.218 160.104C477.812 159.336 477.61 158.461 477.61 157.48C477.61 156.307 477.887 155.304 478.442 154.472C479.018 153.619 479.85 152.957 480.938 152.488C482.026 152.019 483.338 151.784 484.874 151.784C485.492 151.784 486.09 151.827 486.666 151.912C487.242 151.997 487.764 152.125 488.234 152.296C488.98 151.848 489.492 151.347 489.77 150.792C490.047 150.216 490.196 149.747 490.218 149.384H494.026C494.026 150.131 493.876 150.792 493.578 151.368C493.3 151.944 492.906 152.424 492.394 152.808C491.882 153.171 491.263 153.437 490.538 153.608C491.071 154.077 491.476 154.643 491.754 155.304C492.031 155.965 492.17 156.691 492.17 157.48C492.17 158.653 491.892 159.667 491.338 160.52C490.804 161.373 490.004 162.035 488.938 162.504C487.892 162.973 486.602 163.208 485.066 163.208H482.474C482.026 163.208 481.674 163.304 481.418 163.496C481.183 163.688 481.066 163.955 481.066 164.296C481.066 164.573 481.172 164.819 481.386 165.032C481.62 165.245 481.94 165.352 482.346 165.352H489.706C490.964 165.352 491.999 165.768 492.81 166.6C493.642 167.411 494.058 168.456 494.058 169.736C494.058 170.696 493.802 171.56 493.29 172.328C492.799 173.096 492.106 173.704 491.21 174.152C490.314 174.6 489.268 174.824 488.074 174.824H480.458ZM481.866 172.008H488.042C488.447 172.008 488.799 171.933 489.098 171.784C489.418 171.656 489.663 171.464 489.834 171.208C490.026 170.952 490.122 170.664 490.122 170.344C490.122 169.789 489.94 169.373 489.578 169.096C489.236 168.819 488.81 168.68 488.298 168.68H481.866C481.354 168.68 480.927 168.829 480.586 169.128C480.244 169.448 480.074 169.853 480.074 170.344C480.074 170.835 480.234 171.229 480.554 171.528C480.895 171.848 481.332 172.008 481.866 172.008ZM484.906 160.456C486.036 160.456 486.879 160.2 487.434 159.688C488.01 159.155 488.298 158.419 488.298 157.48C488.298 156.541 488.01 155.816 487.434 155.304C486.879 154.792 486.036 154.536 484.906 154.536C483.775 154.536 482.922 154.792 482.346 155.304C481.791 155.816 481.514 156.541 481.514 157.48C481.514 158.099 481.631 158.632 481.866 159.08C482.122 159.528 482.495 159.869 482.986 160.104C483.498 160.339 484.138 160.456 484.906 160.456ZM510.474 169.384C508.64 169.384 507.104 169.075 505.866 168.456C504.629 167.816 503.701 166.845 503.082 165.544C502.464 164.243 502.154 162.589 502.154 160.584C502.154 158.557 502.464 156.904 503.082 155.624C503.701 154.323 504.629 153.363 505.866 152.744C507.104 152.104 508.64 151.784 510.474 151.784C512.33 151.784 513.866 152.104 515.082 152.744C516.32 153.363 517.248 154.323 517.866 155.624C518.485 156.904 518.794 158.557 518.794 160.584C518.794 162.589 518.485 164.243 517.866 165.544C517.248 166.845 516.32 167.816 515.082 168.456C513.866 169.075 512.33 169.384 510.474 169.384ZM510.474 166.184C511.498 166.184 512.32 165.992 512.938 165.608C513.578 165.203 514.037 164.605 514.314 163.816C514.613 163.005 514.762 162.003 514.762 160.808V160.36C514.762 159.165 514.613 158.173 514.314 157.384C514.037 156.573 513.578 155.976 512.938 155.592C512.32 155.187 511.498 154.984 510.474 154.984C509.45 154.984 508.618 155.187 507.978 155.592C507.36 155.976 506.901 156.573 506.602 157.384C506.325 158.173 506.186 159.165 506.186 160.36V160.808C506.186 162.003 506.325 163.005 506.602 163.816C506.901 164.605 507.36 165.203 507.978 165.608C508.618 165.992 509.45 166.184 510.474 166.184ZM527.455 169.384C525.834 169.384 524.511 168.947 523.487 168.072C522.485 167.176 521.983 165.661 521.983 163.528V152.168H525.887V162.824C525.887 163.421 525.951 163.923 526.079 164.328C526.229 164.712 526.431 165.032 526.687 165.288C526.965 165.523 527.295 165.693 527.679 165.8C528.063 165.907 528.49 165.96 528.959 165.96C529.663 165.96 530.293 165.789 530.847 165.448C531.423 165.107 531.871 164.637 532.191 164.04C532.533 163.421 532.703 162.728 532.703 161.96V152.168H536.607V169H533.375L533.055 166.76H532.831C532.447 167.272 531.989 167.731 531.455 168.136C530.943 168.52 530.346 168.819 529.663 169.032C529.002 169.267 528.266 169.384 527.455 169.384ZM545.216 169.384C544.17 169.384 543.349 169.181 542.752 168.776C542.154 168.349 541.728 167.816 541.472 167.176C541.237 166.515 541.12 165.843 541.12 165.16V155.368H539.104V152.168H541.216L541.92 147.464H545.024V152.168H547.936V155.368H545.024V164.776C545.024 165.224 545.141 165.576 545.376 165.832C545.61 166.067 545.962 166.184 546.432 166.184H547.936V168.872C547.722 168.957 547.456 169.032 547.135 169.096C546.837 169.181 546.517 169.245 546.176 169.288C545.834 169.352 545.514 169.384 545.216 169.384ZM551.086 156.36V154.728C551.598 154.643 552.014 154.429 552.334 154.088C552.675 153.747 552.921 153.32 553.07 152.808C553.219 152.296 553.294 151.741 553.294 151.144H551.31V147.048H555.374V150.792C555.374 152.029 555.171 153.032 554.766 153.8C554.361 154.568 553.827 155.155 553.166 155.56C552.526 155.944 551.833 156.211 551.086 156.36ZM557.55 156.36V154.728C558.062 154.643 558.478 154.429 558.798 154.088C559.139 153.747 559.385 153.32 559.534 152.808C559.683 152.296 559.758 151.741 559.758 151.144H557.774V147.048H561.838V150.792C561.838 152.029 561.635 153.032 561.23 153.8C560.825 154.568 560.291 155.155 559.63 155.56C558.99 155.944 558.297 156.211 557.55 156.36ZM92.955 194.576V190.864H96.859V194.576H92.955ZM92.955 214V197.168H96.859V214H92.955ZM108.224 214V200.368H105.792V197.168H108.224V195.024C108.224 194.277 108.341 193.573 108.576 192.912C108.832 192.229 109.269 191.675 109.888 191.248C110.506 190.821 111.37 190.608 112.48 190.608C112.8 190.608 113.12 190.629 113.44 190.672C113.781 190.715 114.101 190.779 114.4 190.864C114.698 190.928 114.954 191.003 115.168 191.088V193.808H113.568C113.098 193.808 112.736 193.936 112.48 194.192C112.245 194.427 112.128 194.779 112.128 195.248V197.168H115.168V200.368H112.128V214H108.224ZM124.568 214.384C122.733 214.384 121.197 214.075 119.96 213.456C118.723 212.816 117.795 211.845 117.176 210.544C116.557 209.243 116.248 207.589 116.248 205.584C116.248 203.557 116.557 201.904 117.176 200.624C117.795 199.323 118.723 198.363 119.96 197.744C121.197 197.104 122.733 196.784 124.568 196.784C126.424 196.784 127.96 197.104 129.176 197.744C130.413 198.363 131.341 199.323 131.96 200.624C132.579 201.904 132.888 203.557 132.888 205.584C132.888 207.589 132.579 209.243 131.96 210.544C131.341 211.845 130.413 212.816 129.176 213.456C127.96 214.075 126.424 214.384 124.568 214.384ZM124.568 211.184C125.592 211.184 126.413 210.992 127.032 210.608C127.672 210.203 128.131 209.605 128.408 208.816C128.707 208.005 128.856 207.003 128.856 205.808V205.36C128.856 204.165 128.707 203.173 128.408 202.384C128.131 201.573 127.672 200.976 127.032 200.592C126.413 200.187 125.592 199.984 124.568 199.984C123.544 199.984 122.712 200.187 122.072 200.592C121.453 200.976 120.995 201.573 120.696 202.384C120.419 203.173 120.28 204.165 120.28 205.36V205.808C120.28 207.003 120.419 208.005 120.696 208.816C120.995 209.605 121.453 210.203 122.072 210.608C122.712 210.992 123.544 211.184 124.568 211.184ZM136.205 214V197.168H139.469L139.789 199.824H140.013C140.226 199.291 140.482 198.8 140.781 198.352C141.101 197.883 141.506 197.509 141.997 197.232C142.488 196.933 143.085 196.784 143.789 196.784C144.13 196.784 144.44 196.816 144.717 196.88C145.016 196.944 145.24 197.008 145.389 197.072V200.752H144.205C143.544 200.752 142.957 200.848 142.445 201.04C141.933 201.211 141.496 201.488 141.133 201.872C140.792 202.256 140.536 202.736 140.365 203.312C140.194 203.888 140.109 204.56 140.109 205.328V214H136.205ZM156.727 214.384C155.639 214.384 154.647 214.171 153.751 213.744C152.855 213.296 152.129 212.635 151.575 211.76H151.351L151.031 214H147.799V190.864H151.703V199.12H151.895C152.236 198.608 152.652 198.181 153.143 197.84C153.633 197.477 154.199 197.211 154.839 197.04C155.479 196.869 156.183 196.784 156.951 196.784C158.209 196.784 159.319 197.093 160.279 197.712C161.26 198.331 162.028 199.291 162.583 200.592C163.137 201.872 163.415 203.525 163.415 205.552C163.415 207.6 163.137 209.275 162.583 210.576C162.049 211.877 161.281 212.837 160.279 213.456C159.297 214.075 158.113 214.384 156.727 214.384ZM155.511 211.024C156.471 211.024 157.228 210.843 157.783 210.48C158.359 210.096 158.764 209.52 158.999 208.752C159.255 207.984 159.383 207.013 159.383 205.84V205.392C159.383 204.197 159.255 203.216 158.999 202.448C158.764 201.659 158.359 201.083 157.783 200.72C157.228 200.336 156.471 200.144 155.511 200.144C154.849 200.144 154.273 200.261 153.783 200.496C153.313 200.731 152.919 201.072 152.599 201.52C152.3 201.968 152.076 202.523 151.927 203.184C151.777 203.845 151.703 204.592 151.703 205.424V205.84C151.703 206.949 151.831 207.888 152.087 208.656C152.364 209.424 152.78 210.011 153.335 210.416C153.911 210.821 154.636 211.024 155.511 211.024ZM166.736 194.576V190.864H170.64V194.576H166.736ZM166.736 214V197.168H170.64V214H166.736ZM174.799 214V197.168H178.063L178.383 199.408H178.607C178.991 198.896 179.439 198.448 179.951 198.064C180.484 197.659 181.081 197.349 181.743 197.136C182.425 196.901 183.172 196.784 183.983 196.784C185.049 196.784 185.988 196.976 186.799 197.36C187.631 197.744 188.281 198.363 188.751 199.216C189.22 200.069 189.455 201.211 189.455 202.64V214H185.519V203.344C185.519 202.747 185.444 202.256 185.295 201.872C185.167 201.467 184.964 201.147 184.687 200.912C184.431 200.656 184.111 200.475 183.727 200.368C183.343 200.261 182.916 200.208 182.447 200.208C181.743 200.208 181.103 200.379 180.527 200.72C179.972 201.061 179.524 201.531 179.183 202.128C178.863 202.725 178.703 203.419 178.703 204.208V214H174.799ZM199.342 214.384C197.977 214.384 196.793 214.075 195.79 213.456C194.788 212.837 194.009 211.877 193.454 210.576C192.921 209.275 192.654 207.6 192.654 205.552C192.654 203.525 192.932 201.872 193.486 200.592C194.041 199.291 194.809 198.331 195.79 197.712C196.772 197.093 197.881 196.784 199.118 196.784C199.886 196.784 200.59 196.869 201.23 197.04C201.87 197.211 202.436 197.477 202.926 197.84C203.417 198.181 203.833 198.608 204.174 199.12H204.366V190.864H208.27V214H205.038L204.718 211.76H204.494C203.961 212.635 203.236 213.296 202.318 213.744C201.422 214.171 200.43 214.384 199.342 214.384ZM200.558 211.024C201.454 211.024 202.18 210.821 202.734 210.416C203.289 210.011 203.694 209.424 203.95 208.656C204.228 207.888 204.366 206.949 204.366 205.84V205.424C204.366 204.592 204.292 203.845 204.142 203.184C203.993 202.523 203.758 201.968 203.438 201.52C203.14 201.072 202.745 200.731 202.254 200.496C201.785 200.261 201.22 200.144 200.558 200.144C199.598 200.144 198.83 200.336 198.254 200.72C197.7 201.083 197.294 201.659 197.038 202.448C196.804 203.216 196.686 204.197 196.686 205.392V205.84C196.686 207.013 196.804 207.984 197.038 208.752C197.294 209.52 197.7 210.096 198.254 210.48C198.83 210.843 199.598 211.024 200.558 211.024ZM219.656 214.384C217.864 214.384 216.37 214.075 215.176 213.456C213.981 212.816 213.085 211.845 212.488 210.544C211.89 209.243 211.592 207.589 211.592 205.584C211.592 203.557 211.89 201.904 212.488 200.624C213.085 199.323 213.981 198.363 215.176 197.744C216.37 197.104 217.864 196.784 219.656 196.784C221.277 196.784 222.632 197.093 223.72 197.712C224.829 198.309 225.661 199.237 226.216 200.496C226.77 201.755 227.048 203.387 227.048 205.392V206.544H215.592C215.634 207.589 215.794 208.475 216.072 209.2C216.349 209.904 216.776 210.437 217.352 210.8C217.949 211.141 218.728 211.312 219.688 211.312C220.178 211.312 220.637 211.248 221.064 211.12C221.49 210.992 221.864 210.8 222.184 210.544C222.504 210.267 222.749 209.925 222.92 209.52C223.112 209.115 223.208 208.645 223.208 208.112H227.048C227.048 209.179 226.856 210.107 226.472 210.896C226.109 211.685 225.586 212.336 224.904 212.848C224.242 213.36 223.464 213.744 222.568 214C221.672 214.256 220.701 214.384 219.656 214.384ZM215.656 203.792H222.984C222.984 203.088 222.898 202.491 222.728 202C222.578 201.509 222.354 201.104 222.056 200.784C221.778 200.464 221.437 200.24 221.032 200.112C220.626 199.963 220.168 199.888 219.656 199.888C218.824 199.888 218.12 200.027 217.544 200.304C216.989 200.581 216.562 201.008 216.264 201.584C215.965 202.16 215.762 202.896 215.656 203.792ZM230.361 214V190.864H234.265V214H230.361ZM244.984 214.384C243.768 214.384 242.701 214.256 241.784 214C240.866 213.723 240.098 213.349 239.48 212.88C238.861 212.411 238.392 211.867 238.072 211.248C237.773 210.608 237.624 209.915 237.624 209.168C237.624 209.061 237.624 208.965 237.624 208.88C237.645 208.795 237.656 208.731 237.656 208.688H241.496C241.496 208.731 241.496 208.773 241.496 208.816C241.496 208.859 241.496 208.901 241.496 208.944C241.517 209.52 241.698 209.989 242.04 210.352C242.381 210.693 242.829 210.939 243.384 211.088C243.938 211.237 244.525 211.312 245.144 211.312C245.698 211.312 246.221 211.259 246.712 211.152C247.224 211.024 247.64 210.832 247.96 210.576C248.301 210.299 248.472 209.947 248.472 209.52C248.472 208.965 248.258 208.539 247.832 208.24C247.405 207.941 246.84 207.696 246.136 207.504C245.453 207.312 244.717 207.109 243.928 206.896C243.224 206.704 242.52 206.491 241.816 206.256C241.112 206.021 240.472 205.723 239.896 205.36C239.341 204.997 238.882 204.528 238.52 203.952C238.178 203.376 238.008 202.661 238.008 201.808C238.008 200.976 238.189 200.251 238.552 199.632C238.914 199.013 239.416 198.501 240.056 198.096C240.696 197.669 241.453 197.349 242.328 197.136C243.202 196.923 244.152 196.816 245.176 196.816C246.178 196.816 247.085 196.923 247.896 197.136C248.728 197.349 249.442 197.659 250.04 198.064C250.658 198.448 251.128 198.928 251.448 199.504C251.789 200.059 251.96 200.677 251.96 201.36C251.96 201.509 251.949 201.659 251.928 201.808C251.928 201.957 251.928 202.043 251.928 202.064H248.12V201.84C248.12 201.435 247.992 201.093 247.736 200.816C247.501 200.517 247.149 200.283 246.68 200.112C246.232 199.941 245.666 199.856 244.984 199.856C244.472 199.856 244.024 199.899 243.64 199.984C243.256 200.069 242.936 200.187 242.68 200.336C242.445 200.485 242.264 200.656 242.136 200.848C242.008 201.04 241.944 201.253 241.944 201.488C241.944 201.893 242.104 202.213 242.424 202.448C242.744 202.683 243.17 202.885 243.704 203.056C244.258 203.227 244.856 203.408 245.496 203.6C246.264 203.813 247.053 204.037 247.864 204.272C248.674 204.485 249.421 204.763 250.104 205.104C250.808 205.445 251.373 205.925 251.8 206.544C252.226 207.163 252.44 207.984 252.44 209.008C252.44 209.989 252.248 210.832 251.864 211.536C251.501 212.219 250.978 212.773 250.296 213.2C249.634 213.605 248.845 213.904 247.928 214.096C247.032 214.288 246.05 214.384 244.984 214.384ZM262.968 214.384C261.176 214.384 259.683 214.075 258.488 213.456C257.294 212.816 256.398 211.845 255.8 210.544C255.203 209.243 254.904 207.589 254.904 205.584C254.904 203.557 255.203 201.904 255.8 200.624C256.398 199.323 257.294 198.363 258.488 197.744C259.683 197.104 261.176 196.784 262.968 196.784C264.59 196.784 265.944 197.093 267.032 197.712C268.142 198.309 268.974 199.237 269.528 200.496C270.083 201.755 270.36 203.387 270.36 205.392V206.544H258.904C258.947 207.589 259.107 208.475 259.384 209.2C259.662 209.904 260.088 210.437 260.664 210.8C261.262 211.141 262.04 211.312 263 211.312C263.491 211.312 263.95 211.248 264.376 211.12C264.803 210.992 265.176 210.8 265.496 210.544C265.816 210.267 266.062 209.925 266.232 209.52C266.424 209.115 266.52 208.645 266.52 208.112H270.36C270.36 209.179 270.168 210.107 269.784 210.896C269.422 211.685 268.899 212.336 268.216 212.848C267.555 213.36 266.776 213.744 265.88 214C264.984 214.256 264.014 214.384 262.968 214.384ZM258.968 203.792H266.296C266.296 203.088 266.211 202.491 266.04 202C265.891 201.509 265.667 201.104 265.368 200.784C265.091 200.464 264.75 200.24 264.344 200.112C263.939 199.963 263.48 199.888 262.968 199.888C262.136 199.888 261.432 200.027 260.856 200.304C260.302 200.581 259.875 201.008 259.576 201.584C259.278 202.16 259.075 202.896 258.968 203.792ZM280.08 214V197.168H283.344L283.664 199.408H283.888C284.251 198.896 284.667 198.448 285.136 198.064C285.605 197.659 286.139 197.349 286.736 197.136C287.355 196.901 288.027 196.784 288.752 196.784C289.733 196.784 290.608 196.987 291.376 197.392C292.144 197.797 292.741 198.469 293.168 199.408H293.392C293.755 198.896 294.181 198.448 294.672 198.064C295.163 197.659 295.728 197.349 296.368 197.136C297.008 196.901 297.701 196.784 298.448 196.784C299.451 196.784 300.336 196.965 301.104 197.328C301.872 197.691 302.48 198.288 302.928 199.12C303.376 199.952 303.6 201.061 303.6 202.448V214H299.696V203.248C299.696 202.672 299.632 202.192 299.504 201.808C299.376 201.403 299.195 201.093 298.96 200.88C298.747 200.645 298.469 200.475 298.128 200.368C297.808 200.261 297.456 200.208 297.072 200.208C296.453 200.208 295.899 200.379 295.408 200.72C294.917 201.061 294.523 201.531 294.224 202.128C293.947 202.725 293.808 203.419 293.808 204.208V214H289.904V203.248C289.904 202.672 289.84 202.192 289.712 201.808C289.584 201.403 289.403 201.093 289.168 200.88C288.955 200.645 288.677 200.475 288.336 200.368C288.016 200.261 287.664 200.208 287.28 200.208C286.661 200.208 286.096 200.379 285.584 200.72C285.093 201.061 284.699 201.531 284.4 202.128C284.123 202.725 283.984 203.419 283.984 204.208V214H280.08ZM314.875 214.384C313.083 214.384 311.589 214.075 310.395 213.456C309.2 212.816 308.304 211.845 307.707 210.544C307.109 209.243 306.811 207.589 306.811 205.584C306.811 203.557 307.109 201.904 307.707 200.624C308.304 199.323 309.2 198.363 310.395 197.744C311.589 197.104 313.083 196.784 314.875 196.784C316.496 196.784 317.851 197.093 318.939 197.712C320.048 198.309 320.88 199.237 321.435 200.496C321.989 201.755 322.267 203.387 322.267 205.392V206.544H310.811C310.853 207.589 311.013 208.475 311.291 209.2C311.568 209.904 311.995 210.437 312.571 210.8C313.168 211.141 313.947 211.312 314.907 211.312C315.397 211.312 315.856 211.248 316.283 211.12C316.709 210.992 317.083 210.8 317.403 210.544C317.723 210.267 317.968 209.925 318.139 209.52C318.331 209.115 318.427 208.645 318.427 208.112H322.267C322.267 209.179 322.075 210.107 321.691 210.896C321.328 211.685 320.805 212.336 320.123 212.848C319.461 213.36 318.683 213.744 317.787 214C316.891 214.256 315.92 214.384 314.875 214.384ZM310.875 203.792H318.203C318.203 203.088 318.117 202.491 317.947 202C317.797 201.509 317.573 201.104 317.275 200.784C316.997 200.464 316.656 200.24 316.251 200.112C315.845 199.963 315.387 199.888 314.875 199.888C314.043 199.888 313.339 200.027 312.763 200.304C312.208 200.581 311.781 201.008 311.483 201.584C311.184 202.16 310.981 202.896 310.875 203.792ZM331.436 214.384C330.071 214.384 328.887 214.075 327.884 213.456C326.881 212.837 326.103 211.877 325.548 210.576C325.015 209.275 324.748 207.6 324.748 205.552C324.748 203.525 325.025 201.872 325.58 200.592C326.135 199.291 326.903 198.331 327.884 197.712C328.865 197.093 329.975 196.784 331.212 196.784C331.98 196.784 332.684 196.869 333.324 197.04C333.964 197.211 334.529 197.477 335.02 197.84C335.511 198.181 335.927 198.608 336.268 199.12H336.46V190.864H340.364V214H337.132L336.812 211.76H336.588C336.055 212.635 335.329 213.296 334.412 213.744C333.516 214.171 332.524 214.384 331.436 214.384ZM332.652 211.024C333.548 211.024 334.273 210.821 334.828 210.416C335.383 210.011 335.788 209.424 336.044 208.656C336.321 207.888 336.46 206.949 336.46 205.84V205.424C336.46 204.592 336.385 203.845 336.236 203.184C336.087 202.523 335.852 201.968 335.532 201.52C335.233 201.072 334.839 200.731 334.348 200.496C333.879 200.261 333.313 200.144 332.652 200.144C331.692 200.144 330.924 200.336 330.348 200.72C329.793 201.083 329.388 201.659 329.132 202.448C328.897 203.216 328.78 204.197 328.78 205.392V205.84C328.78 207.013 328.897 207.984 329.132 208.752C329.388 209.52 329.793 210.096 330.348 210.48C330.924 210.843 331.692 211.024 332.652 211.024ZM357.484 214.384C356.268 214.384 355.201 214.256 354.284 214C353.366 213.723 352.598 213.349 351.98 212.88C351.361 212.411 350.892 211.867 350.572 211.248C350.273 210.608 350.124 209.915 350.124 209.168C350.124 209.061 350.124 208.965 350.124 208.88C350.145 208.795 350.156 208.731 350.156 208.688H353.996C353.996 208.731 353.996 208.773 353.996 208.816C353.996 208.859 353.996 208.901 353.996 208.944C354.017 209.52 354.198 209.989 354.54 210.352C354.881 210.693 355.329 210.939 355.884 211.088C356.438 211.237 357.025 211.312 357.644 211.312C358.198 211.312 358.721 211.259 359.212 211.152C359.724 211.024 360.14 210.832 360.46 210.576C360.801 210.299 360.972 209.947 360.972 209.52C360.972 208.965 360.758 208.539 360.332 208.24C359.905 207.941 359.34 207.696 358.636 207.504C357.953 207.312 357.217 207.109 356.428 206.896C355.724 206.704 355.02 206.491 354.316 206.256C353.612 206.021 352.972 205.723 352.396 205.36C351.841 204.997 351.382 204.528 351.02 203.952C350.678 203.376 350.508 202.661 350.508 201.808C350.508 200.976 350.689 200.251 351.052 199.632C351.414 199.013 351.916 198.501 352.556 198.096C353.196 197.669 353.953 197.349 354.828 197.136C355.702 196.923 356.652 196.816 357.676 196.816C358.678 196.816 359.585 196.923 360.396 197.136C361.228 197.349 361.942 197.659 362.54 198.064C363.158 198.448 363.628 198.928 363.948 199.504C364.289 200.059 364.46 200.677 364.46 201.36C364.46 201.509 364.449 201.659 364.428 201.808C364.428 201.957 364.428 202.043 364.428 202.064H360.62V201.84C360.62 201.435 360.492 201.093 360.236 200.816C360.001 200.517 359.649 200.283 359.18 200.112C358.732 199.941 358.166 199.856 357.484 199.856C356.972 199.856 356.524 199.899 356.14 199.984C355.756 200.069 355.436 200.187 355.18 200.336C354.945 200.485 354.764 200.656 354.636 200.848C354.508 201.04 354.444 201.253 354.444 201.488C354.444 201.893 354.604 202.213 354.924 202.448C355.244 202.683 355.67 202.885 356.204 203.056C356.758 203.227 357.356 203.408 357.996 203.6C358.764 203.813 359.553 204.037 360.364 204.272C361.174 204.485 361.921 204.763 362.604 205.104C363.308 205.445 363.873 205.925 364.3 206.544C364.726 207.163 364.94 207.984 364.94 209.008C364.94 209.989 364.748 210.832 364.364 211.536C364.001 212.219 363.478 212.773 362.796 213.2C362.134 213.605 361.345 213.904 360.428 214.096C359.532 214.288 358.55 214.384 357.484 214.384ZM375.724 214.384C373.89 214.384 372.354 214.075 371.116 213.456C369.879 212.816 368.951 211.845 368.332 210.544C367.714 209.243 367.404 207.589 367.404 205.584C367.404 203.557 367.714 201.904 368.332 200.624C368.951 199.323 369.879 198.363 371.116 197.744C372.354 197.104 373.89 196.784 375.724 196.784C377.58 196.784 379.116 197.104 380.332 197.744C381.57 198.363 382.498 199.323 383.116 200.624C383.735 201.904 384.044 203.557 384.044 205.584C384.044 207.589 383.735 209.243 383.116 210.544C382.498 211.845 381.57 212.816 380.332 213.456C379.116 214.075 377.58 214.384 375.724 214.384ZM375.724 211.184C376.748 211.184 377.57 210.992 378.188 210.608C378.828 210.203 379.287 209.605 379.564 208.816C379.863 208.005 380.012 207.003 380.012 205.808V205.36C380.012 204.165 379.863 203.173 379.564 202.384C379.287 201.573 378.828 200.976 378.188 200.592C377.57 200.187 376.748 199.984 375.724 199.984C374.7 199.984 373.868 200.187 373.228 200.592C372.61 200.976 372.151 201.573 371.852 202.384C371.575 203.173 371.436 204.165 371.436 205.36V205.808C371.436 207.003 371.575 208.005 371.852 208.816C372.151 209.605 372.61 210.203 373.228 210.608C373.868 210.992 374.7 211.184 375.724 211.184ZM394.369 214.384C392.62 214.384 391.159 214.075 389.985 213.456C388.833 212.816 387.969 211.845 387.393 210.544C386.817 209.243 386.529 207.589 386.529 205.584C386.529 203.557 386.817 201.904 387.393 200.624C387.991 199.323 388.865 198.363 390.017 197.744C391.191 197.104 392.641 196.784 394.369 196.784C395.5 196.784 396.503 196.923 397.377 197.2C398.252 197.477 398.999 197.904 399.617 198.48C400.257 199.035 400.737 199.728 401.057 200.56C401.377 201.392 401.537 202.363 401.537 203.472H397.569C397.569 202.683 397.452 202.032 397.217 201.52C396.983 201.008 396.62 200.624 396.129 200.368C395.66 200.091 395.052 199.952 394.305 199.952C393.431 199.952 392.716 200.155 392.161 200.56C391.607 200.965 391.191 201.573 390.913 202.384C390.657 203.173 390.529 204.176 390.529 205.392V205.808C390.529 207.003 390.657 208.005 390.913 208.816C391.191 209.627 391.617 210.235 392.193 210.64C392.769 211.024 393.527 211.216 394.465 211.216C395.191 211.216 395.788 211.088 396.257 210.832C396.748 210.555 397.121 210.149 397.377 209.616C397.633 209.083 397.761 208.443 397.761 207.696H401.537C401.537 208.741 401.377 209.68 401.057 210.512C400.737 211.344 400.268 212.048 399.649 212.624C399.031 213.2 398.273 213.637 397.377 213.936C396.503 214.235 395.5 214.384 394.369 214.384ZM404.861 194.576V190.864H408.765V194.576H404.861ZM404.861 214V197.168H408.765V214H404.861ZM417.244 214.384C416.774 214.384 416.23 214.32 415.612 214.192C415.014 214.085 414.428 213.872 413.852 213.552C413.297 213.232 412.838 212.763 412.476 212.144C412.113 211.504 411.932 210.672 411.932 209.648C411.932 208.496 412.188 207.547 412.7 206.8C413.212 206.032 413.926 205.435 414.844 205.008C415.782 204.56 416.892 204.251 418.172 204.08C419.473 203.888 420.892 203.792 422.428 203.792V202.416C422.428 201.925 422.353 201.488 422.204 201.104C422.054 200.72 421.777 200.421 421.372 200.208C420.988 199.973 420.401 199.856 419.612 199.856C418.822 199.856 418.204 199.952 417.756 200.144C417.308 200.336 416.998 200.571 416.828 200.848C416.657 201.125 416.572 201.413 416.572 201.712V202.16H412.796C412.774 202.053 412.764 201.947 412.764 201.84C412.764 201.733 412.764 201.605 412.764 201.456C412.764 200.496 413.052 199.664 413.628 198.96C414.204 198.256 415.004 197.723 416.028 197.36C417.052 196.976 418.236 196.784 419.58 196.784C421.116 196.784 422.374 196.997 423.356 197.424C424.358 197.851 425.105 198.459 425.596 199.248C426.086 200.037 426.332 200.997 426.332 202.128V210.064C426.332 210.469 426.449 210.757 426.684 210.928C426.918 211.099 427.174 211.184 427.452 211.184H428.476V213.872C428.262 213.957 427.953 214.053 427.548 214.16C427.142 214.288 426.641 214.352 426.044 214.352C425.489 214.352 424.988 214.256 424.54 214.064C424.113 213.893 423.75 213.637 423.452 213.296C423.153 212.955 422.94 212.549 422.812 212.08H422.62C422.257 212.528 421.82 212.933 421.308 213.296C420.817 213.637 420.23 213.904 419.548 214.096C418.886 214.288 418.118 214.384 417.244 214.384ZM418.428 211.184C419.068 211.184 419.633 211.088 420.124 210.896C420.636 210.704 421.052 210.437 421.372 210.096C421.713 209.755 421.969 209.339 422.14 208.848C422.332 208.357 422.428 207.824 422.428 207.248V206.48C421.254 206.48 420.166 206.555 419.164 206.704C418.182 206.853 417.393 207.131 416.796 207.536C416.22 207.941 415.932 208.517 415.932 209.264C415.932 209.648 416.017 209.989 416.188 210.288C416.38 210.565 416.657 210.789 417.02 210.96C417.404 211.109 417.873 211.184 418.428 211.184ZM430.705 214V190.864H434.609V214H430.705ZM446 214.384C444.208 214.384 442.714 214.075 441.52 213.456C440.325 212.816 439.429 211.845 438.832 210.544C438.234 209.243 437.936 207.589 437.936 205.584C437.936 203.557 438.234 201.904 438.832 200.624C439.429 199.323 440.325 198.363 441.52 197.744C442.714 197.104 444.208 196.784 446 196.784C447.621 196.784 448.976 197.093 450.064 197.712C451.173 198.309 452.005 199.237 452.56 200.496C453.114 201.755 453.392 203.387 453.392 205.392V206.544H441.936C441.978 207.589 442.138 208.475 442.416 209.2C442.693 209.904 443.12 210.437 443.696 210.8C444.293 211.141 445.072 211.312 446.032 211.312C446.522 211.312 446.981 211.248 447.408 211.12C447.834 210.992 448.208 210.8 448.528 210.544C448.848 210.267 449.093 209.925 449.264 209.52C449.456 209.115 449.552 208.645 449.552 208.112H453.392C453.392 209.179 453.2 210.107 452.816 210.896C452.453 211.685 451.93 212.336 451.248 212.848C450.586 213.36 449.808 213.744 448.912 214C448.016 214.256 447.045 214.384 446 214.384ZM442 203.792H449.328C449.328 203.088 449.242 202.491 449.072 202C448.922 201.509 448.698 201.104 448.4 200.784C448.122 200.464 447.781 200.24 447.376 200.112C446.97 199.963 446.512 199.888 446 199.888C445.168 199.888 444.464 200.027 443.888 200.304C443.333 200.581 442.906 201.008 442.608 201.584C442.309 202.16 442.106 202.896 442 203.792ZM463.111 214V197.168H466.375L466.695 199.408H466.919C467.282 198.896 467.698 198.448 468.167 198.064C468.637 197.659 469.17 197.349 469.767 197.136C470.386 196.901 471.058 196.784 471.783 196.784C472.765 196.784 473.639 196.987 474.407 197.392C475.175 197.797 475.773 198.469 476.199 199.408H476.423C476.786 198.896 477.213 198.448 477.703 198.064C478.194 197.659 478.759 197.349 479.399 197.136C480.039 196.901 480.733 196.784 481.479 196.784C482.482 196.784 483.367 196.965 484.135 197.328C484.903 197.691 485.511 198.288 485.959 199.12C486.407 199.952 486.631 201.061 486.631 202.448V214H482.727V203.248C482.727 202.672 482.663 202.192 482.535 201.808C482.407 201.403 482.226 201.093 481.991 200.88C481.778 200.645 481.501 200.475 481.159 200.368C480.839 200.261 480.487 200.208 480.103 200.208C479.485 200.208 478.93 200.379 478.439 200.72C477.949 201.061 477.554 201.531 477.255 202.128C476.978 202.725 476.839 203.419 476.839 204.208V214H472.935V203.248C472.935 202.672 472.871 202.192 472.743 201.808C472.615 201.403 472.434 201.093 472.199 200.88C471.986 200.645 471.709 200.475 471.367 200.368C471.047 200.261 470.695 200.208 470.311 200.208C469.693 200.208 469.127 200.379 468.615 200.72C468.125 201.061 467.73 201.531 467.431 202.128C467.154 202.725 467.015 203.419 467.015 204.208V214H463.111ZM497.906 214.384C496.114 214.384 494.62 214.075 493.426 213.456C492.231 212.816 491.335 211.845 490.738 210.544C490.14 209.243 489.842 207.589 489.842 205.584C489.842 203.557 490.14 201.904 490.738 200.624C491.335 199.323 492.231 198.363 493.426 197.744C494.62 197.104 496.114 196.784 497.906 196.784C499.527 196.784 500.882 197.093 501.97 197.712C503.079 198.309 503.911 199.237 504.466 200.496C505.02 201.755 505.298 203.387 505.298 205.392V206.544H493.842C493.884 207.589 494.044 208.475 494.322 209.2C494.599 209.904 495.026 210.437 495.602 210.8C496.199 211.141 496.978 211.312 497.938 211.312C498.428 211.312 498.887 211.248 499.314 211.12C499.74 210.992 500.114 210.8 500.434 210.544C500.754 210.267 500.999 209.925 501.17 209.52C501.362 209.115 501.458 208.645 501.458 208.112H505.298C505.298 209.179 505.106 210.107 504.722 210.896C504.359 211.685 503.836 212.336 503.154 212.848C502.492 213.36 501.714 213.744 500.818 214C499.922 214.256 498.951 214.384 497.906 214.384ZM493.906 203.792H501.234C501.234 203.088 501.148 202.491 500.978 202C500.828 201.509 500.604 201.104 500.306 200.784C500.028 200.464 499.687 200.24 499.282 200.112C498.876 199.963 498.418 199.888 497.906 199.888C497.074 199.888 496.37 200.027 495.794 200.304C495.239 200.581 494.812 201.008 494.514 201.584C494.215 202.16 494.012 202.896 493.906 203.792ZM514.467 214.384C513.102 214.384 511.918 214.075 510.915 213.456C509.913 212.837 509.134 211.877 508.579 210.576C508.046 209.275 507.779 207.6 507.779 205.552C507.779 203.525 508.057 201.872 508.611 200.592C509.166 199.291 509.934 198.331 510.915 197.712C511.897 197.093 513.006 196.784 514.243 196.784C515.011 196.784 515.715 196.869 516.355 197.04C516.995 197.211 517.561 197.477 518.051 197.84C518.542 198.181 518.958 198.608 519.299 199.12H519.491V190.864H523.395V214H520.163L519.843 211.76H519.619C519.086 212.635 518.361 213.296 517.443 213.744C516.547 214.171 515.555 214.384 514.467 214.384ZM515.683 211.024C516.579 211.024 517.305 210.821 517.859 210.416C518.414 210.011 518.819 209.424 519.075 208.656C519.353 207.888 519.491 206.949 519.491 205.84V205.424C519.491 204.592 519.417 203.845 519.267 203.184C519.118 202.523 518.883 201.968 518.563 201.52C518.265 201.072 517.87 200.731 517.379 200.496C516.91 200.261 516.345 200.144 515.683 200.144C514.723 200.144 513.955 200.336 513.379 200.72C512.825 201.083 512.419 201.659 512.163 202.448C511.929 203.216 511.811 204.197 511.811 205.392V205.84C511.811 207.013 511.929 207.984 512.163 208.752C512.419 209.52 512.825 210.096 513.379 210.48C513.955 210.843 514.723 211.024 515.683 211.024ZM527.549 194.576V190.864H531.453V194.576H527.549ZM527.549 214V197.168H531.453V214H527.549ZM542.843 214.384C541.051 214.384 539.558 214.075 538.363 213.456C537.169 212.816 536.273 211.845 535.675 210.544C535.078 209.243 534.779 207.589 534.779 205.584C534.779 203.557 535.078 201.904 535.675 200.624C536.273 199.323 537.169 198.363 538.363 197.744C539.558 197.104 541.051 196.784 542.843 196.784C544.465 196.784 545.819 197.093 546.907 197.712C548.017 198.309 548.849 199.237 549.403 200.496C549.958 201.755 550.235 203.387 550.235 205.392V206.544H538.779C538.822 207.589 538.982 208.475 539.259 209.2C539.537 209.904 539.963 210.437 540.539 210.8C541.137 211.141 541.915 211.312 542.875 211.312C543.366 211.312 543.825 211.248 544.251 211.12C544.678 210.992 545.051 210.8 545.371 210.544C545.691 210.267 545.937 209.925 546.107 209.52C546.299 209.115 546.395 208.645 546.395 208.112H550.235C550.235 209.179 550.043 210.107 549.659 210.896C549.297 211.685 548.774 212.336 548.091 212.848C547.43 213.36 546.651 213.744 545.755 214C544.859 214.256 543.889 214.384 542.843 214.384ZM538.843 203.792H546.171C546.171 203.088 546.086 202.491 545.915 202C545.766 201.509 545.542 201.104 545.243 200.784C544.966 200.464 544.625 200.24 544.219 200.112C543.814 199.963 543.355 199.888 542.843 199.888C542.011 199.888 541.307 200.027 540.731 200.304C540.177 200.581 539.75 201.008 539.451 201.584C539.153 202.16 538.95 202.896 538.843 203.792ZM553.549 214V197.168H556.813L557.133 199.824H557.357C557.57 199.291 557.826 198.8 558.125 198.352C558.445 197.883 558.85 197.509 559.341 197.232C559.831 196.933 560.429 196.784 561.133 196.784C561.474 196.784 561.783 196.816 562.061 196.88C562.359 196.944 562.583 197.008 562.733 197.072V200.752H561.549C560.887 200.752 560.301 200.848 559.789 201.04C559.277 201.211 558.839 201.488 558.477 201.872C558.135 202.256 557.879 202.736 557.709 203.312C557.538 203.888 557.453 204.56 557.453 205.328V214H553.549ZM562.283 214V209.904H566.347V214H562.283Z" fill="#D1ECEF"/>
</svg>
