<svg width="659" height="338" viewBox="0 0 659 338" fill="none" xmlns="http://www.w3.org/2000/svg">
<ellipse cx="329.5" cy="169" rx="329.5" ry="169" fill="#273AAA"/>
<path d="M140.226 136V126.4H120.45V119.296C122.114 116.651 123.671 113.856 125.122 110.912C126.572 107.968 127.916 104.853 129.154 101.568C130.434 98.2827 131.5 94.8693 132.354 91.328H141.506C141.036 93.376 140.375 95.5307 139.522 97.792C138.711 100.053 137.772 102.293 136.706 104.512C135.639 106.731 134.551 108.821 133.442 110.784C132.375 112.704 131.351 114.411 130.37 115.904C129.388 117.397 128.556 118.528 127.874 119.296H140.226V108.672C140.652 107.861 141.079 106.987 141.506 106.048C141.975 105.067 142.423 104.085 142.85 103.104C143.276 102.08 143.66 101.077 144.002 100.096C144.386 99.1147 144.684 98.1973 144.898 97.344H148.994V119.296H154.626V126.4H148.994V136H140.226ZM178.413 136V126.4H158.637V119.296C160.301 116.651 161.859 113.856 163.309 110.912C164.76 107.968 166.104 104.853 167.341 101.568C168.621 98.2827 169.688 94.8693 170.541 91.328H179.693C179.224 93.376 178.563 95.5307 177.709 97.792C176.899 100.053 175.96 102.293 174.893 104.512C173.827 106.731 172.739 108.821 171.629 110.784C170.563 112.704 169.539 114.411 168.557 115.904C167.576 117.397 166.744 118.528 166.061 119.296H178.413V108.672C178.84 107.861 179.267 106.987 179.693 106.048C180.163 105.067 180.611 104.085 181.037 103.104C181.464 102.08 181.848 101.077 182.189 100.096C182.573 99.1147 182.872 98.1973 183.085 97.344H187.181V119.296H192.813V126.4H187.181V136H178.413ZM211.627 147.392V102.336H218.923L219.691 106.88H220.139C221.249 105.045 222.699 103.701 224.491 102.848C226.283 101.995 228.267 101.568 230.443 101.568C233.259 101.568 235.67 102.187 237.675 103.424C239.723 104.661 241.281 106.581 242.347 109.184C243.457 111.787 244.011 115.136 244.011 119.232C244.011 123.2 243.457 126.485 242.347 129.088C241.238 131.691 239.681 133.632 237.675 134.912C235.713 136.149 233.409 136.768 230.763 136.768C229.313 136.768 227.969 136.597 226.731 136.256C225.494 135.957 224.385 135.467 223.403 134.784C222.422 134.101 221.59 133.269 220.907 132.288H220.523V147.392H211.627ZM227.691 129.472C229.483 129.472 230.891 129.131 231.915 128.448C232.982 127.723 233.75 126.656 234.219 125.248C234.689 123.797 234.923 122.027 234.923 119.936V118.464C234.923 116.331 234.689 114.56 234.219 113.152C233.75 111.701 232.982 110.635 231.915 109.952C230.891 109.227 229.483 108.864 227.691 108.864C226.027 108.864 224.662 109.248 223.595 110.016C222.529 110.784 221.739 111.893 221.227 113.344C220.715 114.795 220.459 116.544 220.459 118.592V119.68C220.459 121.173 220.609 122.539 220.907 123.776C221.206 124.971 221.633 125.995 222.187 126.848C222.785 127.701 223.531 128.363 224.427 128.832C225.323 129.259 226.411 129.472 227.691 129.472ZM250.565 136V102.336H257.925L258.629 107.584H259.077C259.503 106.475 260.058 105.472 260.741 104.576C261.423 103.637 262.277 102.891 263.301 102.336C264.325 101.781 265.519 101.504 266.885 101.504C267.61 101.504 268.271 101.589 268.869 101.76C269.466 101.888 269.914 102.016 270.213 102.144V110.208H267.461C266.138 110.208 264.965 110.4 263.941 110.784C262.959 111.125 262.127 111.68 261.445 112.448C260.762 113.216 260.25 114.155 259.909 115.264C259.61 116.373 259.461 117.675 259.461 119.168V136H250.565ZM289.74 136.768C286.071 136.768 282.956 136.149 280.396 134.912C277.836 133.632 275.895 131.691 274.572 129.088C273.25 126.443 272.588 123.136 272.588 119.168C272.588 115.115 273.25 111.808 274.572 109.248C275.895 106.645 277.836 104.725 280.396 103.488C282.956 102.208 286.071 101.568 289.74 101.568C293.495 101.568 296.631 102.208 299.148 103.488C301.708 104.725 303.65 106.645 304.972 109.248C306.295 111.808 306.956 115.115 306.956 119.168C306.956 123.136 306.295 126.443 304.972 129.088C303.65 131.691 301.708 133.632 299.148 134.912C296.631 136.149 293.495 136.768 289.74 136.768ZM289.74 129.856C291.703 129.856 293.26 129.493 294.412 128.768C295.607 128.043 296.482 126.933 297.036 125.44C297.591 123.947 297.868 122.112 297.868 119.936V118.4C297.868 116.224 297.591 114.389 297.036 112.896C296.482 111.403 295.607 110.293 294.412 109.568C293.26 108.8 291.703 108.416 289.74 108.416C287.82 108.416 286.263 108.8 285.068 109.568C283.916 110.293 283.063 111.403 282.508 112.896C281.954 114.389 281.676 116.224 281.676 118.4V119.936C281.676 122.112 281.954 123.947 282.508 125.44C283.063 126.933 283.916 128.043 285.068 128.768C286.263 129.493 287.82 129.856 289.74 129.856ZM328.286 136.768C324.702 136.768 321.694 136.149 319.262 134.912C316.83 133.632 314.974 131.691 313.694 129.088C312.457 126.443 311.838 123.136 311.838 119.168C311.838 115.115 312.457 111.808 313.694 109.248C314.974 106.645 316.83 104.704 319.262 103.424C321.737 102.144 324.745 101.504 328.286 101.504C330.59 101.504 332.66 101.781 334.494 102.336C336.372 102.891 337.993 103.744 339.358 104.896C340.724 106.048 341.748 107.477 342.43 109.184C343.156 110.848 343.518 112.832 343.518 115.136H334.622C334.622 113.6 334.388 112.341 333.918 111.36C333.449 110.379 332.724 109.632 331.742 109.12C330.804 108.608 329.609 108.352 328.158 108.352C326.452 108.352 325.065 108.736 323.998 109.504C322.932 110.272 322.142 111.403 321.63 112.896C321.118 114.389 320.862 116.245 320.862 118.464V119.936C320.862 122.112 321.118 123.947 321.63 125.44C322.185 126.933 323.017 128.064 324.126 128.832C325.236 129.557 326.686 129.92 328.478 129.92C329.929 129.92 331.124 129.664 332.062 129.152C333.044 128.64 333.79 127.872 334.302 126.848C334.814 125.824 335.07 124.587 335.07 123.136H343.518C343.518 125.312 343.156 127.253 342.43 128.96C341.748 130.667 340.724 132.096 339.358 133.248C338.036 134.4 336.436 135.275 334.558 135.872C332.681 136.469 330.59 136.768 328.286 136.768ZM365.486 136.768C361.774 136.768 358.659 136.149 356.142 134.912C353.624 133.632 351.726 131.691 350.446 129.088C349.166 126.485 348.526 123.179 348.526 119.168C348.526 115.115 349.166 111.808 350.446 109.248C351.726 106.645 353.603 104.725 356.078 103.488C358.595 102.208 361.667 101.568 365.294 101.568C368.707 101.568 371.587 102.187 373.934 103.424C376.28 104.619 378.051 106.496 379.246 109.056C380.44 111.573 381.038 114.837 381.038 118.848V121.152H357.55C357.635 123.115 357.934 124.779 358.446 126.144C359 127.509 359.832 128.533 360.942 129.216C362.094 129.856 363.608 130.176 365.486 130.176C366.51 130.176 367.427 130.048 368.238 129.792C369.091 129.536 369.816 129.152 370.414 128.64C371.011 128.128 371.48 127.488 371.822 126.72C372.163 125.952 372.334 125.077 372.334 124.096H381.038C381.038 126.229 380.654 128.085 379.886 129.664C379.118 131.243 378.051 132.565 376.686 133.632C375.32 134.656 373.678 135.445 371.758 136C369.88 136.512 367.79 136.768 365.486 136.768ZM357.678 115.52H371.886C371.886 114.24 371.715 113.131 371.374 112.192C371.075 111.253 370.648 110.485 370.094 109.888C369.539 109.291 368.856 108.864 368.046 108.608C367.278 108.309 366.403 108.16 365.422 108.16C363.8 108.16 362.435 108.437 361.326 108.992C360.259 109.504 359.427 110.315 358.83 111.424C358.275 112.491 357.891 113.856 357.678 115.52ZM387.565 136V102.336H394.925L395.629 106.944H396.077C396.845 105.835 397.762 104.875 398.829 104.064C399.938 103.253 401.175 102.635 402.541 102.208C403.906 101.781 405.399 101.568 407.021 101.568C409.239 101.568 411.181 101.973 412.845 102.784C414.509 103.595 415.789 104.875 416.685 106.624C417.623 108.373 418.093 110.656 418.093 113.472V136H409.197V114.88C409.197 113.813 409.069 112.917 408.813 112.192C408.557 111.424 408.173 110.805 407.661 110.336C407.191 109.824 406.594 109.461 405.869 109.248C405.143 109.035 404.333 108.928 403.437 108.928C402.114 108.928 400.919 109.248 399.853 109.888C398.786 110.528 397.954 111.403 397.357 112.512C396.759 113.621 396.461 114.901 396.461 116.352V136H387.565ZM436.113 136.768C433.979 136.768 432.251 136.384 430.929 135.616C429.606 134.848 428.646 133.824 428.049 132.544C427.451 131.221 427.153 129.771 427.153 128.192V109.184H422.993V102.336H427.473L429.137 92.736H436.049V102.336H442.193V109.184H436.049V126.72C436.049 127.744 436.283 128.533 436.753 129.088C437.222 129.6 437.99 129.856 439.057 129.856H442.193V135.744C441.681 135.915 441.083 136.064 440.401 136.192C439.718 136.363 438.993 136.491 438.225 136.576C437.457 136.704 436.753 136.768 436.113 136.768ZM90.8241 181.384C90.2695 181.384 89.6721 181.32 89.0321 181.192C88.4135 181.064 87.8268 180.84 87.2721 180.52C86.7175 180.179 86.2588 179.699 85.8961 179.08C85.5548 178.44 85.3841 177.629 85.3841 176.648C85.3841 175.475 85.6401 174.504 86.1521 173.736C86.6641 172.968 87.3895 172.371 88.3281 171.944C89.2881 171.496 90.4295 171.187 91.7521 171.016C93.0748 170.845 94.5361 170.76 96.1361 170.76V169.512C96.1361 169.021 96.0508 168.595 95.8801 168.232C95.7308 167.869 95.4535 167.581 95.0481 167.368C94.6641 167.155 94.1201 167.048 93.4161 167.048C92.7121 167.048 92.1361 167.133 91.6881 167.304C91.2615 167.475 90.9521 167.699 90.7601 167.976C90.5895 168.232 90.5041 168.52 90.5041 168.84V169.224H86.1841C86.1628 169.117 86.1521 169.021 86.1521 168.936C86.1521 168.829 86.1521 168.701 86.1521 168.552C86.1521 167.571 86.4508 166.728 87.0481 166.024C87.6455 165.299 88.4881 164.744 89.5761 164.36C90.6641 163.976 91.9335 163.784 93.3841 163.784C94.9415 163.784 96.2428 163.987 97.2881 164.392C98.3548 164.797 99.1655 165.395 99.7201 166.184C100.296 166.973 100.584 167.965 100.584 169.16V176.808C100.584 177.192 100.691 177.48 100.904 177.672C101.139 177.843 101.395 177.928 101.672 177.928H102.728V180.84C102.515 180.947 102.184 181.053 101.736 181.16C101.288 181.288 100.744 181.352 100.104 181.352C99.4855 181.352 98.9308 181.256 98.4401 181.064C97.9708 180.893 97.5761 180.648 97.2561 180.328C96.9361 179.987 96.7121 179.581 96.5841 179.112H96.3601C95.9975 179.56 95.5495 179.955 95.0161 180.296C94.5041 180.637 93.8961 180.904 93.1921 181.096C92.5095 181.288 91.7201 181.384 90.8241 181.384ZM92.3281 178.024C92.9255 178.024 93.4588 177.939 93.9281 177.768C94.3975 177.576 94.7921 177.331 95.1121 177.032C95.4321 176.712 95.6775 176.328 95.8481 175.88C96.0401 175.432 96.1361 174.952 96.1361 174.44V173.512C94.9415 173.512 93.8748 173.597 92.9361 173.768C91.9975 173.917 91.2508 174.184 90.6961 174.568C90.1628 174.952 89.8961 175.485 89.8961 176.168C89.8961 176.552 89.9921 176.883 90.1841 177.16C90.3761 177.437 90.6535 177.651 91.0161 177.8C91.3788 177.949 91.8161 178.024 92.3281 178.024ZM105.707 181V167.592H103.307V164.168H105.707V162.312C105.707 161.395 105.856 160.584 106.155 159.88C106.475 159.155 106.976 158.589 107.659 158.184C108.341 157.779 109.248 157.576 110.379 157.576C110.699 157.576 111.029 157.597 111.371 157.64C111.733 157.683 112.075 157.747 112.395 157.832C112.736 157.896 113.024 157.971 113.259 158.056V161H111.659C111.147 161 110.763 161.128 110.507 161.384C110.272 161.64 110.155 162.013 110.155 162.504V164.168H113.259V167.592H110.155V181H105.707ZM127.066 181.384C125.359 181.384 124.005 180.915 123.002 179.976C121.999 179.037 121.498 177.523 121.498 175.432V164.168H125.946V174.696C125.946 175.251 126.01 175.72 126.138 176.104C126.266 176.467 126.447 176.765 126.682 177C126.938 177.235 127.247 177.405 127.61 177.512C127.973 177.619 128.378 177.672 128.826 177.672C129.487 177.672 130.085 177.512 130.618 177.192C131.151 176.872 131.567 176.435 131.866 175.88C132.165 175.304 132.314 174.664 132.314 173.96V164.168H136.762V181H133.114L132.794 178.696H132.57C132.165 179.229 131.685 179.699 131.13 180.104C130.597 180.509 129.989 180.819 129.306 181.032C128.623 181.267 127.877 181.384 127.066 181.384ZM140.845 181V164.168H144.525L144.877 166.472H145.101C145.485 165.917 145.944 165.437 146.477 165.032C147.032 164.627 147.65 164.317 148.333 164.104C149.016 163.891 149.762 163.784 150.573 163.784C151.682 163.784 152.653 163.987 153.485 164.392C154.317 164.797 154.957 165.437 155.405 166.312C155.874 167.187 156.109 168.328 156.109 169.736V181H151.661V170.44C151.661 169.907 151.597 169.459 151.469 169.096C151.341 168.712 151.149 168.403 150.893 168.168C150.658 167.912 150.36 167.731 149.997 167.624C149.634 167.517 149.229 167.464 148.781 167.464C148.12 167.464 147.522 167.624 146.989 167.944C146.456 168.264 146.04 168.701 145.741 169.256C145.442 169.811 145.293 170.451 145.293 171.176V181H140.845ZM162.847 187.016C162.1 187.016 161.396 186.856 160.735 186.536C160.074 186.237 159.54 185.789 159.135 185.192C158.73 184.595 158.527 183.88 158.527 183.048C158.527 182.109 158.794 181.363 159.327 180.808C159.882 180.232 160.5 179.805 161.183 179.528C160.692 179.251 160.287 178.888 159.967 178.44C159.668 177.992 159.519 177.469 159.519 176.872C159.519 176.04 159.818 175.368 160.415 174.856C161.034 174.323 161.738 173.981 162.527 173.832C161.738 173.341 161.119 172.723 160.671 171.976C160.244 171.208 160.031 170.355 160.031 169.416C160.031 168.2 160.33 167.176 160.927 166.344C161.546 165.512 162.42 164.883 163.551 164.456C164.703 164.008 166.058 163.784 167.615 163.784C168.234 163.784 168.81 163.816 169.343 163.88C169.898 163.944 170.399 164.051 170.847 164.2C171.636 163.731 172.17 163.219 172.447 162.664C172.746 162.088 172.906 161.629 172.927 161.288H177.055C177.055 162.077 176.906 162.76 176.607 163.336C176.33 163.912 175.924 164.392 175.391 164.776C174.858 165.139 174.218 165.405 173.471 165.576C174.026 166.045 174.452 166.611 174.751 167.272C175.05 167.933 175.199 168.648 175.199 169.416C175.199 170.611 174.911 171.635 174.335 172.488C173.759 173.32 172.938 173.96 171.871 174.408C170.826 174.856 169.567 175.08 168.095 175.08H165.535C165.023 175.08 164.639 175.176 164.383 175.368C164.127 175.539 163.999 175.795 163.999 176.136C163.999 176.413 164.106 176.659 164.319 176.872C164.554 177.064 164.927 177.16 165.439 177.16H172.447C173.855 177.16 174.975 177.597 175.807 178.472C176.66 179.325 177.087 180.424 177.087 181.768C177.087 182.792 176.82 183.699 176.287 184.488C175.754 185.277 175.018 185.896 174.079 186.344C173.14 186.792 172.063 187.016 170.847 187.016H162.847ZM164.703 184.04H170.623C171.007 184.04 171.348 183.965 171.647 183.816C171.946 183.688 172.18 183.496 172.351 183.24C172.522 183.005 172.607 182.728 172.607 182.408C172.607 181.853 172.436 181.437 172.095 181.16C171.754 180.883 171.327 180.744 170.815 180.744H164.703C164.191 180.744 163.764 180.893 163.423 181.192C163.103 181.491 162.943 181.885 162.943 182.376C162.943 182.867 163.103 183.261 163.423 183.56C163.764 183.88 164.191 184.04 164.703 184.04ZM167.615 172.2C168.66 172.2 169.45 171.965 169.983 171.496C170.538 171.005 170.815 170.312 170.815 169.416C170.815 168.52 170.538 167.837 169.983 167.368C169.45 166.877 168.66 166.632 167.615 166.632C166.591 166.632 165.802 166.877 165.247 167.368C164.714 167.837 164.447 168.52 164.447 169.416C164.447 169.992 164.564 170.493 164.799 170.92C165.034 171.347 165.386 171.667 165.855 171.88C166.324 172.093 166.911 172.2 167.615 172.2ZM187.18 181.384C185.324 181.384 183.767 181.075 182.508 180.456C181.25 179.816 180.3 178.845 179.66 177.544C179.02 176.243 178.7 174.589 178.7 172.584C178.7 170.557 179.02 168.904 179.66 167.624C180.3 166.323 181.239 165.363 182.476 164.744C183.735 164.104 185.271 163.784 187.084 163.784C188.791 163.784 190.231 164.093 191.404 164.712C192.578 165.309 193.463 166.248 194.06 167.528C194.658 168.787 194.956 170.419 194.956 172.424V173.576H183.212C183.255 174.557 183.404 175.389 183.66 176.072C183.938 176.755 184.354 177.267 184.908 177.608C185.484 177.928 186.242 178.088 187.18 178.088C187.692 178.088 188.151 178.024 188.556 177.896C188.983 177.768 189.346 177.576 189.644 177.32C189.943 177.064 190.178 176.744 190.348 176.36C190.519 175.976 190.604 175.539 190.604 175.048H194.956C194.956 176.115 194.764 177.043 194.38 177.832C193.996 178.621 193.463 179.283 192.78 179.816C192.098 180.328 191.276 180.723 190.316 181C189.378 181.256 188.332 181.384 187.18 181.384ZM183.276 170.76H190.38C190.38 170.12 190.295 169.565 190.124 169.096C189.975 168.627 189.762 168.243 189.484 167.944C189.207 167.645 188.866 167.432 188.46 167.304C188.076 167.155 187.639 167.08 187.148 167.08C186.338 167.08 185.655 167.219 185.1 167.496C184.567 167.752 184.151 168.157 183.852 168.712C183.575 169.245 183.383 169.928 183.276 170.76ZM204.501 181V164.168H208.181L208.533 166.472H208.757C209.12 165.917 209.546 165.437 210.037 165.032C210.549 164.627 211.114 164.317 211.733 164.104C212.373 163.891 213.056 163.784 213.781 163.784C214.848 163.784 215.765 163.997 216.533 164.424C217.322 164.851 217.93 165.533 218.357 166.472H218.581C218.944 165.917 219.381 165.437 219.893 165.032C220.405 164.627 220.992 164.317 221.653 164.104C222.314 163.891 223.018 163.784 223.765 163.784C224.832 163.784 225.749 163.976 226.517 164.36C227.306 164.744 227.925 165.373 228.373 166.248C228.821 167.101 229.045 168.211 229.045 169.576V181H224.597V170.376C224.597 169.843 224.533 169.395 224.405 169.032C224.298 168.648 224.138 168.349 223.925 168.136C223.712 167.901 223.445 167.731 223.125 167.624C222.805 167.517 222.464 167.464 222.101 167.464C221.504 167.464 220.97 167.624 220.501 167.944C220.032 168.264 219.658 168.701 219.381 169.256C219.125 169.811 218.997 170.451 218.997 171.176V181H214.549V170.376C214.549 169.843 214.485 169.395 214.357 169.032C214.25 168.648 214.09 168.349 213.877 168.136C213.664 167.901 213.397 167.731 213.077 167.624C212.778 167.517 212.437 167.464 212.053 167.464C211.477 167.464 210.944 167.624 210.453 167.944C209.984 168.264 209.61 168.701 209.333 169.256C209.077 169.811 208.949 170.451 208.949 171.176V181H204.501ZM240.649 181.384C238.793 181.384 237.236 181.075 235.977 180.456C234.718 179.816 233.769 178.845 233.129 177.544C232.489 176.243 232.169 174.589 232.169 172.584C232.169 170.557 232.489 168.904 233.129 167.624C233.769 166.323 234.708 165.363 235.945 164.744C237.204 164.104 238.74 163.784 240.553 163.784C242.26 163.784 243.7 164.093 244.873 164.712C246.046 165.309 246.932 166.248 247.529 167.528C248.126 168.787 248.425 170.419 248.425 172.424V173.576H236.681C236.724 174.557 236.873 175.389 237.129 176.072C237.406 176.755 237.822 177.267 238.377 177.608C238.953 177.928 239.71 178.088 240.649 178.088C241.161 178.088 241.62 178.024 242.025 177.896C242.452 177.768 242.814 177.576 243.113 177.32C243.412 177.064 243.646 176.744 243.817 176.36C243.988 175.976 244.073 175.539 244.073 175.048H248.425C248.425 176.115 248.233 177.043 247.849 177.832C247.465 178.621 246.932 179.283 246.249 179.816C245.566 180.328 244.745 180.723 243.785 181C242.846 181.256 241.801 181.384 240.649 181.384ZM236.745 170.76H243.849C243.849 170.12 243.764 169.565 243.593 169.096C243.444 168.627 243.23 168.243 242.953 167.944C242.676 167.645 242.334 167.432 241.929 167.304C241.545 167.155 241.108 167.08 240.617 167.08C239.806 167.08 239.124 167.219 238.569 167.496C238.036 167.752 237.62 168.157 237.321 168.712C237.044 169.245 236.852 169.928 236.745 170.76ZM251.689 181V157.864H256.137V181H251.689ZM260.22 181V157.864H264.668V181H260.22ZM276.399 181.384C274.543 181.384 272.986 181.075 271.727 180.456C270.468 179.816 269.519 178.845 268.879 177.544C268.239 176.243 267.919 174.589 267.919 172.584C267.919 170.557 268.239 168.904 268.879 167.624C269.519 166.323 270.458 165.363 271.695 164.744C272.954 164.104 274.49 163.784 276.303 163.784C278.01 163.784 279.45 164.093 280.623 164.712C281.796 165.309 282.682 166.248 283.279 167.528C283.876 168.787 284.175 170.419 284.175 172.424V173.576H272.431C272.474 174.557 272.623 175.389 272.879 176.072C273.156 176.755 273.572 177.267 274.127 177.608C274.703 177.928 275.46 178.088 276.399 178.088C276.911 178.088 277.37 178.024 277.775 177.896C278.202 177.768 278.564 177.576 278.863 177.32C279.162 177.064 279.396 176.744 279.567 176.36C279.738 175.976 279.823 175.539 279.823 175.048H284.175C284.175 176.115 283.983 177.043 283.599 177.832C283.215 178.621 282.682 179.283 281.999 179.816C281.316 180.328 280.495 180.723 279.535 181C278.596 181.256 277.551 181.384 276.399 181.384ZM272.495 170.76H279.599C279.599 170.12 279.514 169.565 279.343 169.096C279.194 168.627 278.98 168.243 278.703 167.944C278.426 167.645 278.084 167.432 277.679 167.304C277.295 167.155 276.858 167.08 276.367 167.08C275.556 167.08 274.874 167.219 274.319 167.496C273.786 167.752 273.37 168.157 273.071 168.712C272.794 169.245 272.602 169.928 272.495 170.76ZM287.439 181V164.168H291.119L291.471 166.472H291.695C292.057 165.917 292.484 165.437 292.975 165.032C293.487 164.627 294.052 164.317 294.671 164.104C295.311 163.891 295.993 163.784 296.719 163.784C297.785 163.784 298.703 163.997 299.471 164.424C300.26 164.851 300.868 165.533 301.295 166.472H301.519C301.881 165.917 302.319 165.437 302.831 165.032C303.343 164.627 303.929 164.317 304.591 164.104C305.252 163.891 305.956 163.784 306.703 163.784C307.769 163.784 308.687 163.976 309.455 164.36C310.244 164.744 310.863 165.373 311.311 166.248C311.759 167.101 311.983 168.211 311.983 169.576V181H307.535V170.376C307.535 169.843 307.471 169.395 307.343 169.032C307.236 168.648 307.076 168.349 306.863 168.136C306.649 167.901 306.383 167.731 306.063 167.624C305.743 167.517 305.401 167.464 305.039 167.464C304.441 167.464 303.908 167.624 303.439 167.944C302.969 168.264 302.596 168.701 302.319 169.256C302.063 169.811 301.935 170.451 301.935 171.176V181H297.487V170.376C297.487 169.843 297.423 169.395 297.295 169.032C297.188 168.648 297.028 168.349 296.815 168.136C296.601 167.901 296.335 167.731 296.015 167.624C295.716 167.517 295.375 167.464 294.991 167.464C294.415 167.464 293.881 167.624 293.391 167.944C292.921 168.264 292.548 168.701 292.271 169.256C292.015 169.811 291.887 170.451 291.887 171.176V181H287.439ZM323.372 181V177.416H328.62V164.456H323.34V161.768C324.044 161.704 324.855 161.544 325.772 161.288C326.711 161.011 327.649 160.68 328.588 160.296C329.527 159.891 330.369 159.464 331.116 159.016H333.1V177.416H337.996V181H323.372ZM349.186 181.384C347.842 181.384 346.648 181.192 345.602 180.808C344.578 180.424 343.704 179.816 342.978 178.984C342.253 178.152 341.709 177.053 341.346 175.688C340.984 174.301 340.802 172.616 340.802 170.632C340.802 168.392 340.984 166.504 341.346 164.968C341.709 163.432 342.232 162.205 342.914 161.288C343.618 160.349 344.482 159.677 345.506 159.272C346.53 158.867 347.714 158.664 349.058 158.664C350.68 158.664 352.024 158.963 353.09 159.56C354.178 160.157 354.978 160.979 355.49 162.024C356.024 163.048 356.29 164.243 356.29 165.608H351.97C351.97 164.861 351.864 164.232 351.65 163.72C351.437 163.187 351.106 162.781 350.658 162.504C350.21 162.227 349.645 162.088 348.962 162.088C347.96 162.088 347.192 162.355 346.658 162.888C346.146 163.4 345.794 164.157 345.602 165.16C345.432 166.163 345.336 167.379 345.314 168.808C345.528 168.595 345.848 168.339 346.274 168.04C346.722 167.741 347.277 167.485 347.938 167.272C348.6 167.037 349.314 166.92 350.082 166.92C351.597 166.92 352.866 167.229 353.89 167.848C354.936 168.445 355.714 169.277 356.226 170.344C356.738 171.411 356.994 172.648 356.994 174.056C356.994 175.571 356.653 176.883 355.97 177.992C355.309 179.08 354.392 179.923 353.218 180.52C352.066 181.096 350.722 181.384 349.186 181.384ZM349.026 177.928C349.816 177.928 350.466 177.768 350.978 177.448C351.49 177.107 351.874 176.648 352.13 176.072C352.386 175.475 352.514 174.813 352.514 174.088C352.514 173.32 352.386 172.648 352.13 172.072C351.874 171.496 351.49 171.048 350.978 170.728C350.466 170.387 349.816 170.216 349.026 170.216C348.258 170.216 347.608 170.387 347.074 170.728C346.562 171.048 346.178 171.496 345.922 172.072C345.666 172.648 345.538 173.32 345.538 174.088C345.538 174.835 345.666 175.507 345.922 176.104C346.178 176.68 346.562 177.128 347.074 177.448C347.608 177.768 348.258 177.928 349.026 177.928ZM374.37 181.384C372.535 181.384 370.978 181.075 369.698 180.456C368.418 179.816 367.447 178.845 366.786 177.544C366.125 176.221 365.794 174.568 365.794 172.584C365.794 170.557 366.125 168.904 366.786 167.624C367.447 166.323 368.418 165.363 369.698 164.744C370.978 164.104 372.535 163.784 374.37 163.784C376.247 163.784 377.815 164.104 379.074 164.744C380.354 165.363 381.325 166.323 381.986 167.624C382.647 168.904 382.978 170.557 382.978 172.584C382.978 174.568 382.647 176.221 381.986 177.544C381.325 178.845 380.354 179.816 379.074 180.456C377.815 181.075 376.247 181.384 374.37 181.384ZM374.37 177.928C375.351 177.928 376.13 177.747 376.706 177.384C377.303 177.021 377.741 176.467 378.018 175.72C378.295 174.973 378.434 174.056 378.434 172.968V172.2C378.434 171.112 378.295 170.195 378.018 169.448C377.741 168.701 377.303 168.147 376.706 167.784C376.13 167.4 375.351 167.208 374.37 167.208C373.41 167.208 372.631 167.4 372.034 167.784C371.458 168.147 371.031 168.701 370.754 169.448C370.477 170.195 370.338 171.112 370.338 172.2V172.968C370.338 174.056 370.477 174.973 370.754 175.72C371.031 176.467 371.458 177.021 372.034 177.384C372.631 177.747 373.41 177.928 374.37 177.928ZM389.003 187.016C388.256 187.016 387.552 186.856 386.891 186.536C386.23 186.237 385.696 185.789 385.291 185.192C384.886 184.595 384.683 183.88 384.683 183.048C384.683 182.109 384.95 181.363 385.483 180.808C386.038 180.232 386.656 179.805 387.339 179.528C386.848 179.251 386.443 178.888 386.123 178.44C385.824 177.992 385.675 177.469 385.675 176.872C385.675 176.04 385.974 175.368 386.571 174.856C387.19 174.323 387.894 173.981 388.683 173.832C387.894 173.341 387.275 172.723 386.827 171.976C386.4 171.208 386.187 170.355 386.187 169.416C386.187 168.2 386.486 167.176 387.083 166.344C387.702 165.512 388.576 164.883 389.707 164.456C390.859 164.008 392.214 163.784 393.771 163.784C394.39 163.784 394.966 163.816 395.499 163.88C396.054 163.944 396.555 164.051 397.003 164.2C397.792 163.731 398.326 163.219 398.603 162.664C398.902 162.088 399.062 161.629 399.083 161.288H403.211C403.211 162.077 403.062 162.76 402.763 163.336C402.486 163.912 402.08 164.392 401.547 164.776C401.014 165.139 400.374 165.405 399.627 165.576C400.182 166.045 400.608 166.611 400.907 167.272C401.206 167.933 401.355 168.648 401.355 169.416C401.355 170.611 401.067 171.635 400.491 172.488C399.915 173.32 399.094 173.96 398.027 174.408C396.982 174.856 395.723 175.08 394.251 175.08H391.691C391.179 175.08 390.795 175.176 390.539 175.368C390.283 175.539 390.155 175.795 390.155 176.136C390.155 176.413 390.262 176.659 390.475 176.872C390.71 177.064 391.083 177.16 391.595 177.16H398.603C400.011 177.16 401.131 177.597 401.963 178.472C402.816 179.325 403.243 180.424 403.243 181.768C403.243 182.792 402.976 183.699 402.443 184.488C401.91 185.277 401.174 185.896 400.235 186.344C399.296 186.792 398.219 187.016 397.003 187.016H389.003ZM390.859 184.04H396.779C397.163 184.04 397.504 183.965 397.803 183.816C398.102 183.688 398.336 183.496 398.507 183.24C398.678 183.005 398.763 182.728 398.763 182.408C398.763 181.853 398.592 181.437 398.251 181.16C397.91 180.883 397.483 180.744 396.971 180.744H390.859C390.347 180.744 389.92 180.893 389.579 181.192C389.259 181.491 389.099 181.885 389.099 182.376C389.099 182.867 389.259 183.261 389.579 183.56C389.92 183.88 390.347 184.04 390.859 184.04ZM393.771 172.2C394.816 172.2 395.606 171.965 396.139 171.496C396.694 171.005 396.971 170.312 396.971 169.416C396.971 168.52 396.694 167.837 396.139 167.368C395.606 166.877 394.816 166.632 393.771 166.632C392.747 166.632 391.958 166.877 391.403 167.368C390.87 167.837 390.603 168.52 390.603 169.416C390.603 169.992 390.72 170.493 390.955 170.92C391.19 171.347 391.542 171.667 392.011 171.88C392.48 172.093 393.067 172.2 393.771 172.2ZM411.554 181V179.848C411.554 178.888 411.725 178.013 412.066 177.224C412.407 176.435 412.877 175.709 413.474 175.048C414.071 174.387 414.733 173.757 415.458 173.16C416.183 172.563 416.93 171.987 417.698 171.432C418.573 170.771 419.394 170.12 420.162 169.48C420.951 168.84 421.591 168.157 422.082 167.432C422.573 166.685 422.818 165.864 422.818 164.968C422.818 164.541 422.711 164.115 422.498 163.688C422.285 163.261 421.943 162.909 421.474 162.632C421.026 162.333 420.418 162.184 419.65 162.184C418.861 162.184 418.21 162.323 417.698 162.6C417.186 162.856 416.791 163.229 416.514 163.72C416.258 164.189 416.13 164.776 416.13 165.48V166.632H411.842C411.821 166.525 411.799 166.376 411.778 166.184C411.757 165.992 411.746 165.757 411.746 165.48C411.746 163.923 412.098 162.643 412.802 161.64C413.527 160.637 414.498 159.891 415.714 159.4C416.951 158.909 418.349 158.664 419.906 158.664C421.314 158.664 422.487 158.867 423.426 159.272C424.386 159.656 425.154 160.179 425.73 160.84C426.306 161.48 426.711 162.184 426.946 162.952C427.202 163.699 427.33 164.424 427.33 165.128C427.33 166.131 427.149 167.048 426.786 167.88C426.423 168.712 425.933 169.491 425.314 170.216C424.695 170.941 423.959 171.645 423.106 172.328C422.253 172.989 421.346 173.651 420.386 174.312C419.895 174.653 419.426 174.984 418.978 175.304C418.551 175.624 418.178 175.933 417.858 176.232C417.559 176.509 417.325 176.787 417.154 177.064H427.49V181H411.554ZM438.552 181.384C436.888 181.384 435.438 181.096 434.2 180.52C432.984 179.923 432.046 179.08 431.384 177.992C430.723 176.904 430.392 175.613 430.392 174.12H434.776C434.776 174.867 434.915 175.539 435.192 176.136C435.491 176.712 435.918 177.16 436.472 177.48C437.027 177.779 437.678 177.928 438.424 177.928C439.15 177.928 439.768 177.768 440.28 177.448C440.814 177.128 441.23 176.669 441.528 176.072C441.827 175.453 441.976 174.696 441.976 173.8C441.976 172.968 441.827 172.275 441.528 171.72C441.251 171.144 440.846 170.717 440.312 170.44C439.8 170.141 439.192 169.992 438.488 169.992C437.934 169.992 437.443 170.088 437.016 170.28C436.611 170.451 436.259 170.664 435.96 170.92C435.662 171.176 435.406 171.453 435.192 171.752L431.192 171.24L432.088 159.048H445.272V162.984H435.8L435.448 167.944C435.683 167.773 435.992 167.592 436.376 167.4C436.76 167.208 437.23 167.037 437.784 166.888C438.36 166.717 439.022 166.632 439.768 166.632C441.048 166.632 442.19 166.899 443.192 167.432C444.216 167.965 445.027 168.765 445.624 169.832C446.222 170.877 446.52 172.211 446.52 173.832C446.52 175.389 446.19 176.733 445.528 177.864C444.888 178.995 443.971 179.869 442.776 180.488C441.603 181.085 440.195 181.384 438.552 181.384ZM460.793 181.384C460.238 181.384 459.641 181.32 459.001 181.192C458.382 181.064 457.796 180.84 457.241 180.52C456.686 180.179 456.228 179.699 455.865 179.08C455.524 178.44 455.353 177.629 455.353 176.648C455.353 175.475 455.609 174.504 456.121 173.736C456.633 172.968 457.358 172.371 458.297 171.944C459.257 171.496 460.398 171.187 461.721 171.016C463.044 170.845 464.505 170.76 466.105 170.76V169.512C466.105 169.021 466.02 168.595 465.849 168.232C465.7 167.869 465.422 167.581 465.017 167.368C464.633 167.155 464.089 167.048 463.385 167.048C462.681 167.048 462.105 167.133 461.657 167.304C461.23 167.475 460.921 167.699 460.729 167.976C460.558 168.232 460.473 168.52 460.473 168.84V169.224H456.153C456.132 169.117 456.121 169.021 456.121 168.936C456.121 168.829 456.121 168.701 456.121 168.552C456.121 167.571 456.42 166.728 457.017 166.024C457.614 165.299 458.457 164.744 459.545 164.36C460.633 163.976 461.902 163.784 463.353 163.784C464.91 163.784 466.212 163.987 467.257 164.392C468.324 164.797 469.134 165.395 469.689 166.184C470.265 166.973 470.553 167.965 470.553 169.16V176.808C470.553 177.192 470.66 177.48 470.873 177.672C471.108 177.843 471.364 177.928 471.641 177.928H472.697V180.84C472.484 180.947 472.153 181.053 471.705 181.16C471.257 181.288 470.713 181.352 470.073 181.352C469.454 181.352 468.9 181.256 468.409 181.064C467.94 180.893 467.545 180.648 467.225 180.328C466.905 179.987 466.681 179.581 466.553 179.112H466.329C465.966 179.56 465.518 179.955 464.985 180.296C464.473 180.637 463.865 180.904 463.161 181.096C462.478 181.288 461.689 181.384 460.793 181.384ZM462.297 178.024C462.894 178.024 463.428 177.939 463.897 177.768C464.366 177.576 464.761 177.331 465.081 177.032C465.401 176.712 465.646 176.328 465.817 175.88C466.009 175.432 466.105 174.952 466.105 174.44V173.512C464.91 173.512 463.844 173.597 462.905 173.768C461.966 173.917 461.22 174.184 460.665 174.568C460.132 174.952 459.865 175.485 459.865 176.168C459.865 176.552 459.961 176.883 460.153 177.16C460.345 177.437 460.622 177.651 460.985 177.8C461.348 177.949 461.785 178.024 462.297 178.024ZM463.353 162.504C462.414 162.504 461.636 162.205 461.017 161.608C460.398 160.989 460.089 160.211 460.089 159.272C460.089 158.312 460.398 157.533 461.017 156.936C461.636 156.317 462.414 156.008 463.353 156.008C464.313 156.008 465.092 156.317 465.689 156.936C466.308 157.533 466.617 158.312 466.617 159.272C466.617 160.211 466.308 160.989 465.689 161.608C465.092 162.205 464.313 162.504 463.353 162.504ZM463.353 160.712C463.78 160.712 464.121 160.573 464.377 160.296C464.654 160.019 464.793 159.677 464.793 159.272C464.793 158.845 464.654 158.493 464.377 158.216C464.121 157.939 463.78 157.8 463.353 157.8C462.948 157.8 462.606 157.939 462.329 158.216C462.073 158.493 461.945 158.845 461.945 159.272C461.945 159.699 462.073 160.051 462.329 160.328C462.606 160.584 462.948 160.712 463.353 160.712ZM474.907 181V164.168H478.587L478.939 166.792H479.163C479.377 166.237 479.654 165.736 479.995 165.288C480.337 164.819 480.763 164.445 481.275 164.168C481.787 163.891 482.385 163.752 483.067 163.752C483.43 163.752 483.761 163.795 484.059 163.88C484.358 163.944 484.582 164.008 484.731 164.072V168.104H483.355C482.694 168.104 482.107 168.2 481.595 168.392C481.105 168.563 480.689 168.84 480.347 169.224C480.006 169.608 479.75 170.077 479.579 170.632C479.43 171.187 479.355 171.837 479.355 172.584V181H474.907ZM85.1358 226.384C83.3011 226.384 81.7438 226.075 80.4638 225.456C79.1838 224.816 78.2131 223.845 77.5518 222.544C76.8904 221.221 76.5598 219.568 76.5598 217.584C76.5598 215.557 76.8904 213.904 77.5518 212.624C78.2131 211.323 79.1838 210.363 80.4638 209.744C81.7438 209.104 83.3011 208.784 85.1358 208.784C87.0131 208.784 88.5811 209.104 89.8398 209.744C91.1198 210.363 92.0904 211.323 92.7518 212.624C93.4131 213.904 93.7438 215.557 93.7438 217.584C93.7438 219.568 93.4131 221.221 92.7518 222.544C92.0904 223.845 91.1198 224.816 89.8398 225.456C88.5811 226.075 87.0131 226.384 85.1358 226.384ZM85.1358 222.928C86.1171 222.928 86.8958 222.747 87.4718 222.384C88.0691 222.021 88.5064 221.467 88.7838 220.72C89.0611 219.973 89.1998 219.056 89.1998 217.968V217.2C89.1998 216.112 89.0611 215.195 88.7838 214.448C88.5064 213.701 88.0691 213.147 87.4718 212.784C86.8958 212.4 86.1171 212.208 85.1358 212.208C84.1758 212.208 83.3971 212.4 82.7998 212.784C82.2238 213.147 81.7971 213.701 81.5198 214.448C81.2424 215.195 81.1038 216.112 81.1038 217.2V217.968C81.1038 219.056 81.2424 219.973 81.5198 220.72C81.7971 221.467 82.2238 222.021 82.7998 222.384C83.3971 222.747 84.1758 222.928 85.1358 222.928ZM97.0168 231.696V209.168H100.665L101.049 211.44H101.273C101.827 210.523 102.553 209.851 103.449 209.424C104.345 208.997 105.337 208.784 106.425 208.784C107.833 208.784 109.038 209.093 110.041 209.712C111.065 210.331 111.843 211.291 112.377 212.592C112.931 213.893 113.209 215.568 113.209 217.616C113.209 219.6 112.931 221.243 112.377 222.544C111.822 223.845 111.043 224.816 110.041 225.456C109.059 226.075 107.907 226.384 106.585 226.384C105.859 226.384 105.187 226.299 104.569 226.128C103.95 225.979 103.395 225.733 102.905 225.392C102.414 225.051 101.998 224.635 101.657 224.144H101.465V231.696H97.0168ZM105.049 222.736C105.945 222.736 106.649 222.565 107.161 222.224C107.694 221.861 108.078 221.328 108.313 220.624C108.547 219.899 108.665 219.013 108.665 217.968V217.232C108.665 216.165 108.547 215.28 108.313 214.576C108.078 213.851 107.694 213.317 107.161 212.976C106.649 212.613 105.945 212.432 105.049 212.432C104.217 212.432 103.534 212.624 103.001 213.008C102.467 213.392 102.073 213.947 101.817 214.672C101.561 215.397 101.433 216.272 101.433 217.296V217.84C101.433 218.587 101.507 219.269 101.657 219.888C101.806 220.485 102.019 220.997 102.297 221.424C102.595 221.851 102.969 222.181 103.417 222.416C103.865 222.629 104.409 222.736 105.049 222.736ZM116.486 226V202.864H120.934V226H116.486ZM132.665 226.384C130.809 226.384 129.251 226.075 127.993 225.456C126.734 224.816 125.785 223.845 125.145 222.544C124.505 221.243 124.185 219.589 124.185 217.584C124.185 215.557 124.505 213.904 125.145 212.624C125.785 211.323 126.723 210.363 127.961 209.744C129.219 209.104 130.755 208.784 132.569 208.784C134.275 208.784 135.715 209.093 136.889 209.712C138.062 210.309 138.947 211.248 139.545 212.528C140.142 213.787 140.441 215.419 140.441 217.424V218.576H128.697C128.739 219.557 128.889 220.389 129.145 221.072C129.422 221.755 129.838 222.267 130.393 222.608C130.969 222.928 131.726 223.088 132.665 223.088C133.177 223.088 133.635 223.024 134.041 222.896C134.467 222.768 134.83 222.576 135.129 222.32C135.427 222.064 135.662 221.744 135.833 221.36C136.003 220.976 136.089 220.539 136.089 220.048H140.441C140.441 221.115 140.249 222.043 139.865 222.832C139.481 223.621 138.947 224.283 138.265 224.816C137.582 225.328 136.761 225.723 135.801 226C134.862 226.256 133.817 226.384 132.665 226.384ZM128.761 215.76H135.865C135.865 215.12 135.779 214.565 135.609 214.096C135.459 213.627 135.246 213.243 134.969 212.944C134.691 212.645 134.35 212.432 133.945 212.304C133.561 212.155 133.123 212.08 132.633 212.08C131.822 212.08 131.139 212.219 130.585 212.496C130.051 212.752 129.635 213.157 129.337 213.712C129.059 214.245 128.867 214.928 128.761 215.76ZM148.056 226L141.784 209.168H146.488L148.952 216.272C149.08 216.635 149.23 217.115 149.4 217.712C149.592 218.309 149.784 218.939 149.976 219.6C150.168 220.261 150.328 220.859 150.456 221.392H150.616C150.766 220.901 150.926 220.336 151.096 219.696C151.267 219.035 151.438 218.405 151.608 217.808C151.8 217.189 151.96 216.677 152.088 216.272L154.552 209.168H159.032L152.728 226H148.056ZM168.852 226.384C166.996 226.384 165.439 226.075 164.18 225.456C162.922 224.816 161.972 223.845 161.332 222.544C160.692 221.243 160.372 219.589 160.372 217.584C160.372 215.557 160.692 213.904 161.332 212.624C161.972 211.323 162.911 210.363 164.148 209.744C165.407 209.104 166.943 208.784 168.756 208.784C170.463 208.784 171.903 209.093 173.076 209.712C174.25 210.309 175.135 211.248 175.732 212.528C176.33 213.787 176.628 215.419 176.628 217.424V218.576H164.884C164.927 219.557 165.076 220.389 165.332 221.072C165.61 221.755 166.026 222.267 166.58 222.608C167.156 222.928 167.914 223.088 168.852 223.088C169.364 223.088 169.823 223.024 170.228 222.896C170.655 222.768 171.018 222.576 171.316 222.32C171.615 222.064 171.85 221.744 172.02 221.36C172.191 220.976 172.276 220.539 172.276 220.048H176.628C176.628 221.115 176.436 222.043 176.052 222.832C175.668 223.621 175.135 224.283 174.452 224.816C173.77 225.328 172.948 225.723 171.988 226C171.05 226.256 170.004 226.384 168.852 226.384ZM164.948 215.76H172.052C172.052 215.12 171.967 214.565 171.796 214.096C171.647 213.627 171.434 213.243 171.156 212.944C170.879 212.645 170.538 212.432 170.132 212.304C169.748 212.155 169.311 212.08 168.82 212.08C168.01 212.08 167.327 212.219 166.772 212.496C166.239 212.752 165.823 213.157 165.524 213.712C165.247 214.245 165.055 214.928 164.948 215.76ZM179.892 226V209.168H183.572L183.924 211.792H184.148C184.361 211.237 184.638 210.736 184.98 210.288C185.321 209.819 185.748 209.445 186.26 209.168C186.772 208.891 187.369 208.752 188.052 208.752C188.414 208.752 188.745 208.795 189.044 208.88C189.342 208.944 189.566 209.008 189.716 209.072V213.104H188.34C187.678 213.104 187.092 213.2 186.58 213.392C186.089 213.563 185.673 213.84 185.332 214.224C184.99 214.608 184.734 215.077 184.564 215.632C184.414 216.187 184.34 216.837 184.34 217.584V226H179.892ZM205.352 226.384C203.496 226.384 201.939 226.075 200.68 225.456C199.422 224.816 198.472 223.845 197.832 222.544C197.192 221.243 196.872 219.589 196.872 217.584C196.872 215.557 197.192 213.904 197.832 212.624C198.472 211.323 199.411 210.363 200.648 209.744C201.907 209.104 203.443 208.784 205.256 208.784C206.963 208.784 208.403 209.093 209.576 209.712C210.75 210.309 211.635 211.248 212.232 212.528C212.83 213.787 213.128 215.419 213.128 217.424V218.576H201.384C201.427 219.557 201.576 220.389 201.832 221.072C202.11 221.755 202.526 222.267 203.08 222.608C203.656 222.928 204.414 223.088 205.352 223.088C205.864 223.088 206.323 223.024 206.728 222.896C207.155 222.768 207.518 222.576 207.816 222.32C208.115 222.064 208.35 221.744 208.52 221.36C208.691 220.976 208.776 220.539 208.776 220.048H213.128C213.128 221.115 212.936 222.043 212.552 222.832C212.168 223.621 211.635 224.283 210.952 224.816C210.27 225.328 209.448 225.723 208.488 226C207.55 226.256 206.504 226.384 205.352 226.384ZM201.448 215.76H208.552C208.552 215.12 208.467 214.565 208.296 214.096C208.147 213.627 207.934 213.243 207.656 212.944C207.379 212.645 207.038 212.432 206.632 212.304C206.248 212.155 205.811 212.08 205.32 212.08C204.51 212.08 203.827 212.219 203.272 212.496C202.739 212.752 202.323 213.157 202.024 213.712C201.747 214.245 201.555 214.928 201.448 215.76ZM216.392 226V209.168H220.072L220.424 211.472H220.648C221.032 210.917 221.49 210.437 222.024 210.032C222.578 209.627 223.197 209.317 223.88 209.104C224.562 208.891 225.309 208.784 226.12 208.784C227.229 208.784 228.2 208.987 229.032 209.392C229.864 209.797 230.504 210.437 230.952 211.312C231.421 212.187 231.656 213.328 231.656 214.736V226H227.208V215.44C227.208 214.907 227.144 214.459 227.016 214.096C226.888 213.712 226.696 213.403 226.44 213.168C226.205 212.912 225.906 212.731 225.544 212.624C225.181 212.517 224.776 212.464 224.328 212.464C223.666 212.464 223.069 212.624 222.536 212.944C222.002 213.264 221.586 213.701 221.288 214.256C220.989 214.811 220.84 215.451 220.84 216.176V226H216.392ZM244.675 232.016C243.928 232.016 243.224 231.856 242.563 231.536C241.902 231.237 241.368 230.789 240.963 230.192C240.558 229.595 240.355 228.88 240.355 228.048C240.355 227.109 240.622 226.363 241.155 225.808C241.71 225.232 242.328 224.805 243.011 224.528C242.52 224.251 242.115 223.888 241.795 223.44C241.496 222.992 241.347 222.469 241.347 221.872C241.347 221.04 241.646 220.368 242.243 219.856C242.862 219.323 243.566 218.981 244.355 218.832C243.566 218.341 242.947 217.723 242.499 216.976C242.072 216.208 241.859 215.355 241.859 214.416C241.859 213.2 242.158 212.176 242.755 211.344C243.374 210.512 244.248 209.883 245.379 209.456C246.531 209.008 247.886 208.784 249.443 208.784C250.062 208.784 250.638 208.816 251.171 208.88C251.726 208.944 252.227 209.051 252.675 209.2C253.464 208.731 253.998 208.219 254.275 207.664C254.574 207.088 254.734 206.629 254.755 206.288H258.883C258.883 207.077 258.734 207.76 258.435 208.336C258.158 208.912 257.752 209.392 257.219 209.776C256.686 210.139 256.046 210.405 255.299 210.576C255.854 211.045 256.28 211.611 256.579 212.272C256.878 212.933 257.027 213.648 257.027 214.416C257.027 215.611 256.739 216.635 256.163 217.488C255.587 218.32 254.766 218.96 253.699 219.408C252.654 219.856 251.395 220.08 249.923 220.08H247.363C246.851 220.08 246.467 220.176 246.211 220.368C245.955 220.539 245.827 220.795 245.827 221.136C245.827 221.413 245.934 221.659 246.147 221.872C246.382 222.064 246.755 222.16 247.267 222.16H254.275C255.683 222.16 256.803 222.597 257.635 223.472C258.488 224.325 258.915 225.424 258.915 226.768C258.915 227.792 258.648 228.699 258.115 229.488C257.582 230.277 256.846 230.896 255.907 231.344C254.968 231.792 253.891 232.016 252.675 232.016H244.675ZM246.531 229.04H252.451C252.835 229.04 253.176 228.965 253.475 228.816C253.774 228.688 254.008 228.496 254.179 228.24C254.35 228.005 254.435 227.728 254.435 227.408C254.435 226.853 254.264 226.437 253.923 226.16C253.582 225.883 253.155 225.744 252.643 225.744H246.531C246.019 225.744 245.592 225.893 245.251 226.192C244.931 226.491 244.771 226.885 244.771 227.376C244.771 227.867 244.931 228.261 245.251 228.56C245.592 228.88 246.019 229.04 246.531 229.04ZM249.443 217.2C250.488 217.2 251.278 216.965 251.811 216.496C252.366 216.005 252.643 215.312 252.643 214.416C252.643 213.52 252.366 212.837 251.811 212.368C251.278 211.877 250.488 211.632 249.443 211.632C248.419 211.632 247.63 211.877 247.075 212.368C246.542 212.837 246.275 213.52 246.275 214.416C246.275 214.992 246.392 215.493 246.627 215.92C246.862 216.347 247.214 216.667 247.683 216.88C248.152 217.093 248.739 217.2 249.443 217.2ZM261.361 226V209.168H265.041L265.393 211.792H265.617C265.83 211.237 266.107 210.736 266.449 210.288C266.79 209.819 267.217 209.445 267.729 209.168C268.241 208.891 268.838 208.752 269.521 208.752C269.883 208.752 270.214 208.795 270.513 208.88C270.811 208.944 271.035 209.008 271.185 209.072V213.104H269.809C269.147 213.104 268.561 213.2 268.049 213.392C267.558 213.563 267.142 213.84 266.801 214.224C266.459 214.608 266.203 215.077 266.033 215.632C265.883 216.187 265.809 216.837 265.809 217.584V226H261.361ZM277.652 226.384C277.098 226.384 276.5 226.32 275.86 226.192C275.242 226.064 274.655 225.84 274.1 225.52C273.546 225.179 273.087 224.699 272.724 224.08C272.383 223.44 272.212 222.629 272.212 221.648C272.212 220.475 272.468 219.504 272.98 218.736C273.492 217.968 274.218 217.371 275.156 216.944C276.116 216.496 277.258 216.187 278.58 216.016C279.903 215.845 281.364 215.76 282.964 215.76V214.512C282.964 214.021 282.879 213.595 282.708 213.232C282.559 212.869 282.282 212.581 281.876 212.368C281.492 212.155 280.948 212.048 280.244 212.048C279.54 212.048 278.964 212.133 278.516 212.304C278.09 212.475 277.78 212.699 277.588 212.976C277.418 213.232 277.332 213.52 277.332 213.84V214.224H273.012C272.991 214.117 272.98 214.021 272.98 213.936C272.98 213.829 272.98 213.701 272.98 213.552C272.98 212.571 273.279 211.728 273.876 211.024C274.474 210.299 275.316 209.744 276.404 209.36C277.492 208.976 278.762 208.784 280.212 208.784C281.77 208.784 283.071 208.987 284.116 209.392C285.183 209.797 285.994 210.395 286.548 211.184C287.124 211.973 287.412 212.965 287.412 214.16V221.808C287.412 222.192 287.519 222.48 287.732 222.672C287.967 222.843 288.223 222.928 288.5 222.928H289.556V225.84C289.343 225.947 289.012 226.053 288.564 226.16C288.116 226.288 287.572 226.352 286.932 226.352C286.314 226.352 285.759 226.256 285.268 226.064C284.799 225.893 284.404 225.648 284.084 225.328C283.764 224.987 283.54 224.581 283.412 224.112H283.188C282.826 224.56 282.378 224.955 281.844 225.296C281.332 225.637 280.724 225.904 280.02 226.096C279.338 226.288 278.548 226.384 277.652 226.384ZM279.156 223.024C279.754 223.024 280.287 222.939 280.756 222.768C281.226 222.576 281.62 222.331 281.94 222.032C282.26 221.712 282.506 221.328 282.676 220.88C282.868 220.432 282.964 219.952 282.964 219.44V218.512C281.77 218.512 280.703 218.597 279.764 218.768C278.826 218.917 278.079 219.184 277.524 219.568C276.991 219.952 276.724 220.485 276.724 221.168C276.724 221.552 276.82 221.883 277.012 222.16C277.204 222.437 277.482 222.651 277.844 222.8C278.207 222.949 278.644 223.024 279.156 223.024ZM297.719 226.384C296.332 226.384 295.127 226.075 294.103 225.456C293.1 224.816 292.321 223.845 291.767 222.544C291.212 221.243 290.935 219.579 290.935 217.552C290.935 215.525 291.212 213.872 291.767 212.592C292.343 211.291 293.121 210.331 294.103 209.712C295.105 209.093 296.257 208.784 297.559 208.784C298.284 208.784 298.956 208.869 299.575 209.04C300.215 209.189 300.769 209.435 301.239 209.776C301.729 210.117 302.145 210.533 302.487 211.024H302.679V202.864H307.127V226H303.479L303.127 223.728H302.903C302.348 224.624 301.623 225.296 300.727 225.744C299.831 226.171 298.828 226.384 297.719 226.384ZM299.127 222.736C299.959 222.736 300.631 222.544 301.143 222.16C301.676 221.776 302.071 221.221 302.327 220.496C302.583 219.771 302.711 218.907 302.711 217.904V217.328C302.711 216.581 302.636 215.899 302.487 215.28C302.359 214.661 302.145 214.149 301.847 213.744C301.548 213.317 301.175 212.997 300.727 212.784C300.279 212.549 299.745 212.432 299.127 212.432C298.231 212.432 297.516 212.613 296.983 212.976C296.449 213.317 296.065 213.851 295.831 214.576C295.596 215.28 295.479 216.165 295.479 217.232V217.968C295.479 219.035 295.596 219.92 295.831 220.624C296.065 221.328 296.449 221.861 296.983 222.224C297.516 222.565 298.231 222.736 299.127 222.736ZM321.965 226.384C321.41 226.384 320.813 226.32 320.173 226.192C319.554 226.064 318.967 225.84 318.413 225.52C317.858 225.179 317.399 224.699 317.037 224.08C316.695 223.44 316.525 222.629 316.525 221.648C316.525 220.475 316.781 219.504 317.293 218.736C317.805 217.968 318.53 217.371 319.469 216.944C320.429 216.496 321.57 216.187 322.893 216.016C324.215 215.845 325.677 215.76 327.277 215.76V214.512C327.277 214.021 327.191 213.595 327.021 213.232C326.871 212.869 326.594 212.581 326.189 212.368C325.805 212.155 325.261 212.048 324.557 212.048C323.853 212.048 323.277 212.133 322.829 212.304C322.402 212.475 322.093 212.699 321.901 212.976C321.73 213.232 321.645 213.52 321.645 213.84V214.224H317.325C317.303 214.117 317.293 214.021 317.293 213.936C317.293 213.829 317.293 213.701 317.293 213.552C317.293 212.571 317.591 211.728 318.189 211.024C318.786 210.299 319.629 209.744 320.717 209.36C321.805 208.976 323.074 208.784 324.525 208.784C326.082 208.784 327.383 208.987 328.429 209.392C329.495 209.797 330.306 210.395 330.861 211.184C331.437 211.973 331.725 212.965 331.725 214.16V221.808C331.725 222.192 331.831 222.48 332.045 222.672C332.279 222.843 332.535 222.928 332.813 222.928H333.869V225.84C333.655 225.947 333.325 226.053 332.877 226.16C332.429 226.288 331.885 226.352 331.245 226.352C330.626 226.352 330.071 226.256 329.581 226.064C329.111 225.893 328.717 225.648 328.397 225.328C328.077 224.987 327.853 224.581 327.725 224.112H327.501C327.138 224.56 326.69 224.955 326.157 225.296C325.645 225.637 325.037 225.904 324.333 226.096C323.65 226.288 322.861 226.384 321.965 226.384ZM323.469 223.024C324.066 223.024 324.599 222.939 325.069 222.768C325.538 222.576 325.933 222.331 326.253 222.032C326.573 221.712 326.818 221.328 326.989 220.88C327.181 220.432 327.277 219.952 327.277 219.44V218.512C326.082 218.512 325.015 218.597 324.077 218.768C323.138 218.917 322.391 219.184 321.837 219.568C321.303 219.952 321.037 220.485 321.037 221.168C321.037 221.552 321.133 221.883 321.325 222.16C321.517 222.437 321.794 222.651 322.157 222.8C322.519 222.949 322.957 223.024 323.469 223.024ZM336.847 226V212.592H334.447V209.168H336.847V207.312C336.847 206.395 336.997 205.584 337.295 204.88C337.615 204.155 338.117 203.589 338.799 203.184C339.482 202.779 340.389 202.576 341.519 202.576C341.839 202.576 342.17 202.597 342.511 202.64C342.874 202.683 343.215 202.747 343.535 202.832C343.877 202.896 344.165 202.971 344.399 203.056V206H342.799C342.287 206 341.903 206.128 341.647 206.384C341.413 206.64 341.295 207.013 341.295 207.504V209.168H344.399V212.592H341.295V226H336.847ZM352.767 226V209.168H356.447L356.799 211.472H357.023C357.385 210.917 357.812 210.437 358.303 210.032C358.815 209.627 359.38 209.317 359.999 209.104C360.639 208.891 361.321 208.784 362.047 208.784C363.113 208.784 364.031 208.997 364.799 209.424C365.588 209.851 366.196 210.533 366.623 211.472H366.847C367.209 210.917 367.647 210.437 368.159 210.032C368.671 209.627 369.257 209.317 369.919 209.104C370.58 208.891 371.284 208.784 372.031 208.784C373.097 208.784 374.015 208.976 374.783 209.36C375.572 209.744 376.191 210.373 376.639 211.248C377.087 212.101 377.311 213.211 377.311 214.576V226H372.863V215.376C372.863 214.843 372.799 214.395 372.671 214.032C372.564 213.648 372.404 213.349 372.191 213.136C371.977 212.901 371.711 212.731 371.391 212.624C371.071 212.517 370.729 212.464 370.367 212.464C369.769 212.464 369.236 212.624 368.767 212.944C368.297 213.264 367.924 213.701 367.647 214.256C367.391 214.811 367.263 215.451 367.263 216.176V226H362.815V215.376C362.815 214.843 362.751 214.395 362.623 214.032C362.516 213.648 362.356 213.349 362.143 213.136C361.929 212.901 361.663 212.731 361.343 212.624C361.044 212.517 360.703 212.464 360.319 212.464C359.743 212.464 359.209 212.624 358.719 212.944C358.249 213.264 357.876 213.701 357.599 214.256C357.343 214.811 357.215 215.451 357.215 216.176V226H352.767ZM381.267 206.704V202.864H385.715V206.704H381.267ZM381.267 226V209.168H385.715V226H381.267ZM396.614 226.384C395.441 226.384 394.385 226.256 393.446 226C392.507 225.744 391.707 225.392 391.046 224.944C390.385 224.475 389.873 223.92 389.51 223.28C389.169 222.64 388.998 221.915 388.998 221.104C388.998 221.019 388.998 220.933 388.998 220.848C388.998 220.763 389.009 220.699 389.03 220.656H393.318C393.318 220.699 393.318 220.741 393.318 220.784C393.318 220.827 393.318 220.869 393.318 220.912C393.339 221.445 393.51 221.883 393.83 222.224C394.15 222.544 394.566 222.779 395.078 222.928C395.611 223.077 396.166 223.152 396.742 223.152C397.254 223.152 397.745 223.109 398.214 223.024C398.705 222.917 399.11 222.736 399.43 222.48C399.771 222.224 399.942 221.893 399.942 221.488C399.942 220.976 399.729 220.581 399.302 220.304C398.897 220.027 398.353 219.803 397.67 219.632C397.009 219.461 396.283 219.269 395.494 219.056C394.769 218.885 394.043 218.693 393.318 218.48C392.593 218.245 391.931 217.947 391.334 217.584C390.758 217.221 390.289 216.752 389.926 216.176C389.563 215.579 389.382 214.832 389.382 213.936C389.382 213.061 389.574 212.304 389.958 211.664C390.342 211.003 390.865 210.459 391.526 210.032C392.209 209.605 392.998 209.296 393.894 209.104C394.811 208.891 395.793 208.784 396.838 208.784C397.819 208.784 398.737 208.891 399.59 209.104C400.443 209.296 401.19 209.595 401.83 210C402.47 210.384 402.971 210.875 403.334 211.472C403.697 212.048 403.878 212.699 403.878 213.424C403.878 213.573 403.878 213.712 403.878 213.84C403.878 213.968 403.867 214.053 403.846 214.096H399.59V213.84C399.59 213.456 399.473 213.136 399.238 212.88C399.003 212.603 398.662 212.389 398.214 212.24C397.787 212.091 397.265 212.016 396.646 212.016C396.219 212.016 395.825 212.048 395.462 212.112C395.121 212.176 394.822 212.272 394.566 212.4C394.31 212.528 394.107 212.688 393.958 212.88C393.83 213.051 393.766 213.264 393.766 213.52C393.766 213.883 393.915 214.181 394.214 214.416C394.534 214.629 394.95 214.811 395.462 214.96C395.974 215.109 396.539 215.269 397.158 215.44C397.926 215.653 398.726 215.867 399.558 216.08C400.411 216.272 401.201 216.539 401.926 216.88C402.651 217.221 403.238 217.712 403.686 218.352C404.134 218.971 404.358 219.813 404.358 220.88C404.358 221.904 404.155 222.768 403.75 223.472C403.366 224.176 402.822 224.741 402.118 225.168C401.414 225.595 400.593 225.904 399.654 226.096C398.715 226.288 397.702 226.384 396.614 226.384ZM412.603 226.384C411.537 226.384 410.673 226.192 410.011 225.808C409.35 225.424 408.87 224.912 408.571 224.272C408.273 223.611 408.123 222.885 408.123 222.096V212.592H406.043V209.168H408.283L409.115 204.368H412.571V209.168H415.643V212.592H412.571V221.36C412.571 221.872 412.689 222.267 412.923 222.544C413.158 222.8 413.542 222.928 414.075 222.928H415.643V225.872C415.387 225.957 415.089 226.032 414.747 226.096C414.406 226.181 414.043 226.245 413.659 226.288C413.275 226.352 412.923 226.384 412.603 226.384ZM418.517 226V209.168H422.197L422.549 211.792H422.773C422.986 211.237 423.263 210.736 423.605 210.288C423.946 209.819 424.373 209.445 424.885 209.168C425.397 208.891 425.994 208.752 426.677 208.752C427.039 208.752 427.37 208.795 427.669 208.88C427.967 208.944 428.191 209.008 428.341 209.072V213.104H426.965C426.303 213.104 425.717 213.2 425.205 213.392C424.714 213.563 424.298 213.84 423.957 214.224C423.615 214.608 423.359 215.077 423.189 215.632C423.039 216.187 422.965 216.837 422.965 217.584V226H418.517ZM430.673 206.704V202.864H435.121V206.704H430.673ZM430.673 226V209.168H435.121V226H430.673ZM443.556 226L437.284 209.168H441.988L444.452 216.272C444.58 216.635 444.73 217.115 444.9 217.712C445.092 218.309 445.284 218.939 445.476 219.6C445.668 220.261 445.828 220.859 445.956 221.392H446.116C446.266 220.901 446.426 220.336 446.596 219.696C446.767 219.035 446.938 218.405 447.108 217.808C447.3 217.189 447.46 216.677 447.588 216.272L450.052 209.168H454.532L448.228 226H443.556ZM463.52 226.384C462.347 226.384 461.291 226.256 460.352 226C459.414 225.744 458.614 225.392 457.952 224.944C457.291 224.475 456.779 223.92 456.416 223.28C456.075 222.64 455.904 221.915 455.904 221.104C455.904 221.019 455.904 220.933 455.904 220.848C455.904 220.763 455.915 220.699 455.936 220.656H460.224C460.224 220.699 460.224 220.741 460.224 220.784C460.224 220.827 460.224 220.869 460.224 220.912C460.246 221.445 460.416 221.883 460.736 222.224C461.056 222.544 461.472 222.779 461.984 222.928C462.518 223.077 463.072 223.152 463.648 223.152C464.16 223.152 464.651 223.109 465.12 223.024C465.611 222.917 466.016 222.736 466.336 222.48C466.678 222.224 466.848 221.893 466.848 221.488C466.848 220.976 466.635 220.581 466.208 220.304C465.803 220.027 465.259 219.803 464.576 219.632C463.915 219.461 463.19 219.269 462.4 219.056C461.675 218.885 460.95 218.693 460.224 218.48C459.499 218.245 458.838 217.947 458.24 217.584C457.664 217.221 457.195 216.752 456.832 216.176C456.47 215.579 456.288 214.832 456.288 213.936C456.288 213.061 456.48 212.304 456.864 211.664C457.248 211.003 457.771 210.459 458.432 210.032C459.115 209.605 459.904 209.296 460.8 209.104C461.718 208.891 462.699 208.784 463.744 208.784C464.726 208.784 465.643 208.891 466.496 209.104C467.35 209.296 468.096 209.595 468.736 210C469.376 210.384 469.878 210.875 470.24 211.472C470.603 212.048 470.784 212.699 470.784 213.424C470.784 213.573 470.784 213.712 470.784 213.84C470.784 213.968 470.774 214.053 470.752 214.096H466.496V213.84C466.496 213.456 466.379 213.136 466.144 212.88C465.91 212.603 465.568 212.389 465.12 212.24C464.694 212.091 464.171 212.016 463.552 212.016C463.126 212.016 462.731 212.048 462.368 212.112C462.027 212.176 461.728 212.272 461.472 212.4C461.216 212.528 461.014 212.688 460.864 212.88C460.736 213.051 460.672 213.264 460.672 213.52C460.672 213.883 460.822 214.181 461.12 214.416C461.44 214.629 461.856 214.811 462.368 214.96C462.88 215.109 463.446 215.269 464.064 215.44C464.832 215.653 465.632 215.867 466.464 216.08C467.318 216.272 468.107 216.539 468.832 216.88C469.558 217.221 470.144 217.712 470.592 218.352C471.04 218.971 471.264 219.813 471.264 220.88C471.264 221.904 471.062 222.768 470.656 223.472C470.272 224.176 469.728 224.741 469.024 225.168C468.32 225.595 467.499 225.904 466.56 226.096C465.622 226.288 464.608 226.384 463.52 226.384ZM482.134 226.384C480.278 226.384 478.72 226.075 477.462 225.456C476.203 224.816 475.254 223.845 474.614 222.544C473.974 221.243 473.654 219.589 473.654 217.584C473.654 215.557 473.974 213.904 474.614 212.624C475.254 211.323 476.192 210.363 477.43 209.744C478.688 209.104 480.224 208.784 482.038 208.784C483.744 208.784 485.184 209.093 486.358 209.712C487.531 210.309 488.416 211.248 489.014 212.528C489.611 213.787 489.91 215.419 489.91 217.424V218.576H478.166C478.208 219.557 478.358 220.389 478.614 221.072C478.891 221.755 479.307 222.267 479.862 222.608C480.438 222.928 481.195 223.088 482.134 223.088C482.646 223.088 483.104 223.024 483.51 222.896C483.936 222.768 484.299 222.576 484.598 222.32C484.896 222.064 485.131 221.744 485.302 221.36C485.472 220.976 485.558 220.539 485.558 220.048H489.91C489.91 221.115 489.718 222.043 489.333 222.832C488.95 223.621 488.416 224.283 487.734 224.816C487.051 225.328 486.23 225.723 485.27 226C484.331 226.256 483.286 226.384 482.134 226.384ZM478.23 215.76H485.334C485.334 215.12 485.248 214.565 485.078 214.096C484.928 213.627 484.715 213.243 484.438 212.944C484.16 212.645 483.819 212.432 483.414 212.304C483.03 212.155 482.592 212.08 482.102 212.08C481.291 212.08 480.608 212.219 480.054 212.496C479.52 212.752 479.104 213.157 478.806 213.712C478.528 214.245 478.336 214.928 478.23 215.76ZM493.173 226V202.864H497.621V226H493.173Z" fill="#D1ECEF"/>
<path d="M551.866 111.306C543.233 132.37 534.6 153.426 525.967 174.49C535.567 174.756 545.175 175.023 554.775 175.289C548.7 191.841 542.617 208.385 536.542 224.937C552.14 201.75 567.729 178.564 583.326 155.385C574.608 155.119 565.881 154.852 557.162 154.586C564.118 140.423 571.083 126.268 578.039 112.105C569.32 111.839 560.593 111.573 551.875 111.306H551.866Z" fill="#D1ECEF"/>
<path d="M547.639 106.623C538.998 127.678 530.365 148.742 521.732 169.806C531.332 170.073 540.94 170.339 550.54 170.606C544.465 187.158 538.382 203.701 532.307 220.254C547.905 197.067 563.494 173.88 579.091 150.702C570.372 150.435 561.645 150.169 552.927 149.902C559.883 135.739 566.847 121.585 573.803 107.422C565.085 107.155 556.358 106.889 547.639 106.623Z" stroke="#FFF5EB" stroke-width="3" stroke-miterlimit="10"/>
<path d="M543.712 102.97C542.583 104.259 531.743 129.895 517.369 165.079C516.65 167.073 516.351 168.792 516.214 170.03C515.94 172.531 515.743 174.292 516.847 175.616C517.771 176.724 519.191 177.008 519.995 177.094C519.935 177.549 519.927 178.168 520.209 178.778C520.919 180.334 523.093 180.979 527.867 181.305C530.647 181.494 534.386 181.58 538.878 181.202C533.668 195.949 528.466 210.688 523.255 225.436C523.024 226.072 522.742 227.051 522.622 228.28C522.468 229.922 522.305 231.761 523.46 232.913C523.7 233.153 524.513 233.867 526.19 233.858C526.19 234.279 526.241 234.958 526.609 235.646C527.336 237.012 528.765 237.442 529.441 237.648C532.658 238.619 535.815 236.204 536.26 235.86C553.244 210.654 570.236 185.447 587.219 160.241C587.544 159.82 587.989 159.184 588.374 158.342C588.785 157.439 590.316 154.113 588.691 151.604C588.425 151.191 587.595 150.066 585.653 149.498C585.465 149.344 585.208 149.094 585.02 148.716C584.695 148.055 584.866 147.547 584.772 147.118C584.652 146.594 584.079 145.958 582.085 145.468C577.397 145.304 572.708 145.133 568.028 144.969C573.033 135.224 578.03 125.469 583.035 115.724C583.181 115.345 583.377 114.804 583.531 114.125C583.865 112.681 584.524 109.862 583.035 107.791C582.744 107.387 581.812 106.236 579.707 105.746C579.767 105.273 579.784 104.517 579.407 103.752C579.407 103.752 579.031 102.978 578.218 102.403C576.054 100.89 565.068 101.002 562.715 101.002C562.715 101.002 548.084 101.019 547.212 101.251C547.152 101.268 546.69 101.191 546.065 101.397C546.065 101.397 544.79 101.75 543.729 102.97H543.712Z" stroke="#34499A" stroke-miterlimit="10"/>
</svg>
