<svg width="551" height="396" viewBox="0 0 551 396" fill="none" xmlns="http://www.w3.org/2000/svg">
<path d="M165.131 8.20826C148.382 4.54695 139.99 2.71629 130.566 2.35571C119.801 1.96738 102.33 1.32943 83.1039 8.20826C71.6167 12.3134 64.6005 17.2506 56.2086 23.1586C31.3768 40.6331 18.961 59.7995 14.4899 67.3718C7.26734 79.5484 0.182382 92.0302 1.0766 108.728C1.42053 115.052 2.0396 123.706 8.9526 131.639C12.7014 135.91 18.8922 140.654 45.2372 147.532C63.6031 152.331 86.5432 156.769 119.389 159.626C122.14 159.875 134.35 163.204 149.345 161.54C157.015 160.68 160.557 159.154 162.621 158.045C171.872 153.052 174.039 144.232 174.624 141.375C176.206 126.618 178.063 115.551 179.576 107.702C180.471 103.153 181.571 97.9937 178.338 92.6959C174.658 86.6769 167.401 83.7367 163.033 82.3499C157.565 82.3499 150.17 82.0448 141.572 80.6302C136.585 79.8258 129.569 78.6608 121.315 75.6375C109.38 71.255 107.661 67.6214 98.7871 66.7893C95.8637 66.5119 90.3265 65.9849 85.2707 68.5922C76.9476 72.9192 77.0851 82.0448 77.1195 82.9046C77.2915 88.5907 80.9372 92.5572 83.3103 95.1645C87.8846 100.185 93.4562 102.792 96.5516 104.013C101.607 104.429 105.494 106.592 106.422 109.449C106.973 111.113 106.56 113.277 105.012 114.664C100.507 118.769 87.1623 115.69 79.1143 111.945C67.0768 106.343 62.3649 97.1893 61.3675 95.1367C60.267 92.89 54.9704 81.2126 62.2274 68.7864C67.4895 59.7163 76.4317 55.4448 79.9742 53.8083C83.6198 52.1163 94.4536 47.0959 106.732 49.2594C111.272 50.0637 113.335 51.3674 122.793 56.0827C129.466 59.4112 136.998 62.9893 145.321 66.7615C146.353 67.2053 147.866 67.7878 149.826 68.1207C155.089 69.036 161.038 67.9265 165.028 65.1805C168.123 63.0448 169.258 59.8827 171.494 53.6141C173.661 47.5951 172.87 46.5411 175.14 41.5761C177.066 37.3878 177.788 37.7484 179.92 33.1718C182.362 27.9849 183.91 24.6564 182.74 20.69C181.674 17.1119 178.957 14.8097 177.547 13.6725C173.179 10.0667 167.986 8.87395 165.166 8.26373L165.131 8.20826Z" fill="#273AAA" stroke="#34499A" stroke-width="2" stroke-miterlimit="10"/>
<path d="M218.406 38.3869C217.34 37.0555 215.414 35.0861 212.318 33.3664C210.633 32.4511 206.54 30.2044 201.037 30.3431C192.474 30.565 187.383 36.3898 186.971 36.9168C181.777 43.1022 184.529 50.092 185.079 51.562C186.558 55.2788 189.172 57.7752 195.707 62.6569C201.037 66.6233 208.57 71.8657 218.234 77.5518C228.827 72.0321 236.806 66.8452 242.343 62.9066C246.161 60.1883 249.532 57.581 251.733 53.3095C252.799 51.2847 255.069 46.9022 253.28 41.6876C253.074 41.0774 250.288 33.3664 241.174 31.0642C234.502 29.4 228.724 31.7022 226.798 32.4788C222.292 34.2817 219.644 36.9168 218.406 38.3591V38.3869Z" fill="#273AAA" stroke="#34499A" stroke-width="2" stroke-miterlimit="10"/>
<path d="M184.838 158.434C184.323 155.827 185.217 152.97 186.971 147.228C188.278 142.901 189.653 139.767 189.791 139.434C191.82 134.774 193.746 125.454 193.574 105.262C193.643 102.1 193.746 98.9376 193.815 95.7756C192.886 94.4164 191.648 92.1975 191.236 89.3128C190.96 87.5653 190.823 86.4836 191.476 85.5128C192.714 83.6821 196.119 83.3493 203.239 83.2383C217.959 83.0164 218.028 84.2369 223.496 83.2383C228.758 82.2675 230.856 80.742 234.812 81.5186C238.148 82.1843 240.452 84.0705 241.862 85.5128C243.203 94.7493 242.619 102.127 241.862 107.176C240.658 115.108 239.145 115.857 238.32 124.262C237.735 130.281 237.15 136.494 239.042 144.205C239.627 146.618 240.28 148.393 240.693 151.805C241.312 156.908 241.759 160.57 239.523 164.148C238.698 165.451 236.325 168.641 230.1 170.805C219.575 170.611 209.051 170.416 198.527 170.222C194.675 168.724 186.111 164.814 184.873 158.434H184.838Z" fill="#273AAA" stroke="#34499A" stroke-width="2" stroke-miterlimit="10"/>
<path d="M393.776 121.043C393.226 116.689 392.435 110.032 387.379 108.256C383.527 106.925 378.712 108.95 373.209 111.252C365.161 114.636 365.333 116.744 359.211 118.602C355.669 119.684 351.404 119.656 342.909 119.656C331.25 119.629 328.601 118.214 327.363 116.716C326.95 116.189 326.228 115.329 326.434 114.386C327.157 110.503 340.983 110.614 351.713 107.757C370.629 102.737 380.569 88.4798 382.254 85.928C395.255 66.4565 385.04 46.4857 383.596 43.7674C380.569 38.1368 375.101 27.9017 363.029 25.0448C353.295 22.7149 344.216 26.3485 337.578 29.0112C330.906 31.674 328.429 33.9207 306.762 50.2579C291.698 61.6302 289.978 62.7397 286.195 63.239C281.792 63.7937 267.347 64.4317 262.532 65.4025C259.334 66.0404 258.061 67.3163 257.752 67.9266C257.752 67.982 257.648 68.1207 257.511 68.3704C257.511 68.3704 257.201 68.9528 256.376 70.3674C256.376 70.3952 255.722 87.3426 255.379 97.966C255.103 106.343 254.725 118.159 254.381 132.637C255.138 144.037 255.275 152.331 255.069 158.877C254.966 161.789 254.691 167.892 258.783 169.75C259.815 170.221 260.881 170.305 261.638 170.305C274.776 170.221 287.949 170.11 301.087 170.027C304.148 170.11 308.344 169.805 312.54 167.975C315.188 166.838 318.043 165.589 318.765 163.093C319.384 160.957 318.249 158.655 316.736 157.24C315.876 156.436 314.947 155.992 314.706 155.881C311.061 154.134 299.745 146.062 297.166 135.494C296.753 133.775 295.274 127.783 298.679 125.981C300.984 124.76 304.526 125.981 305.764 126.397C310.992 128.172 313.64 131.916 314.363 132.915C323.167 145.202 328.532 152.692 335.102 157.24C347.07 165.534 363.201 164.119 368.979 163.62C373.175 163.259 382.564 162.427 385.659 157.49C386.519 156.103 386.622 154.827 386.657 154.217C387.688 141.652 395.427 134.884 393.742 121.043H393.776ZM311.955 102.21C306.762 104.151 298.095 105.51 294.896 102.432C294.208 101.766 293.933 101.073 294.036 95.109C294.174 88.4244 294.243 85.0404 295.171 82.9601C295.962 81.2127 297.819 77.0244 302.841 74.4725C305.833 72.947 309.582 72.6974 317.045 72.1704C321.688 71.8652 324.027 71.6988 325.3 72.3922C329.977 74.9163 328.189 83.3207 326.71 87.2871C326.022 89.1455 322.686 98.1879 311.921 102.182L311.955 102.21Z" fill="#273AAA" stroke="#34499A" stroke-width="2" stroke-miterlimit="10"/>
<path d="M399.038 36.473C395.908 26.6263 389.408 24.6292 388.995 16.8351C388.927 15.7256 388.617 9.92849 393.226 5.74017C394.67 4.43652 398.522 1.49637 412.795 1.05257C418.539 0.858414 437.524 0.719728 459.363 10.0117C465.933 12.8132 469.234 14.2555 471.539 17.2788C477.179 24.7124 473.017 34.6978 469.406 42.8803C465.657 51.4511 463.869 50.9518 458.813 60.3825C453.001 71.2555 447.429 81.7124 451.935 92.3913C452.898 94.6657 455.615 101.128 463.043 104.346C475.287 109.644 492.862 102.876 501.667 95.3869C512.741 85.9562 515.493 78.9942 515.493 78.9942C516.284 76.9694 517.075 74.2234 520.17 72.3372C523.747 70.146 528.975 70.0628 532.621 71.0613C541.425 73.4745 544.314 83.0993 546.343 89.8117C548.579 97.1898 551.606 107.397 545.518 118.298C539.809 128.477 529.388 133.47 521.821 137.048C518.072 138.851 514.461 140.182 489.629 146.423C475.391 150.001 468.271 151.777 462.837 152.969C426.587 160.791 417.748 158.489 412.967 156.492C410.972 155.66 404.3 152.858 402.581 147.616C401.239 143.566 403.475 139.988 404.644 137.742C407.533 132.277 407.671 124.955 407.98 110.254C408.255 95.7475 404.163 98.4934 402.374 77.5796C402.168 75.3883 401.102 62.4905 400.311 46.7635C400.035 41.438 399.967 39.5241 399.004 36.5007L399.038 36.473Z" fill="#273AAA" stroke="#34499A" stroke-width="2" stroke-miterlimit="10"/>
<path d="M92.4588 174.993C91.2207 173.994 88.7444 172.191 77.601 168.89C51.7719 161.263 45.8907 165.312 35.4352 158.877C33.0965 157.435 29.1757 154.634 23.5352 154.523C23.2601 154.523 17.7572 154.467 14.6274 156.714C9.91558 160.07 11.8416 167.559 18.4107 185.921C27.8343 212.299 31.8239 219.206 33.5436 222.09C42.1074 236.431 48.2294 240.98 53.01 243.67C60.3357 247.803 70.9976 251.187 73.8178 248.69C74.2993 248.247 75.0559 247.193 71.9262 239.537C67.799 229.413 64.0502 225.253 66.2513 222.978C67.1456 222.035 68.4181 222.063 71.9262 221.674C79.0111 220.87 85.7178 219.428 88.1253 218.623C98.0305 215.35 100.507 201.565 100.541 194.88C100.541 191.302 100.644 181.705 92.4244 175.048L92.4588 174.993ZM72.9924 196.128C72.6484 197.238 71.5135 201.093 67.0424 203.09C63.8782 204.505 59.132 204.949 56.243 203.09C55.108 202.369 54.5577 201.482 54.3514 201.121C51.256 195.962 43.208 182.426 49.1236 178.626C52.2534 176.601 57.9282 178.21 60.3013 178.904C61.4363 179.236 65.5979 180.512 68.934 183.924C69.8282 184.812 74.8496 189.915 72.9924 196.128Z" fill="#273AAA" stroke="#34499A" stroke-width="2" stroke-miterlimit="10"/>
<path d="M180.814 191.33C179.645 188.639 176.79 182.481 169.465 178.459C166.748 176.989 164.271 176.24 155.398 174.743C136.275 171.525 126.577 169.972 120.558 172.995C118.322 174.105 114.814 176.435 112.166 181.483C111.169 193.188 109.827 209.442 108.383 228.997C106.594 253.1 106.285 260.284 109.724 270.63C114.608 285.303 122.828 293.624 131.082 302.001C138.992 310.045 144.633 313.235 151.064 313.54C157.29 313.845 162.242 311.376 163.48 310.711C166.507 309.102 169.74 306.439 173.489 298.728C178.132 289.131 179.06 281.032 179.164 279.978C180.918 263.002 181.158 252.296 181.881 240.313C182.568 228.913 182.087 217.486 182.947 206.113C183.153 203.229 183.635 197.737 180.78 191.302L180.814 191.33ZM155.123 262.808C155.329 264.667 155.914 268.966 152.681 271.518C149.792 273.792 144.702 273.986 141.056 272.821C136 271.213 134.074 267.135 132.939 264.75C130.91 260.478 131.22 256.706 131.357 255.236C132.08 246.61 132.527 237.984 133.421 229.385L135.106 207.667C135.106 207.667 136.413 201.121 141.331 198.513C141.538 198.402 145.183 196.544 149.173 197.654C152.303 198.513 153.85 200.705 154.297 201.37C155.329 202.813 155.57 204.144 155.639 204.643C157.53 215.738 153.231 246.332 155.088 262.836L155.123 262.808Z" fill="#273AAA" stroke="#34499A" stroke-width="2" stroke-miterlimit="10"/>
<path d="M196.566 180.263C194.503 182.121 194.572 184.756 194.709 189.278C194.847 193.826 196.119 195.491 196.945 200.4C197.495 203.618 197.495 206.086 197.323 210.94C196.532 231.771 193.918 249.079 192.852 270.52C192.405 279.007 192.577 281.532 190.995 286.164C187.865 295.4 182.981 298.063 180.539 307.826C179.508 311.959 178.545 315.926 179.783 320.752C181.33 326.688 184.804 328.297 200.315 341.805C211.837 351.845 215.448 355.84 221.192 355.34C225.663 354.952 228.621 352.123 229.033 351.734C233.573 347.241 230.375 342.221 231.269 327.353C231.613 321.418 232.37 318.228 235.362 316.508C237.529 315.26 241.037 314.678 243.582 315.593C251.148 318.394 244.098 333.04 248.431 353.51C249.635 359.14 253.831 375.339 269.308 387.21C273.538 390.456 280.417 395.587 287.605 394.145C294.449 392.758 297.476 386.156 297.682 385.713C300.193 380.082 297.613 374.59 296.925 373.064C295.137 369.07 293.624 352.539 290.597 319.504C289.84 311.238 290.975 296.149 293.211 265.943C293.211 265.943 294.758 245.39 302.153 218.097C304.113 210.829 305.764 206.447 309.995 202.148C316.392 195.602 324.543 189.499 324.543 189.499C326.778 187.835 329.874 185.589 330.149 182.288C330.321 180.124 329.22 178.321 328.292 177.184C322.101 176.407 312.608 175.548 301.052 175.991C287.914 176.491 279.385 176.796 273.435 181.095C264.458 187.641 266.109 199.956 266.728 205.171C268.792 223.283 268.723 249.911 263.736 291.822C261.672 294.263 261.122 294.54 261.122 294.54C259.162 295.456 256.17 294.069 255.894 293.93C250.392 291.351 253.418 279.424 252.902 259.619C252.696 251.631 252.008 246.721 248.431 245.473C245.955 244.613 242.859 245.778 240.59 246.971L228.277 289.991C227.589 290.491 225.388 291.933 223.049 291.489C220.332 290.99 219.128 288.244 218.578 286.968C214.829 278.37 222.671 264.113 222.671 264.113C222.671 264.113 236.187 239.537 238.423 200.927C238.698 196.101 236.978 192.772 236.462 191.885C236.153 191.302 235.19 189.694 233.47 187.974C231.303 185.81 227.864 183.425 220.779 181.345C214.348 179.459 201.45 175.714 196.532 180.152L196.566 180.263Z" fill="#273AAA" stroke="#34499A" stroke-width="2" stroke-miterlimit="10"/>
<path d="M390.956 171.248C388.101 170.278 385.246 170.638 378.643 172.441C364.817 176.241 355.393 178.848 345.075 185.672C329.839 195.768 323.408 207.945 318.971 216.654C312.436 229.469 310.545 245.834 307.037 278.037C304.182 304.387 306.177 296.676 304.045 313.54C304.045 313.54 302.669 324.441 305.18 360.472C305.283 361.803 305.523 364.799 308.172 367.101C311.198 369.764 315.738 370.013 317.114 370.096C325.506 370.596 331.593 364.743 346.589 354.453C362.994 343.191 368.291 341.527 375.685 332.79C377.508 330.626 379.847 327.853 382.014 323.775C383.664 320.724 385.934 315.621 386.863 296.399C387.516 282.78 386.657 279.645 383.871 278.342C381.154 277.066 377.302 277.842 374.929 278.952C368.772 281.781 371.111 287.301 364.851 293.098C364.095 293.819 357.01 300.226 349.547 298.812C342.186 297.397 339.676 289.326 339.469 288.577C337.371 281.365 341.464 272.6 349.168 268.107C359.933 261.81 369.804 268.523 379.331 261.783C386.038 257.04 387.104 249.523 387.585 246.167C388.067 242.699 389.03 235.932 384.593 233.518C381.085 231.605 375.754 233.352 369.666 235.321C359.005 238.788 355.634 242.921 352.504 241.645C350.131 240.675 350.062 237.429 349.89 231.105C349.753 225.641 349.718 221.896 352.883 218.457C353.605 217.68 355.772 215.323 359.589 214.241C368.6 211.717 374.585 219.899 385.35 218.152C390.749 217.292 394.12 214.435 395.048 213.631C396.631 212.244 400.207 208.61 400.276 197.377C400.311 189.278 400.379 174.438 390.956 171.193V171.248Z" fill="#273AAA" stroke="#34499A" stroke-width="2" stroke-miterlimit="10"/>
<path d="M522.647 206.835C520.308 205.587 517.04 206.419 515.39 206.835C506.929 208.998 507.376 214.684 498.881 218.54C493.997 220.759 486.362 222.284 481.547 219.511C480.137 218.706 479.277 217.708 478.727 216.903C497.918 210.302 510.85 201.759 519.035 195.13C532.208 184.478 552.293 163.232 544.83 154.189C541.116 149.696 531.314 149.086 529.938 149.003C522.199 148.531 516.318 151.083 512.604 152.581C491.934 160.874 469.784 163.121 458.607 164.286C448.77 165.284 444.85 164.868 435.219 166.893C424.73 169.084 416.716 170.776 412.658 175.991C408.255 181.622 412.073 186.836 413.07 198.403C413.655 205.143 412.692 207.223 409.459 225.696C398.9 285.581 406.295 278.951 400.414 291.627C398.625 295.455 394.017 304.525 399.004 309.546C401.033 311.598 404.403 312.735 407.464 312.791C412.52 312.902 415.615 310.1 428.031 299.782C435.357 293.708 436.011 293.236 440.929 289.048C452.45 279.229 455.408 276.095 455.443 271.823C455.443 269.188 454.342 266.775 453.826 265.638C451.694 261.033 449.08 260.312 446.569 256.873C441.892 250.438 443.474 242.477 446.569 237.706C447.601 236.125 449.286 233.49 452.21 233.157C456.646 232.658 460.464 237.762 460.67 238.039C462.424 240.424 462.08 241.839 463.078 249.078C464.247 257.427 465.176 259.286 467.102 260.118C469.234 261.061 471.986 260.506 472.33 260.451C474.428 260.035 479.793 256.9 477.97 257.843C477.97 257.843 493.653 244.862 523.506 220.149C526.43 213.88 525.983 208.582 522.715 206.835H522.647ZM447.291 208.138C446.294 207.14 447.36 206.308 448.083 200.677C449.183 192.134 447.188 191.024 448.874 188.001C452.726 181.095 466.792 180.318 469.028 180.207C473.293 179.985 480.481 179.569 483.542 183.119C486.706 186.753 483.542 192.356 482.751 193.854C475.528 206.779 451.212 212.132 447.291 208.166V208.138Z" fill="#273AAA" stroke="#34499A" stroke-width="2" stroke-miterlimit="10"/>
</svg>
