<svg width="340" height="326" viewBox="0 0 340 326" fill="none" xmlns="http://www.w3.org/2000/svg">
<path d="M90.9422 101.356C93.758 100.253 97.9398 98.3884 102.657 95.3738C108.688 91.5147 111.935 88.1247 114.698 85.7201C124.007 77.603 134.199 75.3626 144.548 72.7937C154.624 70.2952 162.515 68.3363 171.351 70.7527C185.315 74.5767 193.352 87.0573 200.591 98.6347C216.53 124.136 220.145 149.941 221.91 163.924C223.938 179.9 223.255 192.709 221.91 218.327C220.512 244.883 218.022 253.353 215.816 259.135C209.806 274.877 200.35 285.211 193.888 291.099C195.286 287.428 197.019 281.809 197.544 274.783C198.795 257.986 192.281 245.036 189.013 238.737C184.253 229.552 182.667 230.772 170.132 213.576C166.297 208.31 159.499 198.949 153.08 187.735C148.047 178.95 141.659 166.281 136.027 149.648C136.836 141.484 137.656 133.332 138.465 125.168C136.258 123.854 132.57 122.106 128.105 122.446C123.986 122.751 121.223 124.687 112.271 131.291C106.66 135.432 102.195 138.775 99.4738 140.816C97.1623 136.956 94.0312 130.763 92.161 122.458C90.1752 113.637 90.4484 106.107 90.9422 101.38V101.356Z" stroke="#273AAA" stroke-width="3" stroke-miterlimit="10"/>
<path d="M90.9422 101.356C81.3495 109.895 72.9545 113.579 66.8921 115.338C63.1516 116.429 58.6127 117.262 52.8024 120.828C49.3667 122.939 44.7332 125.86 41.6232 131.807C40.7511 133.473 36.4013 141.801 39.3852 147.032C39.9 147.924 41.8123 150.821 54.1368 151.279C64.8117 151.677 73.2592 149.859 77.609 148.78C83.1882 147.396 90.7846 145.026 99.4527 140.792" stroke="#273AAA" stroke-width="3" stroke-miterlimit="10"/>
<path d="M99.7574 178.973C106.114 198.539 110.621 214.491 113.458 225.048C120.666 251.804 122.263 262.596 131.225 276.73C136.794 285.516 143.077 295.416 154.603 299.698C173.19 306.606 190.831 293.469 193.899 291.1" stroke="#273AAA" stroke-width="3" stroke-miterlimit="10"/>
<path d="M111.714 150.669C107.942 159.947 103.96 169.39 99.7575 178.985C95.1765 189.448 90.564 199.582 85.941 209.365C82.3266 209.307 76.8211 208.697 70.6851 205.917C61.7753 201.87 56.3328 195.383 53.7796 191.876C54.5046 183.524 56.2802 173.143 60.3779 161.953C61.8594 157.918 63.4564 154.258 65.0955 150.962" stroke="#273AAA" stroke-width="3" stroke-miterlimit="10"/>
<path d="M53.7691 191.864C52.7394 200.204 50.9322 212.192 47.5806 226.397C45.1955 236.508 43.9977 241.564 41.8123 247.112C36.7901 259.815 29.8766 268.015 16.0391 284.401C14.9043 285.75 13.9272 286.841 12.3302 287.627C8.11692 289.692 4.64967 287.076 2.8425 289.234C1.7708 290.513 1.82333 292.812 2.43273 294.301C3.96673 298.079 9.72447 298.325 12.5403 298.442C15.3666 298.559 24.476 298.947 32.9551 292.002C39.1961 286.888 40.6566 281.434 46.5614 280.718C48.7678 280.448 48.9675 281.164 52.13 280.953C55.0299 280.753 61.0188 280.343 64.0868 276.12C66.6925 272.531 66.1987 267.546 65.3266 258.631C64.8433 253.669 64.3389 253.692 64.2969 251.03C64.1708 243.816 67.7432 238.537 71.7147 232.379C75.0664 227.195 79.868 219.594 85.941 209.365" stroke="#273AAA" stroke-width="3" stroke-miterlimit="10"/>
<path d="M52.1195 280.953C45.4161 289.445 42.138 296.542 40.3623 301.668C39.2171 304.988 37.4099 311.122 33.1441 312.952C32.5873 313.187 30.5069 313.996 28.1954 314.794C25.0119 315.896 23.8456 316.143 23.2467 317.327C22.5638 318.665 22.8475 320.741 23.6565 321.926C26.2201 325.703 36.065 323.697 43.4513 319.169C50.617 314.77 49.0305 311.932 57.8877 305.82C65.8414 300.331 72.2611 297.563 72.2611 297.563C77.1047 295.475 79.5528 295.076 81.1919 292.237C82.9885 289.117 82.4317 285.41 81.6016 280.273C80.1727 271.463 78.0503 270.853 77.4829 265.305C77.2728 263.264 78.8593 257.728 82.0219 246.655C84.1023 239.382 85.5837 234.761 88.6202 229.388C89.5133 227.816 90.3118 226.561 90.8897 225.705C86.5398 224.708 82.1795 223.723 77.8297 222.726" stroke="#273AAA" stroke-width="3" stroke-miterlimit="10"/>
<path d="M90.8896 225.705C93.3588 219.101 95.8384 212.509 98.3075 205.905C106.356 223.113 114.393 240.321 122.442 257.528" stroke="#273AAA" stroke-width="3" stroke-miterlimit="10"/>
<path d="M221.153 229.857C225.703 226.514 232.984 221.811 242.64 218.456C258.946 212.802 262.76 217.705 271.365 212.309C285.371 203.512 280.254 187.395 296.151 174.539C305.544 166.938 308.507 171.618 318.184 163.114C331.223 151.666 335.194 134.974 336.287 130.177C336.928 127.35 338.956 117.52 337.464 104.699C335.489 87.7494 327.43 75.0107 311.386 50.2371C298.977 31.0704 294.008 26.8711 290.803 24.4899C287.262 21.8624 277.039 14.4725 263.012 13.8157C255.206 13.4403 254.239 15.54 235.338 20.2202C218.695 24.3374 210.184 26.3784 200.686 25.2406C193.815 24.4195 188.225 22.097 177.067 17.4519C155.286 8.38469 154.614 4.00943 143.539 2.63703C129.145 0.854082 118.523 6.80116 114.068 9.2879C108.552 12.3729 101.88 16.1147 101.018 22.4723C100.482 26.3901 102.363 29.7918 100.23 34.0263C98.9694 36.5365 97.8347 36.2667 96.1851 39.3048C94.9348 41.6038 94.5566 43.9968 93.8526 48.6887C93.1381 53.4745 92.7389 56.1959 92.9385 60.0081C93.1907 64.747 93.3273 67.398 95.1239 69.2865C98.1079 72.4301 103.288 70.9287 104.633 70.5416C111.473 68.5592 114.824 61.6151 115.623 59.8439C115.539 59.0111 115.444 56.8879 116.537 54.7296C117.693 52.4658 119.952 50.6007 122.526 50.5655C125.783 50.5186 128.903 53.4159 129.712 57.6387C131.856 59.0345 134.01 60.4773 136.195 61.967C140.85 65.1575 145.284 68.3715 149.507 71.5738" stroke="#273AAA" stroke-width="3" stroke-miterlimit="10"/>
<path d="M119.552 126.048C121.738 128.37 124.007 131.021 126.277 134.047C130.816 140.1 134.136 146.047 136.563 151.22" stroke="#273AAA" stroke-width="3" stroke-miterlimit="10"/>
<path d="M102.866 69.1694C104.126 74.4479 106.175 77.2162 107.856 78.7762C109.044 79.8671 111.071 81.2982 112.574 84.2776C113.194 85.4975 113.53 86.6001 113.719 87.3508" stroke="#273AAA" stroke-width="3" stroke-miterlimit="10"/>
</svg>
