<svg width="141" height="141" viewBox="0 0 141 141" fill="none" xmlns="http://www.w3.org/2000/svg">
<g clip-path="url(#clip0_130_62)">
<path d="M70.4855 140.971C109.414 140.971 140.971 109.414 140.971 70.4855C140.971 31.5575 109.414 0 70.4855 0C31.5575 0 0 31.5575 0 70.4855C0 109.414 31.5575 140.971 70.4855 140.971Z" fill="#F04F5E"/>
<path d="M36.0382 55.0407C36.0382 55.677 35.9514 56.3133 36.0382 56.9207C36.4142 58.9453 35.3729 59.9865 33.7243 60.8542C28.8074 63.4284 22.7625 62.7053 19.5231 58.9742C16.6597 55.6481 16.2548 51.8013 17.9034 47.8967C19.552 43.9921 22.7625 41.9385 27.072 41.765C29.7329 41.6782 32.2203 42.1989 34.4474 43.7607C35.1126 44.2235 35.4308 44.6284 34.6788 45.2936C34.5052 45.4382 34.3606 45.6696 34.216 45.8432C33.2326 47.0386 32.0661 47.2893 30.7163 46.5952C27.8819 45.149 24.8739 45.6985 22.9939 47.9545C21.1717 50.1816 21.1428 53.9416 22.936 56.1398C24.7871 58.3958 28.2579 59.0032 30.9766 57.6438C32.336 56.9496 31.7575 55.7927 31.7286 54.8382C31.7286 53.9705 30.832 54.4912 30.3114 54.3465C30.1668 54.3176 30.0222 54.3465 29.8775 54.3465C27.1299 54.3465 26.8406 53.9995 27.2745 51.1939C27.3612 50.7312 27.4769 50.4998 27.9686 50.4998C30.3692 50.4998 32.7988 50.4998 35.1994 50.4998C35.8935 50.4998 35.9803 50.8758 35.9803 51.4253C35.9803 52.6401 35.9803 53.8259 35.9803 55.0407H36.0382Z" fill="white"/>
<path d="M102.532 75.5758C103.545 74.4767 104.326 73.6669 105.106 72.8281C105.916 71.9604 106.871 71.1506 107.536 70.1672C109.503 67.2749 112.106 66.118 115.606 67.1013C115.692 67.4195 115.258 67.593 115.027 67.8533C112.916 70.0804 110.804 72.3364 108.606 74.5057C107.941 75.1709 107.941 75.5758 108.49 76.27C110.689 79.1334 112.829 82.0546 114.969 84.9469C115.345 85.4675 115.866 85.9303 116.097 86.798C114.506 86.798 113.002 86.798 111.47 86.798C110.862 86.798 110.689 86.3063 110.428 85.9303C108.78 83.6743 107.131 81.4472 105.511 79.1623C105.02 78.4681 104.788 78.5549 104.123 79.0466C102.532 80.2324 102.503 81.7943 102.532 83.5296C102.59 86.9715 102.532 86.9426 99.1194 86.8269C98.3963 86.8269 98.1071 86.6533 98.1071 85.8435C98.1071 79.8275 98.1071 73.8115 98.1071 67.7666C98.1071 67.622 98.0492 67.4195 98.1071 67.3327C99.2062 66.2047 100.623 67.0724 101.867 66.841C102.677 66.6964 102.503 67.3617 102.503 67.7955C102.503 70.225 102.503 72.6835 102.503 75.518L102.532 75.5758Z" fill="white"/>
<path d="M45.0043 66.8994C47.4049 66.8994 49.8345 66.8994 52.2351 66.8994C53.0449 66.8994 53.3052 67.1019 53.3342 67.9406C53.392 71.0065 53.4209 71.0065 50.3551 71.0065C48.2919 71.0065 47.2603 72.067 47.2603 74.188C47.2603 78.0348 47.2603 81.8816 47.2603 85.7573C47.2603 86.625 47.0579 86.9142 46.1323 86.9142C42.8351 86.972 42.8351 87.001 42.8351 83.7326C42.8351 79.8859 42.8062 76.0391 42.8351 72.1634C42.8351 71.18 42.5459 70.9197 41.6203 70.9776C40.3188 71.0643 39.0172 70.9776 37.7157 71.0065C36.9348 71.0354 36.7612 70.7462 36.7323 70.0231C36.6455 66.9283 36.6166 66.9283 39.6535 66.9283C41.4468 66.9283 43.2111 66.9283 45.0043 66.9283V66.8994Z" fill="white"/>
<path d="M83.7323 74.9685C83.7323 77.1377 83.8191 79.3069 83.7034 81.4762C83.6455 82.6909 84.0794 82.9223 85.1785 82.8934C87.6369 82.8355 90.0954 82.8934 92.5249 82.8355C93.4794 82.8355 93.7397 83.1248 93.7397 84.0503C93.7397 86.8558 93.7686 86.8558 90.9631 86.8558C87.4634 86.8558 83.9348 86.8558 80.4351 86.8558C79.5385 86.8558 79.2782 86.5955 79.3071 85.6989C79.336 79.7697 79.3071 73.8694 79.3071 67.9402C79.3071 67.1592 79.4806 66.87 80.3483 66.8411C83.7612 66.7543 83.7612 66.7254 83.7612 70.1672C83.7612 71.758 83.7612 73.3488 83.7612 74.9395L83.7323 74.9685Z" fill="white"/>
<path d="M76.8775 52.0327C76.8775 49.0536 76.9065 46.0746 76.8775 43.0955C76.8775 42.2567 77.1089 42.0832 77.9188 42.0542C81.2738 42.0253 81.2738 41.9964 81.2738 45.2647C81.2738 48.533 81.3028 52.8715 81.2738 56.6604C81.2738 57.7016 81.4474 58.0776 82.6043 58.0487C85.0917 57.9619 87.608 58.0487 90.0954 57.9909C90.9631 57.9909 91.2234 58.2222 91.2234 59.1189C91.2234 62.0401 91.2523 62.0401 88.3022 62.0401C84.9471 62.0401 81.5631 61.9822 78.208 62.069C77.0511 62.0979 76.8775 61.7219 76.9065 60.7096C76.9643 57.8173 76.9065 54.925 76.9065 52.0616L76.8775 52.0327Z" fill="white"/>
<path d="M43.0954 42.1411C45.6792 42.0061 46.9711 43.2112 46.9711 45.7564C46.9711 50.7601 46.9422 55.7638 47 60.7675C47 61.8955 46.6818 62.098 45.6406 62.098C42.6037 62.0401 42.6037 62.098 42.6037 59.1189C42.6037 53.9127 42.6037 48.7355 42.6037 43.5294C42.6037 43.0955 42.3434 42.5749 42.8062 42.1989C43.0665 42.6906 42.9508 43.2401 42.9508 43.7607C42.9508 49.1983 42.9508 54.6069 42.9508 60.0444C42.9508 60.4783 42.864 60.9411 43.0954 61.346C43.2111 61.5195 43.2978 61.2014 43.1532 61.346C43.0665 61.4038 43.0375 61.4038 43.0086 61.2881C42.864 60.0444 42.9508 58.8008 42.9508 57.5571C42.9508 52.9004 42.9508 48.2438 42.9508 43.5872C42.9508 43.1244 42.8351 42.6327 43.0954 42.17V42.1411Z" fill="white"/>
<path d="M105.049 92.1198C106.032 91.5703 106.466 91.8016 106.437 92.9875C106.379 95.1567 106.437 97.297 106.437 99.553C107.854 98.1937 109.185 96.921 110.486 95.6484C111.47 94.665 112.482 93.6816 113.378 92.6404C114.044 91.8595 114.767 91.7727 115.895 92.062C114.304 93.7106 112.829 95.2724 111.296 96.7475C110.544 97.4706 110.37 97.9333 111.122 98.83C112.858 100.826 114.42 102.937 116.155 105.135C115.085 105.424 114.362 105.395 113.697 104.499C112.482 102.821 111.122 101.259 109.879 99.6109C109.416 98.9746 109.098 99.0035 108.519 99.5241C107.102 100.797 105.945 102.098 106.379 104.21C106.437 104.499 106.639 104.991 106.119 105.222C105.28 105.077 105.078 104.586 105.078 103.747C105.135 100.074 105.078 96.4004 105.135 92.7272C105.135 92.5247 105.135 92.3512 104.991 92.1777L105.049 92.1198Z" fill="white"/>
<path d="M74.2166 94.6943C75.4603 96.3719 76.8775 95.2728 78.4394 94.7811C79.2492 94.5208 79.9723 95.2439 80.3483 96.0248C80.7532 96.8346 80.6665 97.6445 80.0591 98.3097C78.96 99.5245 77.7742 100.652 76.6462 101.838C76.2991 102.214 76.0388 102.156 75.7206 101.838C74.6215 100.681 73.4646 99.5823 72.3945 98.4254C71.7582 97.7313 71.6425 96.8925 72.0474 96.0248C72.4234 95.215 73.1175 94.81 74.2455 94.7233L74.2166 94.6943Z" fill="white"/>
<path d="M43.0954 42.1406V61.4323C43.0086 61.4323 42.8929 61.4323 42.8062 61.4323V42.1695C42.8929 42.1695 43.0086 42.1695 43.0954 42.1406Z" fill="white"/>
<path d="M105.049 92.1197C105.251 92.1776 105.656 92.033 105.569 92.3801C104.875 96.2268 105.482 100.131 105.251 103.978C105.193 104.73 105.858 104.759 106.148 105.135C105.627 105.222 104.933 105.569 104.933 104.557C104.991 100.392 104.788 96.2557 105.049 92.0908V92.1197Z" fill="white"/>
<path d="M67.1883 55.9665C66.6098 55.1856 66.6677 54.8963 67.5643 54.4047C70.1095 53.0453 71.1508 50.529 70.6591 47.3763C70.2542 44.7443 68.4031 42.8643 65.5975 42.3437C62.3003 41.7363 58.9742 42.228 55.648 42.0545C54.4332 41.9967 54.0283 42.228 54.0572 43.5585C54.144 48.62 54.0862 53.6816 54.0862 58.7142C54.0862 62.2139 54.0862 62.2139 57.5858 62.0403C58.28 62.0114 58.4825 61.809 58.4825 61.1148C58.4535 59.6108 58.4825 58.1357 58.4825 56.6317C58.4825 56.3136 58.3668 55.9376 58.6849 55.6773C59.2923 55.2145 62.0689 55.764 62.5028 56.4293C63.544 57.9911 64.5563 59.553 65.6265 61.1148C65.9157 61.5487 66.1182 62.0403 66.8123 62.0114C68.2295 61.9825 69.6757 62.0114 71.3822 62.0114C69.8782 59.7843 68.6055 57.8176 67.2172 55.9087L67.1883 55.9665ZM63.8043 51.628C62.3292 51.7727 60.8252 51.7148 59.3212 51.7727C58.5982 51.8016 58.4246 51.4545 58.4535 50.8182C58.4825 49.6034 58.5114 48.4176 58.4535 47.2028C58.3957 46.3062 58.6849 45.988 59.5815 46.0748C60.1889 46.1327 60.8252 46.0748 61.4615 46.0748V46.1327C62.2714 46.1327 63.1102 46.0459 63.92 46.1327C65.4818 46.364 66.3206 47.4053 66.2917 48.9093C66.2917 50.3843 65.3662 51.4545 63.8043 51.5991V51.628Z" fill="white"/>
<path d="M74.3902 85.1496C72.1631 79.9145 69.936 74.6505 67.7089 69.4154C66.4363 66.4074 66.4363 66.4364 63.1969 66.6967C62.6763 66.7256 62.416 66.957 62.2425 67.3619C59.5815 73.5804 56.9495 79.7988 54.2886 86.0173C54.0283 86.6536 54.0862 86.8271 54.8092 86.8561C58.3089 87.1164 58.3089 87.1453 59.6394 83.8191C59.6972 83.6456 59.8129 83.4721 59.8708 83.2985C60.0443 82.5754 60.4782 82.3441 61.2302 82.3441C63.3415 82.4019 65.4529 82.4019 67.5932 82.3441C68.4609 82.3441 68.9237 82.6333 69.1551 83.4431C69.2997 83.9059 69.56 84.3108 69.6757 84.7736C70.0517 86.4222 70.8905 87.3477 72.4523 86.8561C72.9151 86.8561 73.0886 86.8561 73.2911 86.8561C74.5251 86.8561 74.8915 86.2872 74.3902 85.1496ZM62.7052 78.4973C61.9243 78.4973 61.9532 78.1791 62.1846 77.6296C62.9077 75.8653 63.6308 74.101 64.4695 72.0764C65.424 74.3613 66.2339 76.3281 67.1305 78.4973C65.5397 78.4973 64.1225 78.4684 62.7052 78.4973Z" fill="white"/>
<path d="M95.8511 92.0048C94.2314 91.7734 92.5828 91.9469 90.9342 91.8601C90.0954 91.8023 89.864 92.1204 89.864 92.9303C89.9219 94.8103 89.864 96.6903 89.864 98.5703C89.864 100.508 89.864 102.417 89.864 104.355C89.864 104.876 89.864 105.309 90.5871 105.28C92.3225 105.223 94.0579 105.367 95.7932 105.165C99.2062 104.76 101.607 102.041 101.694 98.7438C101.751 95.2152 99.4375 92.5543 95.8511 92.0337V92.0048ZM95.3594 103.748C92.737 104.075 91.4259 102.938 91.4259 100.335C91.4259 99.7561 91.4259 99.1777 91.4259 98.5992C91.4259 97.0952 91.4259 95.6201 91.4259 94.1161C91.4259 93.6823 91.368 93.2195 92.0332 93.2484C93.2769 93.3063 94.5495 93.1328 95.7643 93.3931C98.6566 94.0294 100.218 96.054 100.045 99.0041C99.9003 101.607 98.136 103.372 95.3305 103.748H95.3594Z" fill="white"/>
</g>
<defs>
<clipPath id="clip0_130_62">
<rect width="141" height="141" fill="white"/>
</clipPath>
</defs>
</svg>
